<svg width="300" height="300" viewBox="0 0 300 300" fill="none" xmlns="http://www.w3.org/2000/svg">
<g filter="url(#filter0_d_133_1447)">
<path d="M41.3799 74.1401C41.8399 72.3201 42.1699 70.4601 42.7799 68.7001C45.3599 61.2901 50.0099 55.8601 57.7799 53.6201C59.4837 53.1778 61.2398 52.9692 62.9999 53.0001C119.427 53.0001 175.85 53.0001 232.27 53.0001C241.81 53.0001 249.97 59.5501 252.68 69.5801C253.452 72.5548 253.839 75.6166 253.83 78.6901C253.91 109.357 253.91 140.023 253.83 170.69C253.786 171.559 253.938 172.426 254.276 173.228C254.613 174.03 255.127 174.745 255.78 175.32C257.537 176.877 258.69 179.003 259.038 181.325C259.385 183.647 258.904 186.017 257.68 188.02C257.479 188.461 257.193 188.858 256.84 189.19C254.94 190.54 255.16 192.02 256.23 193.83C256.963 195.21 257.547 196.665 257.97 198.17C258.027 198.541 258.228 198.874 258.529 199.097C258.831 199.32 259.209 199.415 259.58 199.36C261.029 199.299 262.474 199.549 263.818 200.094C265.162 200.639 266.373 201.466 267.37 202.519C268.367 203.572 269.127 204.827 269.598 206.198C270.069 207.57 270.24 209.027 270.1 210.47C269.95 212.84 270.1 215.22 270.1 217.6C270.125 218.912 269.889 220.216 269.404 221.436C268.919 222.655 268.196 223.766 267.277 224.702C266.358 225.639 265.261 226.383 264.051 226.891C262.841 227.399 261.542 227.66 260.23 227.66C259.659 227.581 259.08 227.725 258.612 228.062C258.145 228.399 257.825 228.903 257.72 229.47C257.093 231.247 256.365 232.986 255.54 234.68C255.321 234.985 255.227 235.362 255.277 235.734C255.328 236.106 255.518 236.444 255.81 236.68C260.44 241.49 260.32 247.23 255.55 251.98C253.83 253.7 252.14 255.45 250.39 257.13C249.462 258.061 248.359 258.798 247.145 259.3C245.93 259.802 244.628 260.058 243.314 260.053C242 260.048 240.7 259.783 239.489 259.273C238.279 258.763 237.181 258.017 236.26 257.08C235.933 256.645 235.449 256.354 234.911 256.27C234.373 256.186 233.824 256.315 233.38 256.63C231.61 257.54 229.68 258.12 227.88 258.97C227.619 259.123 227.394 259.332 227.222 259.58C227.049 259.829 226.932 260.112 226.88 260.41C226.52 267.24 222.52 271.1 215.68 271.11C213.42 271.11 211.15 271.11 208.88 271.11C207.526 271.158 206.176 270.929 204.912 270.439C203.649 269.949 202.499 269.208 201.531 268.259C200.563 267.311 199.798 266.176 199.282 264.923C198.766 263.67 198.51 262.325 198.53 260.97C198.614 260.449 198.489 259.916 198.181 259.487C197.874 259.058 197.41 258.768 196.89 258.68C195.142 258.128 193.446 257.425 191.82 256.58C191.624 256.432 191.401 256.324 191.163 256.262C190.926 256.201 190.678 256.188 190.435 256.223C190.192 256.259 189.959 256.342 189.749 256.469C189.538 256.595 189.355 256.762 189.21 256.96C187.838 258.432 186.044 259.443 184.075 259.854C182.105 260.266 180.057 260.059 178.21 259.26C177.101 258.822 176.084 258.181 175.21 257.37C173.04 255.37 170.93 253.26 168.91 251.09C167.083 249.239 166.066 246.737 166.083 244.136C166.1 241.535 167.149 239.048 169 237.22C169.24 237.043 169.442 236.819 169.594 236.562C169.746 236.305 169.845 236.02 169.884 235.724C169.923 235.428 169.902 235.128 169.822 234.84C169.743 234.552 169.606 234.284 169.42 234.05C168.6 232.531 167.946 230.929 167.47 229.27C167.389 228.775 167.115 228.333 166.708 228.041C166.301 227.748 165.795 227.629 165.3 227.71C153.7 227.76 142.09 227.71 130.48 227.71C129.94 227.71 129.4 227.71 128.86 227.71C128.264 227.7 127.676 227.571 127.13 227.33C126.584 227.09 126.092 226.743 125.683 226.31C125.273 225.877 124.954 225.366 124.744 224.808C124.534 224.25 124.437 223.656 124.46 223.06C124.466 222.477 124.589 221.901 124.822 221.367C125.054 220.832 125.392 220.35 125.814 219.948C126.237 219.546 126.735 219.233 127.281 219.027C127.826 218.822 128.407 218.727 128.99 218.75C136.99 218.75 144.99 218.75 152.99 218.75H155.11C155.11 216.01 155.18 213.43 155.11 210.86C154.98 206.74 156.18 203.17 159.85 201.06C161.68 200.192 163.645 199.641 165.66 199.43C166.048 199.428 166.425 199.301 166.737 199.069C167.048 198.837 167.277 198.511 167.39 198.14C168.12 196.14 168.89 194.21 169.8 192.31C169.982 192.024 170.048 191.68 169.985 191.348C169.921 191.015 169.734 190.719 169.46 190.52C164.77 185.52 164.9 179.96 169.77 175.09C171.41 173.45 173.03 171.8 174.7 170.18C175.619 169.216 176.722 168.445 177.943 167.913C179.164 167.381 180.48 167.098 181.812 167.081C183.144 167.064 184.466 167.314 185.701 167.815C186.935 168.316 188.057 169.059 189 170C189.298 170.4 189.739 170.67 190.231 170.752C190.723 170.834 191.228 170.722 191.64 170.44C193.38 169.584 195.17 168.832 197 168.19C197.86 167.87 198.29 167.53 198.32 166.5C198.49 159.89 202.59 155.93 209.21 155.88C211.48 155.88 213.74 155.88 216.01 155.88C222.33 155.98 226.44 159.97 226.65 166.27C226.602 166.663 226.699 167.06 226.924 167.387C227.149 167.713 227.485 167.945 227.87 168.04C229.95 168.79 231.95 169.72 234.02 170.51C234.44 170.67 235.2 170.77 235.42 170.51C236.577 169.2 238.033 168.188 239.664 167.559C241.295 166.931 243.053 166.705 244.79 166.9C244.79 166.22 244.86 165.7 244.87 165.17C244.87 151.24 244.87 137.31 244.87 123.38C244.87 121.84 244.46 121.38 242.87 121.38C179.37 121.42 115.873 121.42 52.3799 121.38H50.4999C50.4999 122.08 50.3799 122.64 50.3799 123.21C50.3799 149.67 50.3799 176.127 50.3799 202.58C50.2145 207 51.7335 211.318 54.6299 214.66C55.7003 215.918 57.0373 216.921 58.5439 217.597C60.0505 218.274 61.6888 218.606 63.3399 218.57C71.8199 218.57 80.2965 218.57 88.7699 218.57C89.3713 218.53 89.9745 218.612 90.5434 218.811C91.1124 219.01 91.6354 219.321 92.0811 219.727C92.5268 220.133 92.8861 220.624 93.1374 221.172C93.3888 221.72 93.527 222.313 93.5438 222.915C93.5606 223.518 93.4557 224.117 93.2354 224.678C93.015 225.239 92.6837 225.75 92.2613 226.18C91.839 226.61 91.3342 226.95 90.7772 227.18C90.2203 227.411 89.6225 227.526 89.0199 227.52C79.8399 227.52 70.6599 227.71 61.4899 227.44C53.0799 227.18 45.6399 220.75 42.7999 211.83C42.2199 209.99 41.8599 208.08 41.3899 206.21L41.3799 74.1401ZM50.4799 112.47H52.1199C115.773 112.47 179.44 112.47 243.12 112.47C244.54 112.47 244.95 112.11 244.94 110.67C244.88 99.7601 244.94 88.8601 244.94 77.9501C244.94 77.0901 244.94 76.2201 244.85 75.3601C244.19 66.9701 238.71 61.8801 230.34 61.8801H69.5899C67.4299 61.8801 65.2699 61.8801 63.1099 61.8801C61.5622 61.8617 60.0286 62.1754 58.6124 62.7998C57.1961 63.4243 55.9302 64.345 54.8999 65.5001C51.8789 68.7525 50.2589 73.063 50.3899 77.5001C50.3899 88.6201 50.3899 99.7401 50.3899 110.86C50.3799 111.3 50.4299 111.78 50.4799 112.47ZM164.1 213.53C164.1 214.72 164.1 215.91 164.1 217.09C164.066 217.307 164.083 217.528 164.151 217.737C164.219 217.945 164.335 218.135 164.49 218.29C164.645 218.445 164.835 218.561 165.043 218.629C165.252 218.697 165.473 218.714 165.69 218.68C167.09 218.68 168.49 218.68 169.9 218.68C172.58 218.68 174.09 219.74 174.75 222.31C175.797 226.446 177.449 230.405 179.65 234.06C180.259 234.943 180.522 236.018 180.389 237.082C180.256 238.146 179.737 239.124 178.93 239.83C177.93 240.89 176.93 241.91 175.84 242.92C175.646 243.046 175.487 243.219 175.376 243.422C175.266 243.626 175.208 243.854 175.208 244.085C175.208 244.316 175.266 244.544 175.376 244.748C175.487 244.951 175.646 245.124 175.84 245.25C177.55 246.9 179.22 248.58 180.84 250.25C181.69 251.13 182.39 250.98 183.17 250.17C184.17 249.12 185.17 248.08 186.27 247.09C186.982 246.292 187.962 245.781 189.024 245.654C190.087 245.527 191.159 245.792 192.04 246.4C195.699 248.587 199.657 250.231 203.79 251.28C204.871 251.474 205.843 252.057 206.523 252.92C207.203 253.782 207.544 254.864 207.48 255.96C207.54 257.41 207.48 258.87 207.48 260.33C207.48 261.46 207.97 262.03 209.14 262.02C211.46 262.02 213.793 262.02 216.14 262.02C217.29 262.02 217.84 261.49 217.84 260.35C217.84 258.84 217.84 257.35 217.84 255.81C217.783 254.771 218.103 253.746 218.74 252.924C219.377 252.101 220.29 251.535 221.31 251.33C225.558 250.267 229.625 248.582 233.38 246.33C235.38 245.12 237.24 245.43 239 247.06C240.1 248.06 241.17 249.17 242.22 250.25C242.344 250.43 242.51 250.576 242.703 250.677C242.897 250.779 243.112 250.832 243.33 250.832C243.548 250.832 243.763 250.779 243.956 250.677C244.15 250.576 244.316 250.43 244.44 250.25C246.1 248.55 247.75 246.85 249.44 245.2C250.38 244.29 250.22 243.56 249.36 242.75C248.36 241.75 247.36 240.75 246.36 239.75C244.65 237.96 244.36 236.14 245.61 234C247.858 230.243 249.543 226.176 250.61 221.93C250.836 220.944 251.402 220.07 252.208 219.459C253.014 218.849 254.01 218.541 255.02 218.59C256.47 218.59 257.93 218.59 259.39 218.59C260.58 218.59 261.22 218.13 261.21 216.88C261.21 214.56 261.21 212.227 261.21 209.88C261.21 208.73 260.71 208.2 259.54 208.22C258.03 208.22 256.54 208.27 255.01 208.22C253.996 208.24 253.006 207.911 252.205 207.289C251.404 206.666 250.841 205.788 250.61 204.8C249.558 200.549 247.873 196.48 245.61 192.73C244.31 190.56 244.61 188.73 246.42 186.85C247.42 185.85 248.36 184.85 249.42 183.85C250.25 183.07 250.36 182.36 249.5 181.52C247.8 179.86 246.133 178.193 244.5 176.52C243.66 175.66 242.95 175.79 242.17 176.61C241.17 177.61 240.17 178.61 239.17 179.61C237.24 181.42 235.41 181.68 233.17 180.32C229.506 178.137 225.54 176.506 221.4 175.48C218.89 174.85 217.74 173.29 217.68 170.67C217.68 169.337 217.68 167.987 217.68 166.62C217.68 165.5 217.3 164.9 216.09 164.91C213.71 164.91 211.34 164.91 208.96 164.91C207.77 164.91 207.32 165.5 207.33 166.62C207.33 167.953 207.33 169.303 207.33 170.67C207.33 173.42 206.23 174.9 203.57 175.59C199.543 176.634 195.687 178.25 192.12 180.39C189.83 181.76 187.9 181.49 185.96 179.62C184.96 178.62 183.96 177.62 182.96 176.62C182.841 176.453 182.684 176.315 182.503 176.219C182.321 176.122 182.12 176.069 181.915 176.063C181.709 176.057 181.505 176.099 181.319 176.185C181.132 176.272 180.968 176.4 180.84 176.56L175.57 181.83C174.84 182.56 174.97 183.22 175.69 183.91C176.78 184.91 177.84 186.03 178.87 187.13C180.57 188.95 180.87 190.74 179.59 192.9C177.425 196.572 175.789 200.531 174.73 204.66C174.12 207.11 172.55 208.2 170 208.28C168.55 208.28 167.09 208.28 165.63 208.28C164.63 208.28 164.13 208.74 164.14 209.73C164.11 211.05 164.11 212.29 164.1 213.53Z" fill="url(#paint0_linear_133_1447)"/>
<path d="M142.18 170.08C138.52 166 135 162 131.44 158C129.61 155.91 129.64 153.38 131.44 151.61C133.44 149.61 136.26 149.9 138.39 152.27C141.23 155.44 144.06 158.64 146.89 161.82C148.11 163.19 149.36 164.54 150.54 165.95C151.601 167.065 152.192 168.546 152.192 170.085C152.192 171.624 151.601 173.105 150.54 174.22C146.44 178.94 142.283 183.607 138.07 188.22C137.688 188.698 137.212 189.094 136.672 189.381C136.132 189.669 135.538 189.843 134.928 189.893C134.318 189.943 133.704 189.868 133.124 189.672C132.544 189.476 132.011 189.164 131.556 188.754C131.101 188.344 130.735 187.846 130.48 187.29C130.225 186.733 130.086 186.131 130.072 185.519C130.059 184.907 130.17 184.298 130.4 183.731C130.63 183.164 130.974 182.65 131.41 182.22C134.92 178.19 138.49 174.22 142.18 170.08Z" fill="url(#paint1_linear_133_1447)"/>
<path d="M76.8401 170.07L85.8401 180.21C86.4501 180.9 87.0901 181.56 87.6701 182.27C89.4401 184.46 89.3101 187.09 87.3601 188.78C86.8989 189.179 86.3617 189.481 85.7807 189.667C85.1998 189.853 84.5873 189.919 83.9799 189.862C83.3726 189.805 82.7831 189.626 82.247 189.335C81.7108 189.044 81.2391 188.648 80.8601 188.17C77.2401 184.17 73.6701 180.11 70.0901 176.08C69.6235 175.56 69.1635 175.03 68.7101 174.49C66.2101 171.56 66.1901 168.49 68.7101 165.62C72.7101 161.08 76.7101 156.563 80.7101 152.07C82.6401 149.91 85.3601 149.67 87.3101 151.4C89.2601 153.13 89.3701 155.85 87.4501 158.04C84.0601 162 80.5301 165.94 76.8401 170.07Z" fill="url(#paint2_linear_133_1447)"/>
<path d="M118.46 151.9C117.81 154.65 117.07 157.85 116.31 161.05C114.123 170.217 111.923 179.39 109.71 188.57C109.517 189.57 109.155 190.531 108.64 191.41C108.058 192.267 107.195 192.893 106.2 193.181C105.205 193.468 104.141 193.399 103.191 192.985C102.242 192.571 101.468 191.838 101.002 190.913C100.536 189.988 100.408 188.929 100.64 187.92C101.56 183.65 102.59 179.41 103.64 175.16C105.54 167.16 107.46 159.23 109.35 151.26C110.16 147.84 112.54 146.19 115.35 147.13C116.326 147.465 117.161 148.116 117.725 148.98C118.288 149.844 118.547 150.872 118.46 151.9Z" fill="url(#paint3_linear_133_1447)"/>
<path d="M109 218.68C110.194 218.68 111.338 219.154 112.182 219.998C113.026 220.842 113.5 221.987 113.5 223.18C113.5 224.374 113.026 225.518 112.182 226.362C111.338 227.206 110.194 227.68 109 227.68C107.805 227.675 106.66 227.202 105.81 226.363C104.959 225.524 104.471 224.385 104.45 223.19C104.448 222.594 104.564 222.003 104.792 221.452C105.02 220.901 105.356 220.401 105.779 219.981C106.203 219.561 106.706 219.23 107.259 219.006C107.812 218.783 108.404 218.672 109 218.68Z" fill="url(#paint4_linear_133_1447)"/>
<path d="M195.39 102.53C188.86 102.53 182.33 102.6 175.8 102.53C167.17 102.42 160.54 96.09 160.3 87.87C160.224 85.8628 160.551 83.8607 161.263 81.9825C161.975 80.1043 163.057 78.3882 164.445 76.936C165.833 75.4839 167.498 74.3253 169.342 73.5289C171.186 72.7325 173.171 72.3147 175.18 72.3C188.667 72.12 202.16 72.12 215.66 72.3C219.662 72.3252 223.49 73.9392 226.302 76.787C229.114 79.6347 230.68 83.4829 230.655 87.485C230.63 91.4872 229.016 95.3153 226.168 98.1275C223.32 100.94 219.472 102.505 215.47 102.48C208.78 102.61 202.08 102.48 195.39 102.48V102.53ZM195.39 81.29C189.13 81.29 182.87 81.29 176.61 81.29C175.857 81.266 175.104 81.3129 174.36 81.43C173.308 81.6208 172.325 82.0865 171.511 82.78C170.697 83.4734 170.081 84.3699 169.725 85.3784C169.37 86.3869 169.288 87.4714 169.487 88.522C169.686 89.5726 170.16 90.5517 170.86 91.36C171.529 92.1054 172.36 92.6876 173.289 93.062C174.218 93.4365 175.221 93.5931 176.22 93.52H214.74C217.57 93.52 219.83 92.47 220.99 89.78C222.78 85.63 219.84 81.36 215.13 81.32C208.52 81.24 201.94 81.29 195.36 81.29H195.39Z" fill="url(#paint5_linear_133_1447)"/>
<path d="M137.49 87.3401C137.498 90.3288 136.62 93.2528 134.967 95.7428C133.314 98.2327 130.96 100.177 128.202 101.33C125.445 102.483 122.407 102.792 119.474 102.22C116.541 101.648 113.843 100.219 111.721 98.1136C109.599 96.0086 108.149 93.3221 107.553 90.3933C106.958 87.4645 107.243 84.4249 108.374 81.6584C109.505 78.8919 111.431 76.5226 113.908 74.8499C116.384 73.1771 119.301 72.2759 122.29 72.2601C126.304 72.2494 130.158 73.831 133.007 76.6579C135.857 79.4848 137.469 83.3263 137.49 87.3401ZM116.3 87.3401C116.31 88.9529 116.955 90.4969 118.095 91.6383C119.234 92.7798 120.777 93.427 122.39 93.4401C123.211 93.4733 124.031 93.3403 124.799 93.049C125.568 92.7577 126.269 92.3141 126.862 91.7449C127.455 91.1756 127.926 90.4924 128.249 89.7364C128.571 88.9803 128.737 88.1669 128.737 87.3451C128.737 86.5232 128.571 85.7098 128.249 84.9538C127.926 84.1977 127.455 83.5145 126.862 82.9453C126.269 82.376 125.568 81.9324 124.799 81.6411C124.031 81.3498 123.211 81.2168 122.39 81.2501C120.769 81.258 119.217 81.909 118.075 83.0602C116.933 84.2114 116.295 85.7687 116.3 87.3901V87.3401Z" fill="url(#paint6_linear_133_1447)"/>
<path d="M68.1102 87.4599C68.0905 84.4735 68.9568 81.5483 70.5995 79.0543C72.2423 76.5602 74.5877 74.6093 77.3392 73.4482C80.0908 72.2871 83.1248 71.968 86.0577 72.5312C88.9905 73.0945 91.6905 74.5148 93.8162 76.6125C95.9419 78.7102 97.3978 81.3911 97.9999 84.3163C98.6019 87.2415 98.323 90.2795 97.1985 93.0461C96.0739 95.8128 94.1542 98.1838 91.6821 99.8595C89.21 101.535 86.2966 102.44 83.3102 102.46C79.3109 102.468 75.4703 100.897 72.6237 98.0876C69.7771 95.2785 68.155 91.4589 68.1102 87.4599ZM89.2702 87.4599C89.2774 86.6615 89.1273 85.8694 88.8284 85.129C88.5295 84.3886 88.0878 83.7143 87.5283 83.1446C86.9688 82.5749 86.3026 82.121 85.5677 81.8088C84.8328 81.4966 84.0436 81.3321 83.2452 81.3249C82.4468 81.3177 81.6547 81.4678 80.9143 81.7667C80.1739 82.0656 79.4996 82.5074 78.9299 83.0668C78.3602 83.6263 77.9063 84.2925 77.594 85.0274C77.2818 85.7623 77.1174 86.5515 77.1102 87.3499C77.103 88.1484 77.2531 88.9404 77.552 89.6808C77.8508 90.4212 78.2926 91.0956 78.8521 91.6652C79.4116 92.2349 80.0778 92.6888 80.8127 93.0011C81.5476 93.3133 82.3368 93.4777 83.1352 93.4849C83.9336 93.4921 84.7257 93.342 85.4661 93.0432C86.2065 92.7443 86.8808 92.3025 87.4505 91.743C88.0202 91.1836 88.4741 90.5174 88.7863 89.7825C89.0986 89.0476 89.263 88.2584 89.2702 87.4599Z" fill="url(#paint7_linear_133_1447)"/>
<path d="M185.11 213.51C185.102 208.064 186.71 202.738 189.729 198.205C192.749 193.673 197.045 190.138 202.075 188.048C207.104 185.958 212.64 185.406 217.982 186.463C223.325 187.52 228.234 190.138 232.089 193.986C235.943 197.833 238.57 202.738 239.637 208.078C240.703 213.419 240.162 218.956 238.081 223.989C236 229.022 232.473 233.325 227.946 236.353C223.419 239.381 218.096 240.998 212.65 241C205.354 241 198.357 238.105 193.194 232.951C188.031 227.797 185.123 220.805 185.11 213.51ZM194.11 213.51C194.108 217.171 195.191 220.75 197.222 223.796C199.253 226.841 202.141 229.216 205.522 230.621C208.902 232.027 212.623 232.398 216.215 231.69C219.806 230.981 223.107 229.224 225.701 226.64C228.294 224.056 230.064 220.762 230.786 217.173C231.508 213.584 231.15 209.862 229.758 206.476C228.366 203.091 226.002 200.194 222.964 198.151C219.926 196.108 216.351 195.012 212.69 195C210.256 194.996 207.846 195.471 205.596 196.399C203.347 197.327 201.302 198.688 199.578 200.406C197.855 202.124 196.487 204.164 195.552 206.411C194.617 208.658 194.134 211.067 194.13 213.5L194.11 213.51Z" fill="url(#paint8_linear_133_1447)"/>
</g>
<defs>
<filter id="filter0_d_133_1447" x="-12.2263" y="-10.043" width="324.453" height="324.453" filterUnits="userSpaceOnUse" color-interpolation-filters="sRGB">
<feFlood flood-opacity="0" result="BackgroundImageFix"/>
<feColorMatrix in="SourceAlpha" type="matrix" values="0 0 0 0 0 0 0 0 0 0 0 0 0 0 0 0 0 0 127 0" result="hardAlpha"/>
<feOffset dy="2.18327"/>
<feGaussianBlur stdDeviation="6.11315"/>
<feComposite in2="hardAlpha" operator="out"/>
<feColorMatrix type="matrix" values="0 0 0 0 0 0 0 0 0 0 0 0 0 0 0 0 0 0 0.3 0"/>
<feBlend mode="normal" in2="BackgroundImageFix" result="effect1_dropShadow_133_1447"/>
<feBlend mode="normal" in="SourceGraphic" in2="effect1_dropShadow_133_1447" result="shape"/>
</filter>
<linearGradient id="paint0_linear_133_1447" x1="79.5596" y1="72.4681" x2="208.5" y2="267.185" gradientUnits="userSpaceOnUse">
<stop stop-color="#FFEDD6"/>
<stop offset="0.173077" stop-color="#FFDCAF"/>
<stop offset="0.826923" stop-color="#FFB85D"/>
</linearGradient>
<linearGradient id="paint1_linear_133_1447" x1="133.763" y1="153.819" x2="158.611" y2="173.792" gradientUnits="userSpaceOnUse">
<stop stop-color="#FFEDD6"/>
<stop offset="0.173077" stop-color="#FFDCAF"/>
<stop offset="0.826923" stop-color="#FFB85D"/>
</linearGradient>
<linearGradient id="paint2_linear_133_1447" x1="70.5139" y1="153.794" x2="95.3537" y2="173.729" gradientUnits="userSpaceOnUse">
<stop stop-color="#FFEDD6"/>
<stop offset="0.173077" stop-color="#FFDCAF"/>
<stop offset="0.826923" stop-color="#FFB85D"/>
</linearGradient>
<linearGradient id="paint3_linear_133_1447" x1="103.523" y1="151.019" x2="128.875" y2="165.114" gradientUnits="userSpaceOnUse">
<stop stop-color="#FFEDD6"/>
<stop offset="0.173077" stop-color="#FFDCAF"/>
<stop offset="0.826923" stop-color="#FFB85D"/>
</linearGradient>
<linearGradient id="paint4_linear_133_1447" x1="105.961" y1="219.483" x2="111.365" y2="227.308" gradientUnits="userSpaceOnUse">
<stop stop-color="#FFEDD6"/>
<stop offset="0.173077" stop-color="#FFDCAF"/>
<stop offset="0.826923" stop-color="#FFB85D"/>
</linearGradient>
<linearGradient id="paint5_linear_133_1447" x1="172.033" y1="74.8784" x2="182.776" y2="110.689" gradientUnits="userSpaceOnUse">
<stop stop-color="#FFEDD6"/>
<stop offset="0.173077" stop-color="#FFDCAF"/>
<stop offset="0.826923" stop-color="#FFB85D"/>
</linearGradient>
<linearGradient id="paint6_linear_133_1447" x1="112.297" y1="74.9595" x2="130.491" y2="101.156" gradientUnits="userSpaceOnUse">
<stop stop-color="#FFEDD6"/>
<stop offset="0.173077" stop-color="#FFDCAF"/>
<stop offset="0.826923" stop-color="#FFB85D"/>
</linearGradient>
<linearGradient id="paint7_linear_133_1447" x1="73.15" y1="74.9561" x2="91.3199" y2="101.118" gradientUnits="userSpaceOnUse">
<stop stop-color="#FFEDD6"/>
<stop offset="0.173077" stop-color="#FFDCAF"/>
<stop offset="0.826923" stop-color="#FFB85D"/>
</linearGradient>
<linearGradient id="paint8_linear_133_1447" x1="194.299" y1="190.855" x2="227.426" y2="238.553" gradientUnits="userSpaceOnUse">
<stop stop-color="#FFEDD6"/>
<stop offset="0.173077" stop-color="#FFDCAF"/>
<stop offset="0.826923" stop-color="#FFB85D"/>
</linearGradient>
</defs>
</svg>
