<svg width="300" height="300" viewBox="0 0 300 300" fill="none" xmlns="http://www.w3.org/2000/svg">
<g filter="url(#filter0_d_133_1471)">
<path d="M214.23 96.54L203.77 102.54C199.43 105.02 195.11 107.54 190.77 109.94C190.266 110.152 189.843 110.52 189.563 110.99C189.282 111.459 189.159 112.006 189.21 112.55C189.28 121.15 189.21 129.74 189.27 138.34C189.35 139.826 189.02 141.306 188.314 142.617C187.608 143.928 186.555 145.019 185.27 145.77C175.13 152.32 165.05 158.97 154.9 165.5C148.41 169.69 141.8 169.74 135.28 165.5C125.01 158.86 114.77 152.15 104.5 145.5C103.34 144.806 102.389 143.812 101.748 142.622C101.107 141.432 100.8 140.09 100.86 138.74C100.86 129.97 100.86 121.21 100.86 112.45C100.928 111.95 100.832 111.44 100.587 110.999C100.342 110.557 99.9608 110.207 99.5001 110C89.7334 104.46 79.9801 98.8966 70.2401 93.31C66.4701 91.15 66.4101 87.48 70.1701 85.31C92.2367 72.6766 114.317 60.0633 136.41 47.47C138.31 46.39 140.26 45.38 142.1 44.2C142.951 43.6018 143.965 43.2808 145.005 43.2808C146.045 43.2808 147.059 43.6018 147.91 44.2C156.61 49.2 165.36 54.2 174.08 59.2C189.08 67.77 204.08 76.39 219.08 84.9C221.5 86.27 222.67 87.9 222.59 90.8C222.42 96.69 222.59 102.59 222.52 108.49C222.465 108.894 222.555 109.304 222.775 109.646C222.995 109.989 223.33 110.242 223.72 110.36C229.55 112.94 232.51 117.51 232.54 123.86C232.54 134.99 232.54 146.11 232.54 157.23C232.54 160.65 231.02 162.18 227.6 162.23H209.12C205.79 162.23 204.25 160.68 204.24 157.38C204.24 146.14 204.18 134.91 204.24 123.67C204.29 117.45 207.24 113 212.95 110.44C213.37 110.319 213.733 110.049 213.97 109.682C214.207 109.314 214.303 108.873 214.24 108.44C214.19 104.55 214.23 100.7 214.23 96.54ZM80.1401 89.27C80.4217 89.4958 80.7155 89.7062 81.0201 89.9C102.02 101.9 123.02 113.877 144.02 125.83C144.346 125.981 144.701 126.059 145.06 126.059C145.419 126.059 145.774 125.981 146.1 125.83C164.26 115.517 182.397 105.183 200.51 94.83C200.99 94.56 201.44 94.23 201.9 93.93L201.74 93.58H200.3C186.48 93.58 172.67 93.58 158.85 93.58C158.289 93.5089 157.72 93.6344 157.24 93.9352C156.761 94.236 156.4 94.6935 156.22 95.23C155.016 97.7933 152.969 99.866 150.421 101.102C147.873 102.338 144.978 102.662 142.22 102.02C139.502 101.389 137.073 99.8682 135.319 97.6984C133.565 95.5286 132.587 92.8347 132.54 90.045C132.492 87.2553 133.379 84.53 135.059 82.3022C136.739 80.0744 139.115 78.4721 141.81 77.75C144.509 76.9983 147.382 77.1856 149.961 78.2812C152.539 79.3768 154.668 81.3156 156 83.78C156.188 84.2333 156.518 84.6142 156.939 84.8662C157.36 85.1183 157.851 85.2283 158.34 85.18C172.38 85.14 186.42 85.14 200.46 85.18C200.93 85.18 201.39 85.1 202.37 85.01L200.1 83.68C182.46 73.6 164.8 63.55 147.21 53.39C146.562 52.9468 145.791 52.7173 145.006 52.7335C144.22 52.7496 143.46 53.0106 142.83 53.48C127.843 62.1 112.843 70.68 97.8301 79.22L80.1401 89.27ZM109.31 115.69C109.232 115.961 109.178 116.239 109.15 116.52C109.15 123.52 109.15 130.52 109.15 137.58C109.22 137.938 109.363 138.278 109.569 138.579C109.776 138.88 110.041 139.135 110.35 139.33C119.91 145.62 129.54 151.81 139.09 158.14C143.01 160.74 146.73 160.86 150.67 158.26C160.33 151.89 170.05 145.63 179.67 139.26C179.98 139.021 180.236 138.72 180.42 138.375C180.604 138.03 180.714 137.65 180.74 137.26C180.82 130.52 180.79 123.78 180.79 117.04C180.76 116.59 180.703 116.143 180.62 115.7L179.43 116.34C168.91 122.34 158.387 128.34 147.86 134.34C147 134.914 145.989 135.221 144.955 135.221C143.921 135.221 142.91 134.914 142.05 134.34C133.46 129.34 124.81 124.46 116.18 119.54L109.31 115.69ZM212.68 153.69H224C224.1 153.48 224.18 153.38 224.18 153.28C224.18 143.19 224.25 133.09 224.18 123C224.127 121.575 223.533 120.225 222.518 119.223C221.504 118.222 220.145 117.645 218.72 117.61C215.25 117.4 212.58 120.07 212.57 123.88C212.57 133.42 212.57 142.95 212.57 152.49C212.57 152.89 212.64 153.26 212.68 153.71V153.69ZM149.16 89.77C149.178 88.9499 148.952 88.143 148.511 87.4512C148.07 86.7594 147.434 86.2138 146.684 85.8832C145.933 85.5526 145.101 85.4519 144.293 85.5938C143.485 85.7356 142.737 86.1138 142.144 86.6804C141.551 87.247 141.139 87.9767 140.961 88.7773C140.782 89.5778 140.845 90.4134 141.141 91.1784C141.436 91.9435 141.952 92.6036 142.623 93.0756C143.294 93.5475 144.09 93.81 144.91 93.83C145.457 93.8459 146.001 93.7532 146.511 93.5572C147.022 93.3612 147.488 93.0658 147.883 92.6881C148.279 92.3104 148.595 91.858 148.814 91.357C149.034 90.8561 149.151 90.3167 149.16 89.77Z" fill="url(#paint0_linear_133_1471)"/>
<path d="M81.84 244.22H112C112.847 244.154 113.695 244.342 114.435 244.758C115.176 245.175 115.776 245.802 116.16 246.56C116.515 247.208 116.678 247.944 116.628 248.681C116.578 249.418 116.319 250.126 115.88 250.72C115.421 251.362 114.802 251.873 114.085 252.201C113.367 252.529 112.576 252.663 111.79 252.59C101.96 252.59 92.13 252.59 82.3 252.59C81.756 252.542 81.2088 252.637 80.7125 252.865C80.2162 253.093 79.7879 253.446 79.47 253.89C78.8038 254.772 77.9381 255.484 76.9439 255.967C75.9497 256.45 74.8552 256.691 73.75 256.67C66.17 256.67 58.59 256.76 51 256.67C46.59 256.61 43.25 252.93 43.24 248.32C43.24 233.887 43.24 219.45 43.24 205.01C43.24 199.17 43.24 193.327 43.24 187.48C43.24 181.87 46.66 178.42 52.24 178.41C58.76 178.41 65.24 178.6 71.79 178.35C76.79 178.16 81.25 180.83 81.79 187.21C83.01 186.41 84.13 185.64 85.28 184.91C94.77 178.91 105.21 177.07 116.28 177.91C126.359 178.613 136.086 181.906 144.52 187.47C147.19 189.298 150.376 190.22 153.61 190.1C161.92 189.89 170.25 190.27 178.55 189.96C187.3 189.64 194.94 194.32 197.38 203.9C197.704 203.723 198.015 203.523 198.31 203.3C209.09 194.04 219.863 184.777 230.63 175.51C233.636 172.796 237.577 171.353 241.624 171.485C245.672 171.616 249.511 173.311 252.335 176.214C255.159 179.117 256.748 183.001 256.767 187.051C256.787 191.101 255.236 195 252.44 197.93C243.92 206.72 235.19 215.31 226.52 223.93C220.99 229.44 215.62 235.14 209.78 240.3C201.012 248.081 189.722 252.419 178 252.51C168.8 252.75 159.58 252.58 150.37 252.57C147.69 252.57 145.82 250.78 145.84 248.38C145.86 245.98 147.73 244.24 150.42 244.23C158.853 244.23 167.28 244.23 175.7 244.23C181.645 244.336 187.549 243.215 193.042 240.939C198.536 238.663 203.501 235.28 207.63 231C220.297 218.333 232.963 205.667 245.63 193C247.97 190.66 249.09 188 247.98 184.77C247.574 183.472 246.8 182.32 245.75 181.455C244.7 180.59 243.422 180.05 242.07 179.9C240.983 179.732 239.871 179.815 238.821 180.142C237.77 180.47 236.809 181.034 236.01 181.79C221.397 194.35 206.797 206.917 192.21 219.49C188.831 222.519 184.437 224.164 179.9 224.1C166.25 224.1 152.6 224.1 138.95 224.1H138.27C135.27 224.03 133.43 222.4 133.48 219.84C133.53 217.28 135.32 215.84 138.28 215.84C152.15 215.84 166.03 215.84 179.91 215.84C184.39 215.84 187.8 213.33 188.85 209.34C189.2 208.061 189.249 206.718 188.994 205.416C188.739 204.114 188.187 202.889 187.381 201.836C186.575 200.783 185.536 199.93 184.346 199.345C183.156 198.759 181.846 198.456 180.52 198.46C170.133 198.4 159.74 198.4 149.34 198.46C147.433 198.518 145.553 197.994 143.95 196.96C138.46 193.44 132.9 190.03 126.52 188.31C115.03 185.21 103.68 184.83 92.7 190.31C88.8692 192.217 85.4058 194.787 82.47 197.9C82.0101 198.364 81.721 198.971 81.65 199.62C81.65 214.34 81.65 229.06 81.65 243.78C81.7009 243.932 81.7645 244.079 81.84 244.22ZM73.15 248.34V186.81H51.75V248.34H73.15Z" fill="url(#paint1_linear_133_1471)"/>
<path d="M127.11 248.36C127.124 247.544 127.378 246.751 127.841 246.079C128.305 245.408 128.956 244.888 129.714 244.585C130.471 244.283 131.301 244.211 132.1 244.378C132.898 244.546 133.629 244.946 134.201 245.527C134.773 246.109 135.161 246.847 135.315 247.648C135.469 248.449 135.383 249.278 135.068 250.03C134.752 250.783 134.222 251.425 133.543 251.877C132.863 252.329 132.066 252.57 131.25 252.57C130.144 252.557 129.088 252.107 128.312 251.318C127.537 250.529 127.105 249.466 127.11 248.36Z" fill="url(#paint2_linear_133_1471)"/>
</g>
<defs>
<filter id="filter0_d_133_1471" x="-12.2263" y="-10.043" width="324.453" height="324.453" filterUnits="userSpaceOnUse" color-interpolation-filters="sRGB">
<feFlood flood-opacity="0" result="BackgroundImageFix"/>
<feColorMatrix in="SourceAlpha" type="matrix" values="0 0 0 0 0 0 0 0 0 0 0 0 0 0 0 0 0 0 127 0" result="hardAlpha"/>
<feOffset dy="2.18327"/>
<feGaussianBlur stdDeviation="6.11315"/>
<feComposite in2="hardAlpha" operator="out"/>
<feColorMatrix type="matrix" values="0 0 0 0 0 0 0 0 0 0 0 0 0 0 0 0 0 0 0.3 0"/>
<feBlend mode="normal" in2="BackgroundImageFix" result="effect1_dropShadow_133_1471"/>
<feBlend mode="normal" in="SourceGraphic" in2="effect1_dropShadow_133_1471" result="shape"/>
</filter>
<linearGradient id="paint0_linear_133_1471" x1="94.945" y1="54.4732" x2="161.371" y2="180.46" gradientUnits="userSpaceOnUse">
<stop stop-color="#FFEDD6"/>
<stop offset="0.173077" stop-color="#FFDCAF"/>
<stop offset="0.826923" stop-color="#FFB85D"/>
</linearGradient>
<linearGradient id="paint1_linear_133_1471" x1="78.8762" y1="179.085" x2="107.055" y2="280.727" gradientUnits="userSpaceOnUse">
<stop stop-color="#FFEDD6"/>
<stop offset="0.173077" stop-color="#FFDCAF"/>
<stop offset="0.826923" stop-color="#FFB85D"/>
</linearGradient>
<linearGradient id="paint2_linear_133_1471" x1="128.492" y1="245.029" x2="133.474" y2="252.202" gradientUnits="userSpaceOnUse">
<stop stop-color="#FFEDD6"/>
<stop offset="0.173077" stop-color="#FFDCAF"/>
<stop offset="0.826923" stop-color="#FFB85D"/>
</linearGradient>
</defs>
</svg>
