<svg width="37" height="37" viewBox="0 0 37 37" fill="none" xmlns="http://www.w3.org/2000/svg">
<rect x="0.00012207" width="36.025" height="36.025" rx="3" fill="#FFDD00"/>
<path fill-rule="evenodd" clip-rule="evenodd" d="M17.8168 21.1024C17.251 21.0589 16.6417 20.9719 16.1195 20.8413C16.0324 20.7978 15.6407 20.6672 15.5537 20.6237C13.8129 19.7968 12.5943 18.056 12.5943 15.967C12.5943 13.1382 14.9009 10.8752 17.6862 10.8752C20.4715 10.8752 22.7346 13.1382 22.7781 15.9235H24.6059C24.5624 12.1372 21.4725 9.0473 17.6427 9.0473C13.8129 9.0473 10.6794 12.1808 10.6794 16.0106C10.6794 18.6653 12.1591 20.9719 14.3351 22.1469C14.7268 22.3645 15.2926 22.5821 15.4667 22.6257C16.0759 22.7997 16.8593 22.9303 17.5121 22.9738C17.7297 22.9738 18.5566 23.0173 18.7742 23.0173H32.8748V21.1895H18.9048C18.7307 21.146 17.9908 21.146 17.8168 21.1024ZM18.9048 18.2301C18.7742 18.2301 18.0779 18.2301 17.9473 18.2301C17.7297 18.2301 17.4251 18.1866 17.2075 18.1431C16.9899 18.0995 16.7723 18.0125 16.6417 17.9255C15.9454 17.5338 15.5102 16.8374 15.5102 16.0106C15.5102 14.792 16.5112 13.791 17.7297 13.791C18.9048 13.791 19.9057 14.7485 19.9057 15.9235H21.6901C21.6466 13.7475 19.9057 12.0067 17.7297 12.0067C15.5537 12.0067 13.7694 13.791 13.7694 15.967C13.7694 17.5338 14.6398 18.8394 15.9454 19.4922C16.163 19.6228 16.5112 19.7098 16.6417 19.7533C16.9899 19.8404 17.5121 19.9274 17.9038 19.9274C18.0344 19.9274 18.7742 19.9274 18.9048 19.9274H33.0489V18.1431L18.9048 18.2301ZM9.59141 22.9738H7.72004V10.8752H5.02177V9.00378H9.59141V22.9738ZM2.97632 11.8326V13.6169H5.02177V22.9738H6.80611V11.8326H2.97632Z" fill="#D10A11"/>
<path fill-rule="evenodd" clip-rule="evenodd" d="M28.305 9.17786C27.6522 9.17786 27.0864 9.7001 27.0864 10.3964C27.0864 11.0492 27.6522 11.615 28.305 11.615C29.0013 11.615 29.5236 11.0492 29.5236 10.3964C29.5236 9.7001 29.0013 9.17786 28.305 9.17786ZM28.305 11.3974C27.7392 11.3974 27.2605 10.9622 27.2605 10.3529C27.2605 9.78714 27.7392 9.35194 28.305 9.35194C28.8708 9.35194 29.3495 9.78714 29.3495 10.3529C29.306 10.9622 28.8272 11.3974 28.305 11.3974Z" fill="#D10A11"/>
<path fill-rule="evenodd" clip-rule="evenodd" d="M28.74 10.7011C28.74 10.5706 28.74 10.44 28.566 10.3965C28.74 10.3094 28.7836 10.2224 28.7836 10.1354C28.7836 9.83072 28.5224 9.7872 28.3919 9.7872H27.8696V11.0058H28.0872V10.527H28.2613C28.5224 10.527 28.5224 10.6576 28.5224 10.7446C28.5224 10.9623 28.5224 11.0058 28.566 11.0058H28.7836C28.74 10.9187 28.7836 10.8752 28.74 10.7011ZM28.3484 10.3094H28.0872V9.91776H28.3048C28.4789 9.91776 28.566 9.96128 28.566 10.0918C28.566 10.1789 28.5224 10.3094 28.3484 10.3094Z" fill="#D10A11"/>
<path d="M5.36989 25.1934H5.02173V24.6711H5.93566V26.9342H5.36989V25.1934Z" fill="#D10A11"/>
<path d="M7.9808 26.8037C7.7632 26.9343 7.58912 26.9778 7.37152 26.9778C6.71871 26.9778 6.23999 26.4991 6.23999 25.8027C6.23999 25.0629 6.76223 24.6277 7.37152 24.6277C7.58912 24.6277 7.80672 24.6712 7.9808 24.8018V25.4546C7.85024 25.324 7.67616 25.1935 7.45856 25.1935C7.1104 25.1935 6.8928 25.4546 6.8928 25.8463C6.8928 26.1944 7.1104 26.4555 7.45856 26.4555C7.67616 26.4555 7.85024 26.325 7.9808 26.1944V26.8037Z" fill="#D10A11"/>
<path d="M8.54671 25.2805C8.72079 25.2805 8.85135 25.411 8.85135 25.6286C8.85135 25.8027 8.72079 25.9768 8.54671 25.9768C8.37263 25.9768 8.24207 25.8462 8.24207 25.6286C8.24207 25.4545 8.37263 25.2805 8.54671 25.2805ZM8.54671 26.3249C8.72079 26.3249 8.85135 26.4555 8.85135 26.6731C8.85135 26.8472 8.72079 27.0213 8.54671 27.0213C8.37263 27.0213 8.24207 26.8907 8.24207 26.6731C8.24207 26.4555 8.37263 26.3249 8.54671 26.3249Z" fill="#D10A11"/>
<path d="M10.1567 26.586C9.76499 26.586 9.11218 26.4554 9.11218 25.6721C9.11218 24.8887 9.76499 24.7581 10.1567 24.7581V24.497H10.766V24.8017C11.1576 24.8017 11.8104 24.9322 11.8104 25.7156C11.8104 26.4989 11.1576 26.6295 10.766 26.6295V26.9341H10.1567V26.586ZM10.2002 25.2369C10.0261 25.2369 9.72147 25.2804 9.72147 25.6721C9.72147 26.0637 10.0261 26.1073 10.2002 26.1073V25.2369ZM10.7224 26.1508C10.8965 26.1508 11.2012 26.1073 11.2012 25.7156C11.2012 25.3239 10.8965 25.2804 10.7224 25.2804V26.1508Z" fill="#D10A11"/>
<path d="M12.0287 24.6711H12.9426C13.5954 24.6711 13.7695 25.1063 13.7695 25.411C13.7695 25.7156 13.5954 26.1508 12.9426 26.1508H12.638V26.8907H12.0287V24.6711ZM12.638 25.6721H12.8121C13.0732 25.6721 13.1167 25.498 13.1167 25.411C13.1167 25.2804 13.0732 25.1499 12.8121 25.1499H12.638V25.6721Z" fill="#D10A11"/>
<path d="M14.3785 24.6711H15.1183L15.9017 26.9342H15.2489L15.1183 26.5425H14.3785L14.2479 26.9342H13.5951L14.3785 24.6711ZM14.509 26.0203H14.9877L14.7266 25.1934L14.509 26.0203Z" fill="#D10A11"/>
<path d="M16.0756 24.6711H16.6848V25.498H17.4247V24.6711H18.034V26.9342H17.4247V26.0203H16.6848V26.9342H16.0756V24.6711Z" fill="#D10A11"/>
<path d="M19.5139 26.0203C19.2963 26.0638 19.2527 26.0638 19.0787 26.0638C18.3388 26.0638 18.2953 25.6721 18.2953 25.3239V24.6711H18.9046V25.2369C18.9046 25.411 18.9046 25.5851 19.2527 25.5851C19.2963 25.5851 19.3833 25.5851 19.4703 25.5415V24.6711H20.0796V26.9342H19.4703V26.0203H19.5139Z" fill="#D10A11"/>
<path d="M21.0801 24.6711H21.82L22.6033 26.9342H21.9505L21.82 26.5425H21.0801L20.9496 26.9342H20.2968L21.0801 24.6711ZM21.2107 26.0203H21.7329L21.4718 25.1934L21.2107 26.0203Z" fill="#D10A11"/>
<path d="M23.3441 24.6712V26.0203L24.2146 24.6712H24.8238V26.9342H24.2146V25.5851L23.3441 26.9342H22.7349V24.6712H23.3441ZM24.4322 24.1924C24.3016 24.4536 24.0405 24.5406 23.7793 24.5406C23.5182 24.5406 23.2136 24.4536 23.1265 24.1924L23.4747 24.0619C23.5182 24.236 23.6923 24.236 23.7793 24.236C23.9099 24.236 24.0405 24.1925 24.084 24.0619L24.4322 24.1924Z" fill="#D10A11"/>
<path d="M25.0841 24.8017C25.1712 24.7582 25.4758 24.5841 25.824 24.5841C26.3027 24.5841 26.6944 24.8452 26.6944 25.2369C26.6944 25.4545 26.5638 25.6721 26.3462 25.7592C26.5203 25.8027 26.7379 25.9332 26.7379 26.2814C26.7379 26.7166 26.3462 26.9777 25.8675 26.9777C25.5628 26.9777 25.3452 26.9342 24.9971 26.6296L25.2582 26.1944C25.4323 26.3249 25.6499 26.4555 25.7804 26.4555C26.0416 26.4555 26.1286 26.2814 26.1286 26.1944C26.1286 26.0638 26.0416 25.9768 25.7804 25.9768H25.4323V25.5416H25.7804C26.0416 25.5416 26.1286 25.411 26.1286 25.324C26.1286 25.1934 25.998 25.1063 25.824 25.1063C25.6499 25.1063 25.5193 25.1499 25.3888 25.2804L25.0841 24.8017Z" fill="#D10A11"/>
<path d="M27.5649 24.6711V26.0203L28.4353 24.6711H29.0445V26.9342H28.4353V25.5851L27.5649 26.9342H26.9556V24.6711H27.5649Z" fill="#D10A11"/>
<path d="M29.3057 24.6711H29.9149V25.498H30.6548V24.6711H31.2641V26.9342H30.6548V26.0203H29.9149V26.9342H29.3057V24.6711Z" fill="#D10A11"/>
<path d="M31.6123 24.6711H32.9614V25.1934H32.2651V26.8907H31.6558V24.6711H31.6123Z" fill="#D10A11"/>
</svg>
