<svg width="300" height="300" viewBox="0 0 300 300" fill="none" xmlns="http://www.w3.org/2000/svg">
<path d="M212.88 42.0701C215.77 42.0701 218.66 42.1501 221.55 42.0701C222.442 41.985 223.339 42.1788 224.116 42.6248C224.893 43.0708 225.513 43.747 225.89 44.5601C228.34 48.9501 230.89 53.2601 233.38 57.6401C233.56 58.0422 233.861 58.378 234.241 58.6004C234.621 58.8227 235.061 58.9206 235.5 58.8801C240.13 58.8201 244.76 58.8801 249.39 58.8801C250.196 58.8469 250.987 59.1012 251.623 59.5976C252.259 60.094 252.697 60.8002 252.86 61.5901C253.001 62.2807 252.911 62.9985 252.604 63.6329C252.297 64.2673 251.789 64.7829 251.16 65.1001C250.384 65.4217 249.55 65.5816 248.71 65.5701C244.28 65.5701 239.85 65.5701 235.42 65.5701C234.98 65.529 234.538 65.6265 234.156 65.8488C233.774 66.0711 233.471 66.4072 233.29 66.8101C230.84 71.1401 228.29 75.4101 225.86 79.7501C225.49 80.5382 224.889 81.1953 224.137 81.6345C223.386 82.0738 222.518 82.2745 221.65 82.2101C216.03 82.1301 210.403 82.1301 204.77 82.2101C203.861 82.259 202.995 82.6111 202.31 83.2101C199.83 85.5201 197.51 88.0001 195.07 90.3401C194.893 90.4636 194.744 90.6232 194.633 90.8084C194.522 90.9935 194.451 91.2001 194.426 91.4145C194.4 91.629 194.42 91.8463 194.485 92.0524C194.549 92.2585 194.657 92.4485 194.8 92.6101C206.57 112.93 218.27 133.29 230.09 153.61C230.781 154.592 231.152 155.764 231.152 156.965C231.152 158.166 230.781 159.338 230.09 160.32C218.27 180.6 206.57 200.96 194.8 221.32C194.661 221.486 194.558 221.679 194.498 221.886C194.437 222.094 194.42 222.312 194.449 222.526C194.477 222.74 194.549 222.947 194.661 223.132C194.774 223.316 194.923 223.476 195.1 223.6C199.64 228.07 204.1 232.6 208.63 237.09C208.91 237.37 209.2 237.65 209.47 237.95C209.794 238.261 210.051 238.633 210.228 239.046C210.404 239.458 210.496 239.902 210.497 240.35C210.499 240.799 210.409 241.243 210.235 241.656C210.061 242.07 209.806 242.444 209.484 242.756C209.162 243.069 208.78 243.313 208.362 243.475C207.944 243.637 207.497 243.713 207.049 243.698C206.6 243.684 206.16 243.579 205.753 243.39C205.346 243.201 204.981 242.933 204.68 242.6C202.37 240.34 200.11 238.03 197.82 235.74C195.04 232.96 192.29 230.15 189.44 227.44C188.837 226.887 188.058 226.565 187.24 226.53C163.54 226.477 139.837 226.477 116.13 226.53C115.315 226.577 114.543 226.91 113.95 227.47C109.01 232.317 104.117 237.21 99.27 242.15C98.8093 242.672 98.236 243.083 97.5933 243.352C96.9506 243.62 96.2554 243.739 95.56 243.7C94.17 243.63 92.77 243.7 91.38 243.7C90.9308 243.713 90.4834 243.637 90.0642 243.475C89.6451 243.313 89.2626 243.068 88.9393 242.756C88.6159 242.444 88.3583 242.07 88.1815 241.657C88.0048 241.244 87.9124 240.8 87.91 240.35C87.8758 239.903 87.9384 239.454 88.0934 239.034C88.2484 238.613 88.4921 238.231 88.8081 237.913C89.1241 237.595 89.5049 237.349 89.9246 237.191C90.3442 237.034 90.7929 236.969 91.24 237C94.24 237.36 96.1 235.89 97.99 233.88C101.39 230.24 104.99 226.77 108.5 223.28C108.648 223.178 108.773 223.047 108.867 222.894C108.962 222.741 109.023 222.57 109.048 222.393C109.072 222.215 109.059 222.034 109.01 221.861C108.96 221.688 108.875 221.528 108.76 221.39C96.8733 200.857 84.9866 180.32 73.1 159.78C72.5235 158.921 72.2198 157.907 72.2287 156.872C72.2376 155.838 72.5587 154.829 73.15 153.98C85.05 133.51 96.85 112.98 108.73 92.4901C108.858 92.3328 108.951 92.1503 109.003 91.9546C109.056 91.7588 109.066 91.5542 109.034 91.3541C109.002 91.154 108.928 90.9629 108.817 90.7933C108.706 90.6238 108.561 90.4796 108.39 90.3701C100.797 82.8368 93.2033 75.2868 85.61 67.7201C85.1004 67.2471 84.6595 66.7052 84.3 66.1101C83.9587 65.4939 83.8353 64.7807 83.9496 64.0857C84.0639 63.3907 84.4093 62.7545 84.93 62.2801C85.4266 61.7856 86.0698 61.4648 86.7636 61.3657C87.4575 61.2666 88.1647 61.3944 88.78 61.7301C89.3644 62.0892 89.9047 62.5154 90.39 63.0001C98.2033 70.7535 106.007 78.5135 113.8 86.2801C114.131 86.6429 114.536 86.9299 114.989 87.1215C115.441 87.313 115.929 87.4047 116.42 87.3901C139.97 87.3901 163.53 87.3901 187.08 87.3201C187.991 87.2831 188.861 86.9295 189.54 86.3201C192.25 83.7601 194.83 81.0501 197.54 78.4501C197.72 78.3301 197.873 78.1739 197.988 77.9914C198.104 77.8089 198.181 77.6042 198.213 77.3904C198.245 77.1766 198.232 76.9585 198.174 76.7501C198.117 76.5417 198.017 76.3475 197.88 76.1801C195.53 72.2501 193.31 68.2401 190.99 64.3001C190.559 63.6697 190.321 62.9272 190.305 62.1635C190.289 61.3998 190.495 60.6481 190.9 60.0001C193.947 54.7601 196.98 49.5034 200 44.2301C200.344 43.5377 200.886 42.9634 201.557 42.5805C202.229 42.1976 202.999 42.0234 203.77 42.0801C206.81 42.1201 209.85 42.0701 212.88 42.0701ZM151.68 219.65C163.18 219.65 174.68 219.65 186.18 219.65C186.734 219.714 187.295 219.602 187.781 219.329C188.268 219.056 188.656 218.637 188.89 218.13C200.45 198.037 212.017 177.95 223.59 157.87C223.738 157.557 223.814 157.216 223.814 156.87C223.814 156.524 223.738 156.183 223.59 155.87C211.997 135.683 200.377 115.513 188.73 95.3601C188.542 94.9415 188.228 94.5921 187.832 94.3608C187.436 94.1294 186.977 94.0278 186.52 94.0701C163.307 94.0701 140.103 94.0701 116.91 94.0701C116.475 94.0204 116.035 94.1073 115.652 94.3188C115.268 94.5302 114.96 94.8557 114.77 95.2501C103.19 115.383 91.5766 135.5 79.93 155.6C79.6767 155.955 79.5405 156.379 79.5405 156.815C79.5405 157.251 79.6767 157.676 79.93 158.03C91.55 178.09 103.14 198.163 114.7 218.25C114.9 218.691 115.234 219.059 115.653 219.301C116.073 219.543 116.558 219.648 117.04 219.6C128.57 219.63 140.13 219.65 151.68 219.65ZM212.84 48.7401C210.84 48.7401 208.76 48.8101 206.72 48.7401C206.242 48.666 205.753 48.7487 205.325 48.9758C204.898 49.203 204.556 49.5623 204.35 50.0001C202.303 53.6868 200.197 57.3534 198.03 61.0001C197.801 61.3157 197.678 61.6954 197.678 62.0851C197.678 62.4748 197.801 62.8545 198.03 63.1701C200.2 66.8501 202.32 70.5701 204.44 74.2801C204.608 74.6623 204.89 74.9826 205.249 75.196C205.608 75.4094 206.024 75.5052 206.44 75.4701C210.72 75.4001 215 75.4701 219.28 75.4701C219.661 75.5203 220.049 75.451 220.389 75.272C220.729 75.0929 221.005 74.8127 221.18 74.4701C223.3 70.6968 225.463 66.9535 227.67 63.2401C227.896 62.9218 228.018 62.5408 228.018 62.1501C228.018 61.7594 227.896 61.3784 227.67 61.0601C225.47 57.3401 223.31 53.5968 221.19 49.8301C221.028 49.4734 220.757 49.1779 220.415 48.9871C220.073 48.7963 219.678 48.7202 219.29 48.7701C217.12 48.7801 215 48.7401 212.84 48.7401Z" fill="url(#paint0_linear_133_1475)"/>
<path d="M65.2401 52.9999C60.5701 52.9999 55.8901 52.9999 51.2401 52.9999C50.5643 53.0496 49.8891 52.8962 49.3012 52.5595C48.7132 52.2227 48.2392 51.7179 47.9401 51.1099C47.6151 50.5986 47.4675 49.9945 47.5199 49.3909C47.5723 48.7872 47.8219 48.2176 48.2301 47.7699C48.9593 46.9894 49.9399 46.4902 51.0001 46.3599C60.5101 46.2599 70.0001 46.2799 79.5201 46.3599C79.9704 46.3437 80.4193 46.4188 80.8398 46.5807C81.2604 46.7425 81.6438 46.9878 81.967 47.3017C82.2903 47.6156 82.5467 47.9917 82.7208 48.4072C82.8949 48.8228 82.9831 49.2694 82.9801 49.7199C82.9647 50.1692 82.8604 50.6108 82.6731 51.0195C82.4859 51.4281 82.2196 51.7956 81.8894 52.1006C81.5593 52.4056 81.172 52.6422 80.7498 52.7965C80.3277 52.9509 79.8791 53.02 79.4301 52.9999C74.7001 53.0499 70.0001 52.9999 65.2401 52.9999Z" fill="url(#paint1_linear_133_1475)"/>
<path d="M236.66 222.11H250.4C252.7 222.11 254.21 223.4 254.25 225.36C254.29 227.32 252.75 228.76 250.4 228.76C241.067 228.76 231.76 228.76 222.48 228.76C221.647 228.828 220.818 228.582 220.157 228.072C219.495 227.562 219.047 226.823 218.9 226C218.766 225.285 218.875 224.546 219.21 223.9C219.546 223.255 220.088 222.741 220.75 222.44C221.389 222.2 222.068 222.085 222.75 222.1C227.41 222.1 232 222.11 236.66 222.11Z" fill="url(#paint2_linear_133_1475)"/>
<path d="M63.42 243.59C58.69 243.59 53.9701 243.59 49.2401 243.59C48.488 243.618 47.7481 243.394 47.1376 242.954C46.5271 242.514 46.0811 241.883 45.87 241.16C45.6672 240.46 45.7047 239.712 45.9766 239.036C46.2485 238.36 46.7391 237.795 47.37 237.43C47.989 237.112 48.6741 236.944 49.37 236.94C58.77 236.94 68.1734 236.94 77.5801 236.94C78.0419 236.908 78.5053 236.973 78.9409 237.129C79.3765 237.286 79.7748 237.531 80.1104 237.85C80.4461 238.169 80.7119 238.554 80.8909 238.981C81.0698 239.408 81.1581 239.867 81.1501 240.33C81.1354 240.792 81.0269 241.246 80.831 241.664C80.635 242.083 80.3559 242.457 80.0106 242.764C79.6653 243.071 79.261 243.304 78.8225 243.45C78.384 243.595 77.9204 243.65 77.46 243.61C72.77 243.61 68.1 243.59 63.42 243.59Z" fill="url(#paint3_linear_133_1475)"/>
<path d="M236 251.23H249.3C249.95 251.192 250.597 251.342 251.164 251.661C251.731 251.98 252.195 252.455 252.5 253.03C252.843 253.532 253.009 254.134 252.971 254.741C252.933 255.348 252.693 255.925 252.29 256.38C251.534 257.198 250.515 257.726 249.41 257.87C240.41 257.98 231.41 257.95 222.41 257.92C221.95 257.956 221.487 257.896 221.051 257.744C220.615 257.592 220.215 257.352 219.876 257.038C219.537 256.725 219.267 256.345 219.082 255.921C218.897 255.498 218.801 255.042 218.801 254.58C218.801 254.118 218.897 253.661 219.082 253.238C219.267 252.815 219.537 252.435 219.876 252.121C220.215 251.808 220.615 251.568 221.051 251.416C221.487 251.264 221.95 251.204 222.41 251.24C227 251.21 231.48 251.23 236 251.23Z" fill="url(#paint4_linear_133_1475)"/>
<path d="M56.23 257.53C54 257.53 51.76 257.53 49.52 257.53C47.28 257.53 45.77 256.16 45.77 254.16C45.77 252.16 47.2 250.82 49.51 250.8C54.04 250.8 58.56 250.8 63.09 250.8C65.29 250.8 66.74 252.15 66.78 254.07C66.82 255.99 65.34 257.48 63.1 257.52C60.86 257.56 58.52 257.53 56.23 257.53Z" fill="url(#paint5_linear_133_1475)"/>
<path d="M58.1799 60.18C60.4199 60.18 62.66 60.18 64.8899 60.18C67.1199 60.18 68.5299 61.54 68.5599 63.47C68.5899 65.4 67.15 66.86 64.87 66.87C60.2966 66.91 55.7233 66.91 51.15 66.87C50.6888 66.9075 50.2249 66.8486 49.7878 66.6968C49.3507 66.5451 48.95 66.3039 48.6113 65.9888C48.2726 65.6736 48.0033 65.2913 47.8205 64.8662C47.6378 64.4411 47.5456 63.9827 47.5499 63.52C47.5513 63.0577 47.6481 62.6006 47.8342 62.1774C48.0203 61.7542 48.2917 61.374 48.6315 61.0605C48.9713 60.747 49.3721 60.507 49.8089 60.3555C50.2457 60.204 50.709 60.1442 51.1699 60.18C53.5099 60.16 55.8399 60.18 58.1799 60.18Z" fill="url(#paint6_linear_133_1475)"/>
<path d="M229.39 242.7C227.16 242.7 224.92 242.7 222.68 242.7C220.44 242.7 218.88 241.37 218.84 239.41C218.8 237.45 220.33 236.04 222.57 236.03C227.14 236.03 231.71 236.03 236.29 236.03C236.75 235.986 237.215 236.04 237.652 236.189C238.09 236.338 238.491 236.579 238.829 236.895C239.166 237.21 239.433 237.595 239.611 238.021C239.789 238.448 239.874 238.908 239.86 239.37C239.86 239.831 239.765 240.288 239.58 240.711C239.395 241.133 239.124 241.513 238.785 241.826C238.446 242.139 238.045 242.378 237.609 242.529C237.173 242.679 236.71 242.737 236.25 242.7C234 242.72 231.68 242.7 229.39 242.7Z" fill="url(#paint7_linear_133_1475)"/>
<path d="M171.32 117.37C178.78 117.7 185.22 121.95 188.74 129.97C192.11 137.67 191.04 145.28 185.19 151.34C172.75 164.22 160.083 176.887 147.19 189.34C139.02 197.24 126.55 196.59 118.79 188.45C116.909 186.569 115.422 184.333 114.414 181.871C113.406 179.409 112.897 176.772 112.919 174.112C112.94 171.452 113.491 168.823 114.538 166.378C115.586 163.933 117.109 161.721 119.02 159.87C131.02 147.757 143.087 135.68 155.22 123.64C159.29 119.58 164.12 117.37 171.32 117.37ZM139.61 148.87C139.431 148.991 139.26 149.125 139.1 149.27C133.887 154.47 128.68 159.68 123.48 164.9C121.513 166.842 120.234 169.374 119.84 172.11C119.397 175.038 119.9 178.031 121.276 180.654C122.652 183.276 124.829 185.391 127.49 186.69C130.06 188 132.983 188.445 135.826 187.96C138.669 187.476 141.279 186.087 143.27 184C148.27 179.07 153.21 174.09 158.17 169.13C158.47 168.82 158.73 168.48 158.93 168.24L139.61 148.87ZM144.61 143.66L163.98 163.12C164.092 163.085 164.197 163.031 164.29 162.96C169.74 157.5 175.38 152.22 180.58 146.53C185.49 141.16 184.76 133.07 179.41 127.97C176.961 125.501 173.645 124.087 170.168 124.029C166.691 123.971 163.33 125.274 160.8 127.66C159.05 129.29 157.39 131.01 155.69 132.66L144.61 143.66Z" fill="url(#paint8_linear_133_1475)"/>
<defs>
<linearGradient id="paint0_linear_133_1475" x1="102.386" y1="60.052" x2="227.774" y2="221.826" gradientUnits="userSpaceOnUse">
<stop stop-color="#FFEDD6"/>
<stop offset="0.173077" stop-color="#FFDCAF"/>
<stop offset="0.826923" stop-color="#FFB85D"/>
</linearGradient>
<linearGradient id="paint1_linear_133_1475" x1="53.4293" y1="46.893" x2="54.5487" y2="55.3878" gradientUnits="userSpaceOnUse">
<stop stop-color="#FFEDD6"/>
<stop offset="0.173077" stop-color="#FFDCAF"/>
<stop offset="0.826923" stop-color="#FFB85D"/>
</linearGradient>
<linearGradient id="paint2_linear_133_1475" x1="224.753" y1="222.694" x2="225.856" y2="231.118" gradientUnits="userSpaceOnUse">
<stop stop-color="#FFEDD6"/>
<stop offset="0.173077" stop-color="#FFDCAF"/>
<stop offset="0.826923" stop-color="#FFB85D"/>
</linearGradient>
<linearGradient id="paint3_linear_133_1475" x1="51.6508" y1="237.529" x2="52.7592" y2="245.976" gradientUnits="userSpaceOnUse">
<stop stop-color="#FFEDD6"/>
<stop offset="0.173077" stop-color="#FFDCAF"/>
<stop offset="0.826923" stop-color="#FFB85D"/>
</linearGradient>
<linearGradient id="paint4_linear_133_1475" x1="224.505" y1="251.824" x2="225.663" y2="260.3" gradientUnits="userSpaceOnUse">
<stop stop-color="#FFEDD6"/>
<stop offset="0.173077" stop-color="#FFDCAF"/>
<stop offset="0.826923" stop-color="#FFB85D"/>
</linearGradient>
<linearGradient id="paint5_linear_133_1475" x1="49.2766" y1="251.402" x2="51.1141" y2="259.649" gradientUnits="userSpaceOnUse">
<stop stop-color="#FFEDD6"/>
<stop offset="0.173077" stop-color="#FFDCAF"/>
<stop offset="0.826923" stop-color="#FFB85D"/>
</linearGradient>
<linearGradient id="paint6_linear_133_1475" x1="51.0563" y1="60.7707" x2="52.8883" y2="69.0057" gradientUnits="userSpaceOnUse">
<stop stop-color="#FFEDD6"/>
<stop offset="0.173077" stop-color="#FFDCAF"/>
<stop offset="0.826923" stop-color="#FFB85D"/>
</linearGradient>
<linearGradient id="paint7_linear_133_1475" x1="222.348" y1="236.613" x2="224.161" y2="244.81" gradientUnits="userSpaceOnUse">
<stop stop-color="#FFEDD6"/>
<stop offset="0.173077" stop-color="#FFDCAF"/>
<stop offset="0.826923" stop-color="#FFB85D"/>
</linearGradient>
<linearGradient id="paint8_linear_133_1475" x1="125.889" y1="124.293" x2="172.515" y2="191.573" gradientUnits="userSpaceOnUse">
<stop stop-color="#FFEDD6"/>
<stop offset="0.173077" stop-color="#FFDCAF"/>
<stop offset="0.826923" stop-color="#FFB85D"/>
</linearGradient>
</defs>
</svg>
