<svg width="300" height="300" viewBox="0 0 300 300" fill="none" xmlns="http://www.w3.org/2000/svg">
<g filter="url(#filter0_d_133_1485)">
<path d="M149.93 264.26C145.58 264.26 141.23 264.26 136.88 264.26C129.88 264.21 124.58 259.2 124.44 252.16C124.44 249.43 124.95 246.69 125.16 243.95C125.148 243.746 125.086 243.548 124.979 243.374C124.873 243.2 124.726 243.054 124.55 242.95C119.08 240.59 116.42 236.46 116.44 230.49C116.44 227.22 116.37 223.93 118.44 221.14C119.387 219.893 120.467 218.753 121.66 217.74C121.97 217.54 122.211 217.249 122.351 216.908C122.49 216.566 122.522 216.19 122.44 215.83C120.72 206.09 115.98 198.2 108.64 191.56C93.2001 177.56 85.9901 160.07 88.4801 139.32C91.3501 115 104.82 98.28 127.77 89.8C145.37 83.29 162.97 84.38 179.71 92.97C196.45 101.56 207.1 115.3 210.71 133.82C215.23 156.87 208.24 176.36 190.9 192.07C183.882 198.241 179.192 206.63 177.61 215.84C177.511 216.198 177.536 216.579 177.679 216.921C177.822 217.264 178.076 217.549 178.4 217.73C179.971 218.798 181.255 220.236 182.139 221.917C183.023 223.598 183.48 225.471 183.47 227.37C183.572 230.079 183.334 232.79 182.76 235.44C182.279 237.13 181.397 238.68 180.189 239.956C178.98 241.232 177.482 242.198 175.82 242.77C174.7 243.22 174.82 243.63 174.99 244.64C175.99 250.07 176.54 255.51 172.49 260.13C171.414 261.421 170.067 262.458 168.544 263.168C167.021 263.879 165.36 264.245 163.68 264.24C159.09 264.24 154.51 264.24 149.92 264.24L149.93 264.26ZM137.81 174.1C135.02 174.1 132.35 174.18 129.68 174.1C126.863 174.015 124.144 173.049 121.905 171.338C119.667 169.626 118.021 167.256 117.2 164.56C116.425 161.98 116.452 159.226 117.277 156.662C118.102 154.097 119.686 151.844 121.82 150.2C125.56 147.2 129.93 146.84 134.35 147.57C139.92 148.49 143.76 151.8 145.14 157.34C145.75 159.79 145.58 162.45 145.67 165.02C145.67 165.91 145.92 166.33 146.89 166.31C149.08 166.26 151.28 166.31 153.48 166.31C154.27 166.31 154.6 166.04 154.58 165.23C154.58 163.65 154.58 162.08 154.58 160.5C154.614 158.508 155.097 156.55 155.992 154.77C156.887 152.99 158.171 151.435 159.75 150.22C162.97 147.64 166.75 147.22 170.75 147.36C174.076 147.472 177.243 148.809 179.643 151.115C182.042 153.42 183.505 156.531 183.75 159.85C183.984 163.101 183.008 166.323 181.008 168.897C179.009 171.47 176.128 173.213 172.92 173.79C170.024 174.087 167.111 174.204 164.2 174.14C163.66 174.14 163.11 174.2 162.45 174.24V211.79C162.45 215.33 162.45 215.33 165.93 215.33C169.78 215.33 169.71 215.33 170.56 211.61C172.581 202.142 177.587 193.572 184.84 187.16C199.69 174.07 206.33 157.82 203.63 138.06C202.26 127.595 197.554 117.85 190.21 110.27C181.21 100.84 170.08 95.64 157.21 94.16C143.93 92.64 131.4 94.95 119.95 102.04C100.12 114.33 92.4001 137.11 97.1101 157.93C99.7401 169.59 106.01 179.06 114.94 186.93C117.859 189.602 120.471 192.591 122.73 195.84C126.482 201.292 128.978 207.508 130.04 214.04C130.12 214.49 130.6 215.22 130.92 215.23C133.2 215.33 135.48 215.29 137.84 215.29L137.81 174.1ZM150 235.9C156.78 235.9 163.56 235.9 170.34 235.9C171.61 235.91 172.857 235.564 173.94 234.9C176.65 232.97 176.59 226.13 173.85 224.24C172.811 223.586 171.608 223.239 170.38 223.24C156.77 223.17 143.16 223.24 129.54 223.24C129.21 223.24 128.87 223.24 128.54 223.24C127.432 223.299 126.384 223.764 125.597 224.546C124.81 225.328 124.337 226.372 124.27 227.48C124.18 228.43 124.27 229.39 124.27 230.35C124.27 234.25 125.94 235.94 129.83 235.94L150 235.9ZM150 243.78C145.7 243.78 141.41 243.78 137.11 243.78C133.98 243.78 132.16 245.64 132.11 248.78C132.11 249.69 132.11 250.59 132.11 251.5C132.11 254.63 133.97 256.5 137.11 256.5C139.84 256.5 142.56 256.5 145.28 256.5C151.1 256.5 156.93 256.5 162.75 256.5C165.9 256.5 167.7 254.63 167.75 251.5C167.75 250.64 167.75 249.78 167.75 248.92C167.75 245.59 165.94 243.8 162.59 243.79C158.46 243.77 154.26 243.78 150.06 243.78H150ZM145.63 194.72C145.63 201.12 145.63 207.52 145.63 213.92C145.63 214.92 145.9 215.37 147 215.33C149.09 215.26 151.2 215.28 153.3 215.33C154.21 215.33 154.55 215.07 154.55 214.11C154.55 201.17 154.55 188.23 154.55 175.29C154.55 174.29 154.16 174.09 153.27 174.11C151.32 174.11 149.35 174.2 147.4 174.11C146.06 174.03 145.6 174.4 145.62 175.82C145.74 182.12 145.69 188.42 145.69 194.72H145.63ZM166.87 166.36C168.3 166.36 169.76 166.28 171.17 166.14C172.268 166.005 173.297 165.533 174.114 164.787C174.931 164.042 175.496 163.061 175.73 161.98C176.02 160.957 175.983 159.87 175.624 158.87C175.265 157.869 174.603 157.006 173.73 156.4C171.18 154.58 168.28 154.73 165.55 155.81C163.83 156.56 162.61 159.34 162.38 161.81C162.38 161.81 162.01 165.41 162.64 165.68C163.52 166.45 166.93 166.36 166.93 166.36H166.87ZM133.3 166.2V166.28C134.49 166.28 135.69 166.34 136.87 166.28C137.083 166.229 137.28 166.124 137.441 165.975C137.602 165.826 137.722 165.639 137.79 165.43C137.9 163.715 137.9 161.995 137.79 160.28C137.702 159 137.161 157.793 136.262 156.876C135.364 155.96 134.168 155.394 132.89 155.28C131.703 155.155 130.507 155.155 129.32 155.28C127.974 155.439 126.735 156.091 125.842 157.11C124.949 158.129 124.465 159.443 124.483 160.798C124.502 162.153 125.022 163.453 125.943 164.447C126.864 165.441 128.12 166.058 129.47 166.18C130.77 166.29 132.07 166.2 133.36 166.2H133.3Z" fill="url(#paint0_linear_133_1485)"/>
<path d="M99.3501 213.74L104.73 219.18C104.56 219.39 104.34 219.69 104.09 219.95C100.91 223.13 97.7301 226.3 94.5501 229.46C93.4795 230.559 92.1986 231.431 90.7838 232.024C89.3691 232.617 87.8493 232.919 86.3153 232.913C84.7812 232.906 83.2641 232.591 81.8544 231.986C80.4448 231.381 79.1714 230.498 78.1101 229.39C73.8168 225.03 69.5601 220.643 65.3401 216.23C63.3568 214.115 62.253 211.324 62.253 208.425C62.253 205.526 63.3568 202.735 65.3401 200.62C67.9401 197.89 70.6401 195.24 73.3401 192.62C73.5149 192.507 73.6638 192.358 73.7771 192.183C73.8904 192.008 73.9655 191.812 73.9976 191.606C74.0297 191.4 74.018 191.19 73.9633 190.989C73.9086 190.788 73.8121 190.601 73.6801 190.44C69.2391 183.071 65.9733 175.055 64.0001 166.68C63.9905 166.493 63.9411 166.311 63.8552 166.145C63.7693 165.979 63.6489 165.834 63.5021 165.718C63.3553 165.603 63.1855 165.52 63.004 165.475C62.8226 165.431 62.6337 165.425 62.4501 165.46C58.9201 165.46 55.3801 165.46 51.8501 165.46C44.9801 165.46 40.1501 160.55 40.1401 153.68C40.1401 147.8 40.1401 141.93 40.1401 136.05C40.0872 134.494 40.3546 132.943 40.9257 131.494C41.4969 130.045 42.3596 128.729 43.4603 127.627C44.5611 126.526 45.8764 125.662 47.3248 125.089C48.7731 124.517 50.3236 124.248 51.8801 124.3C55.2701 124.3 58.6701 124.3 62.0601 124.3C62.9701 124.3 63.4301 124.07 63.6701 123.15C65.8161 114.779 69.2181 106.782 73.7601 99.43C74.2601 98.62 73.8901 98.25 73.3801 97.75C70.9301 95.33 68.5101 92.9 66.0701 90.47C63.9245 88.3727 62.6993 85.5094 62.6637 82.5093C62.628 79.5091 63.7849 76.6176 65.8801 74.47C70.4001 69.93 75.0034 65.4833 79.6901 61.13C81.8061 59.2545 84.5436 58.2322 87.3709 58.2618C90.1983 58.2914 92.9138 59.3706 94.9901 61.29C97.7701 63.91 100.45 66.64 103.12 69.38C103.24 69.5496 103.395 69.6919 103.574 69.7977C103.753 69.9035 103.953 69.9704 104.159 69.994C104.366 70.0176 104.575 69.9973 104.773 69.9346C104.972 69.8719 105.155 69.7681 105.31 69.63C112.518 65.2919 120.354 62.0973 128.54 60.16C129.89 59.85 130.4 59.36 130.36 57.91C130.24 54.28 130.29 50.65 130.36 47.02C130.36 45.5234 130.658 44.0417 131.236 42.6613C131.814 41.2809 132.661 40.0293 133.727 38.9795C134.794 37.9296 136.059 37.1025 137.448 36.5464C138.838 35.9902 140.324 35.7161 141.82 35.74C147.82 35.74 153.84 35.74 159.88 35.74C161.336 35.7078 162.783 35.9681 164.136 36.5055C165.489 37.0429 166.721 37.8464 167.758 38.8684C168.795 39.8905 169.616 41.1102 170.173 42.4555C170.73 43.8007 171.011 45.244 171 46.7C171.08 50.38 171.09 54.06 171 57.7C170.962 57.9342 170.973 58.1738 171.031 58.4038C171.09 58.6338 171.195 58.8493 171.34 59.0369C171.486 59.2245 171.668 59.3802 171.876 59.4942C172.084 59.6083 172.314 59.6783 172.55 59.7C180.183 61.666 187.508 64.6743 194.32 68.64C196.91 70.13 196.91 70.13 199.04 68.01L205 62.23C206.064 61.1273 207.34 60.2503 208.75 59.6513C210.161 59.0523 211.678 58.7436 213.21 58.7436C214.743 58.7436 216.259 59.0523 217.67 59.6513C219.08 60.2503 220.356 61.1273 221.42 62.23C225.76 66.61 230.05 71.03 234.29 75.49C236.25 77.596 237.341 80.3658 237.343 83.243C237.345 86.1202 236.258 88.8914 234.3 91C231.72 93.75 229.01 96.38 226.3 99C226.115 99.1192 225.958 99.2761 225.838 99.4604C225.718 99.6446 225.639 99.8522 225.605 100.069C225.571 100.286 225.583 100.508 225.641 100.72C225.699 100.933 225.801 101.13 225.94 101.3C230.332 108.59 233.567 116.518 235.53 124.8C235.79 125.93 236.3 126.21 237.38 126.19C240.87 126.13 244.38 126.11 247.84 126.19C254.05 126.31 258.3 129.59 259.65 135.27C259.825 136.061 259.906 136.87 259.89 137.68C259.89 143.68 259.89 149.653 259.89 155.6C259.937 157.167 259.66 158.727 259.077 160.183C258.494 161.638 257.618 162.958 256.502 164.059C255.386 165.161 254.055 166.021 252.593 166.585C251.13 167.15 249.567 167.407 248 167.34C244.61 167.34 241.22 167.34 237.83 167.34C237.657 167.312 237.48 167.319 237.309 167.361C237.139 167.403 236.979 167.479 236.839 167.585C236.699 167.69 236.581 167.823 236.494 167.975C236.406 168.127 236.351 168.296 236.33 168.47C234.169 176.845 230.76 184.848 226.22 192.21C225.79 192.92 225.97 193.29 226.48 193.79C228.96 196.23 231.48 198.69 233.89 201.17C234.959 202.22 235.809 203.471 236.393 204.85C236.976 206.23 237.281 207.711 237.291 209.209C237.3 210.707 237.013 212.192 236.447 213.579C235.88 214.966 235.045 216.227 233.99 217.29C229.51 221.79 224.92 226.19 220.28 230.53C216.41 234.15 209.68 234.53 205.79 230.96C201.68 227.2 198.01 222.96 194.2 218.96L199.56 213.73C200.45 214.68 201.46 215.81 202.56 216.88C204.947 219.293 207.347 221.69 209.76 224.07C211.7 225.98 213.71 226.07 215.67 224.17C219.85 220.17 224.013 216.17 228.16 212.17C228.58 211.827 228.919 211.394 229.152 210.904C229.385 210.414 229.505 209.878 229.505 209.335C229.505 208.792 229.385 208.256 229.152 207.766C228.919 207.276 228.58 206.843 228.16 206.5C224.97 203.28 221.75 200.08 218.54 196.87C216.54 194.87 216.27 193.23 217.84 190.87C222.819 183.434 226.536 175.227 228.84 166.58C229.18 165.29 229.44 163.98 229.84 162.69C230 161.731 230.517 160.868 231.287 160.275C232.056 159.681 233.022 159.401 233.99 159.49C238.58 159.49 243.16 159.49 247.75 159.49C250.92 159.49 252.21 158.22 252.21 155.09C252.21 149.503 252.21 143.913 252.21 138.32C252.21 135.43 250.81 134.01 247.9 134C243.07 134 238.25 134 233.42 134C230.64 134 229.25 132.89 228.76 130.16C226.888 120.33 223.125 110.956 217.68 102.56C215.85 99.65 216.02 98.3 218.44 95.89C221.65 92.68 224.88 89.48 228.08 86.27C230.08 84.27 230.08 82.27 228.08 80.27C224.113 76.1633 220.14 72.0733 216.16 68C214.26 66 212.23 66 210.3 67.92C207.14 71.04 204 74.2 200.85 77.33C198.62 79.54 197.1 79.73 194.51 78.02C186.142 72.4807 176.812 68.5564 167 66.45C164.35 65.89 163.33 64.56 163.33 61.8C163.33 57.12 163.33 52.43 163.33 47.8C163.33 44.73 162.17 43.6 159.08 43.6H142.55C139.36 43.6 138.09 44.87 138.09 48.01C138.09 52.79 138.09 57.57 138.09 62.35C138.09 65.08 137.02 66.46 134.37 66.94C124.498 68.796 115.074 72.5303 106.61 77.94C103.67 79.77 102.39 79.62 99.9401 77.18L90.4001 67.69C88.2801 65.58 86.3301 65.54 84.1801 67.61C80.0601 71.55 75.9701 75.5 71.9101 79.46C70.0301 81.28 70.0201 83.32 71.9101 85.21C75.0501 88.36 78.2001 91.48 81.3401 94.62C83.5901 96.87 83.7501 98.41 81.9901 101.08C76.5017 109.33 72.5985 118.53 70.4801 128.21C69.8501 131.1 68.5501 132.16 65.5901 132.16H52.1001C49.2201 132.16 47.9001 133.48 47.9001 136.36C47.9001 142.047 47.9001 147.733 47.9001 153.42C47.9001 156.29 49.2501 157.64 52.0901 157.64H66.2801C68.9201 157.64 70.2801 158.64 70.8001 161.28C72.7453 171.382 76.6413 181.008 82.2701 189.62C83.6401 191.78 83.4401 193.49 81.6401 195.3C78.3401 198.62 75.0101 201.91 71.7001 205.21C69.5101 207.39 69.4901 209.29 71.6401 211.52C75.5268 215.52 79.4234 219.52 83.3301 223.52C85.3301 225.52 87.3301 225.52 89.3301 223.61C92.4601 220.52 95.5601 217.41 98.6701 214.31C98.8401 214.15 99.0601 214 99.3501 213.74Z" fill="url(#paint1_linear_133_1485)"/>
</g>
<defs>
<filter id="filter0_d_133_1485" x="-12.2263" y="-10.043" width="324.453" height="324.453" filterUnits="userSpaceOnUse" color-interpolation-filters="sRGB">
<feFlood flood-opacity="0" result="BackgroundImageFix"/>
<feColorMatrix in="SourceAlpha" type="matrix" values="0 0 0 0 0 0 0 0 0 0 0 0 0 0 0 0 0 0 127 0" result="hardAlpha"/>
<feOffset dy="2.18327"/>
<feGaussianBlur stdDeviation="6.11315"/>
<feComposite in2="hardAlpha" operator="out"/>
<feColorMatrix type="matrix" values="0 0 0 0 0 0 0 0 0 0 0 0 0 0 0 0 0 0 0.3 0"/>
<feBlend mode="normal" in2="BackgroundImageFix" result="effect1_dropShadow_133_1485"/>
<feBlend mode="normal" in="SourceGraphic" in2="effect1_dropShadow_133_1485" result="shape"/>
</filter>
<linearGradient id="paint0_linear_133_1485" x1="108.701" y1="101.558" x2="223.409" y2="216.244" gradientUnits="userSpaceOnUse">
<stop stop-color="#FFEDD6"/>
<stop offset="0.173077" stop-color="#FFDCAF"/>
<stop offset="0.826923" stop-color="#FFB85D"/>
</linearGradient>
<linearGradient id="paint1_linear_133_1485" x1="76.8102" y1="53.3866" x2="190.907" y2="235.99" gradientUnits="userSpaceOnUse">
<stop stop-color="#FFEDD6"/>
<stop offset="0.173077" stop-color="#FFDCAF"/>
<stop offset="0.826923" stop-color="#FFB85D"/>
</linearGradient>
</defs>
</svg>
