<svg width="300" height="300" viewBox="0 0 300 300" fill="none" xmlns="http://www.w3.org/2000/svg">
<g filter="url(#filter0_d_133_1488)">
<path d="M140 252.35C137.38 262.1 126 264.28 119.73 257.06C118.609 258.278 117.237 259.239 115.708 259.876C114.18 260.513 112.532 260.811 110.877 260.751C109.223 260.69 107.601 260.271 106.124 259.524C104.647 258.776 103.349 257.717 102.32 256.42C101.48 257.08 100.75 257.76 99.9299 258.29C98.4566 259.226 96.7915 259.819 95.0579 260.024C93.3243 260.229 91.5668 260.042 89.9156 259.475C88.2645 258.908 86.7621 257.977 85.5199 256.751C84.2777 255.524 83.3275 254.034 82.7399 252.39C77.4499 237.89 72.2599 223.39 66.9099 208.89C65.676 205.777 65.4247 202.36 66.1899 199.1C67.1899 195.1 67.8499 191 68.5499 186.93C68.725 185.906 68.646 184.856 68.3199 183.87C64.9266 174.403 61.4866 164.953 57.9999 155.52C57.8883 155.224 57.7171 154.954 57.4969 154.727C57.2767 154.5 57.0123 154.321 56.7199 154.2C49.6199 152.35 46.4499 147.5 47.6199 139.95C43.1999 138.7 39.9999 136 38.9999 131.34C37.9999 126.68 39.5299 122.9 42.9999 119.8C38.1499 114.8 37.7999 107.63 43.6299 102.17C41.7353 100.349 40.4647 97.9761 39.9999 95.3899C39.6595 92.7714 40.2013 90.1141 41.5396 87.8378C42.8778 85.5615 44.9363 83.7959 47.3899 82.8199C62.5699 77.2899 77.7699 71.8199 92.9499 66.3099C94.9763 65.5837 97.1652 65.4383 99.2699 65.8899C103.74 66.7699 108.2 67.6999 112.68 68.4599C113.957 68.6733 115.267 68.5773 116.5 68.1799C125.83 64.8799 135.12 61.4599 144.43 58.1099C144.827 58.02 145.187 57.811 145.463 57.5107C145.738 57.2105 145.915 56.8334 145.97 56.4299C146.23 54.9838 146.776 53.6037 147.574 52.3699C148.372 51.1361 149.407 50.0729 150.619 49.2422C151.831 48.4115 153.196 47.8298 154.635 47.5307C156.073 47.2316 157.557 47.2211 159 47.4999C159.35 47.4999 159.71 47.5699 160 47.5999C162.92 37.5499 174.26 35.9999 180.29 42.9999C181.403 41.7856 182.766 40.8269 184.285 40.1899C185.804 39.5529 187.444 39.2527 189.09 39.3099C190.752 39.3704 192.382 39.7874 193.87 40.5328C195.357 41.2781 196.666 42.3343 197.71 43.6299C198.54 42.9699 199.27 42.2999 200.09 41.7599C206.45 37.6299 214.74 40.6399 217.44 48.0899C222.38 61.6699 227.3 75.2499 232.2 88.8299C232.38 89.3199 232.57 89.8299 232.79 90.2699C234.45 93.9611 234.744 98.1219 233.62 102.01C232.68 105.66 232.08 109.39 231.46 113.11C231.293 114.114 231.372 115.143 231.69 116.11C235.07 125.577 238.497 135.027 241.97 144.46C242.075 144.76 242.24 145.035 242.455 145.268C242.67 145.502 242.93 145.69 243.22 145.82C250.43 147.82 253.54 152.51 252.35 160.05C256.78 161.3 260 164.05 261.05 168.65C262.1 173.25 260.52 177.09 257.05 180.2C262.18 186.76 261.98 192.29 256.42 197.71C257.11 198.64 257.89 199.54 258.5 200.55C262.05 206.37 259.4 214.55 253.01 216.95C243.56 220.52 234.01 223.89 224.55 227.35C218.76 229.45 212.96 231.51 207.18 233.66C205.112 234.416 202.873 234.572 200.72 234.11C196.3 233.24 191.9 232.3 187.46 231.58C186.085 231.351 184.675 231.458 183.35 231.89C174.12 235.15 164.92 238.52 155.72 241.89C154.93 242.17 154.31 242.41 154.07 243.48C152.59 250.09 147.33 253.57 140.66 252.48L140 252.35ZM146.73 64.2499C145.99 64.5099 145.49 64.6699 145 64.8499C136.187 68.0433 127.377 71.2399 118.57 74.4399C116.408 75.263 114.057 75.4571 111.79 74.9999C107.17 74.0699 102.55 73.1599 97.9199 72.3299C97.0018 72.1485 96.0529 72.2001 95.1599 72.4799C80.1399 77.8799 65.1399 83.3166 50.1599 88.7899C48.8408 89.1896 47.7344 90.0967 47.0837 91.3117C46.433 92.5268 46.2914 93.9505 46.6899 95.2699C47.6199 97.8999 50.4499 99.0999 53.4399 98.0499C57.5399 96.6099 61.6099 95.0499 65.6999 93.6099C66.1399 93.4499 66.5799 93.2799 67.0299 93.1599C67.7856 92.9591 68.5881 93.0339 69.2936 93.3711C69.9992 93.7083 70.5615 94.2857 70.8799 94.9999C71.185 95.7612 71.1975 96.6085 70.915 97.3785C70.6325 98.1484 70.0749 98.7866 69.3499 99.1699C68.8826 99.4066 68.3978 99.6072 67.8999 99.7699C61.7999 101.99 55.6899 104.18 49.5899 106.42C46.5899 107.53 45.0899 110.42 46.0899 112.98C47.0899 115.54 49.8199 116.69 52.8899 115.6C56.9799 114.14 61.0599 112.6 65.1499 111.16C65.6836 110.953 66.2363 110.799 66.7999 110.7C67.5568 110.567 68.3363 110.709 68.997 111.102C69.6576 111.495 70.1554 112.111 70.3999 112.84C70.6589 113.601 70.6265 114.432 70.3088 115.171C69.9911 115.909 69.4107 116.504 68.6799 116.84C68.2535 117.038 67.8161 117.212 67.3699 117.36C61.3699 119.54 55.3699 121.7 49.3699 123.92C48.3834 124.259 47.4681 124.778 46.6699 125.45C45.8984 126.173 45.3936 127.135 45.2375 128.18C45.0814 129.226 45.2831 130.293 45.8099 131.21C46.4416 132.22 47.4016 132.982 48.5287 133.368C49.6559 133.754 50.8815 133.741 51.9999 133.33C56.4999 131.75 60.9999 130.09 65.4499 128.47C67.5599 127.7 69.6599 126.89 71.7999 126.19C72.6018 125.904 73.4833 125.94 74.259 126.291C75.0348 126.642 75.6444 127.279 75.9599 128.07C76.2531 128.899 76.2076 129.81 75.8332 130.606C75.4587 131.402 74.7856 132.017 73.9599 132.32C73.5799 132.48 73.1799 132.6 72.7799 132.75C67.6199 134.62 62.4399 136.47 57.2899 138.39C56.6744 138.581 56.103 138.892 55.6087 139.306C55.1145 139.719 54.7072 140.227 54.4104 140.799C54.1137 141.371 53.9335 141.996 53.8802 142.638C53.8269 143.28 53.9016 143.927 54.0999 144.54C54.5145 145.745 55.3737 146.746 56.5019 147.339C57.6301 147.932 58.9421 148.072 60.1699 147.73C60.8289 147.556 61.4767 147.342 62.1099 147.09C73.0832 143.09 84.0566 139.09 95.0299 135.09C96.5699 134.52 97.9799 134.36 99.2299 135.64C100.48 136.92 100.23 138.26 99.7299 139.73C98.2499 143.87 96.7966 148.017 95.3699 152.17C95.0634 152.958 95.0145 153.823 95.2301 154.64C95.4457 155.458 95.9147 156.186 96.5699 156.72C97.2082 157.278 98.0151 157.606 98.8617 157.651C99.7083 157.696 100.546 157.457 101.24 156.97C102.103 156.237 102.787 155.317 103.24 154.28C109.17 141.85 115.16 129.46 120.85 116.92C122.85 112.54 125.62 109.59 130.3 108.32C132.85 107.63 135.3 106.54 137.85 105.6C137.67 105.26 137.58 105.08 137.47 104.91C136.264 103.145 135.635 101.05 135.671 98.9131C135.707 96.7761 136.405 94.7029 137.67 92.9799C138.971 91.222 140.773 89.8991 142.84 89.1851C144.907 88.4711 147.142 88.3996 149.25 88.9799C150.86 89.4299 152.42 90.0599 154.01 90.5899C154.76 90.8399 155.52 91.0599 156.52 91.3699C153.22 82.1799 150 73.2899 146.71 64.2499H146.73ZM153.31 235.77L155.42 235.02C164.03 231.9 172.65 228.8 181.26 225.64C183.563 224.752 186.073 224.548 188.49 225.05C192.75 225.93 197.02 226.69 201.28 227.58C202.811 227.915 204.407 227.794 205.87 227.23C219.343 222.303 232.827 217.403 246.32 212.53C247.7 212.03 249.1 211.53 250.44 211C251.44 210.588 252.284 209.87 252.85 208.948C253.417 208.026 253.675 206.948 253.59 205.87C253.553 204.918 253.203 204.004 252.594 203.272C251.984 202.539 251.15 202.029 250.22 201.82C248.948 201.586 247.638 201.675 246.41 202.08C242.19 203.48 238.05 205.08 233.83 206.54C232.804 206.86 231.706 206.86 230.68 206.54C230.08 206.326 229.575 205.909 229.252 205.36C228.928 204.812 228.807 204.168 228.91 203.54C228.971 202.837 229.25 202.171 229.706 201.633C230.163 201.096 230.776 200.714 231.46 200.54C237.52 198.34 243.573 196.14 249.62 193.94C250.52 193.657 251.378 193.253 252.17 192.74C253.074 192.067 253.724 191.108 254.014 190.018C254.305 188.929 254.219 187.774 253.77 186.74C253.255 185.658 252.354 184.807 251.243 184.355C250.133 183.904 248.894 183.884 247.77 184.3C243.41 185.79 239.1 187.42 234.77 188.96C234.094 189.23 233.377 189.385 232.65 189.42C231.966 189.44 231.296 189.226 230.75 188.814C230.204 188.401 229.816 187.814 229.65 187.15C229.429 186.471 229.448 185.736 229.705 185.07C229.962 184.403 230.44 183.845 231.06 183.49C231.611 183.187 232.19 182.939 232.79 182.75C238.79 180.56 244.79 178.4 250.79 176.19C251.724 175.859 252.594 175.368 253.36 174.74C254.137 174.022 254.65 173.065 254.819 172.02C254.987 170.976 254.801 169.906 254.29 168.98C253.677 167.961 252.733 167.182 251.616 166.775C250.498 166.367 249.275 166.355 248.15 166.74C244.49 168.01 240.86 169.37 237.22 170.74C234.22 171.81 231.33 172.92 228.35 173.93C227.943 174.092 227.507 174.17 227.069 174.159C226.631 174.149 226.199 174.05 225.8 173.869C225.401 173.688 225.042 173.429 224.746 173.106C224.449 172.783 224.221 172.404 224.074 171.991C223.927 171.578 223.865 171.14 223.892 170.702C223.919 170.265 224.033 169.837 224.229 169.445C224.425 169.053 224.697 168.704 225.031 168.42C225.364 168.135 225.752 167.921 226.17 167.79C226.51 167.65 226.86 167.54 227.17 167.41C232.39 165.52 237.62 163.66 242.82 161.72C244.006 161.331 244.996 160.499 245.585 159.398C246.173 158.298 246.315 157.012 245.98 155.81C245.635 154.614 244.851 153.594 243.784 152.954C242.717 152.313 241.447 152.101 240.23 152.36C239.546 152.483 238.876 152.674 238.23 152.93L220.36 159.4C215.24 161.25 210.11 163.08 205.01 164.98C203.47 165.54 202.01 165.74 200.79 164.48C199.57 163.22 199.71 161.75 200.31 160.26C200.44 159.92 200.56 159.57 200.68 159.26C202.01 155.45 203.38 151.66 204.68 147.84C205.029 146.868 204.989 145.798 204.568 144.855C204.147 143.912 203.377 143.168 202.42 142.78C201.464 142.396 200.397 142.388 199.436 142.759C198.474 143.131 197.69 143.853 197.24 144.78C196.92 145.37 196.64 146 196.35 146.61C190.35 159.2 184.35 171.75 178.52 184.38C177.828 186.05 176.772 187.544 175.43 188.755C174.087 189.966 172.492 190.863 170.76 191.38C167.88 192.28 165.07 193.38 162.12 194.5C163.78 196.749 164.534 199.541 164.23 202.32C163.984 203.882 163.398 205.371 162.512 206.68C161.626 207.99 160.462 209.089 159.104 209.898C157.746 210.707 156.226 211.208 154.653 211.364C153.079 211.52 151.491 211.327 150 210.8C147.9 210.11 145.82 209.35 143.42 208.51C146.77 217.78 150 226.68 153.29 235.77H153.31ZM235.75 146.72C235.53 146.06 235.39 145.56 235.21 145.08C232.05 136.37 228.92 127.64 225.71 118.95C224.766 116.496 224.554 113.822 225.1 111.25C226.02 106.9 226.89 102.54 227.63 98.1499C227.831 96.9789 227.739 95.7762 227.36 94.6499C222.56 81.2399 217.68 67.8599 212.82 54.4699C212.23 52.8399 211.7 51.1899 211.02 49.6099C210.658 48.6718 210.022 47.8647 209.194 47.2938C208.366 46.7229 207.385 46.4149 206.38 46.4099C205.508 46.3679 204.642 46.5823 203.891 47.0266C203.139 47.4709 202.534 48.1256 202.15 48.9099C201.773 49.6326 201.567 50.4322 201.548 51.2471C201.528 52.062 201.697 52.8704 202.04 53.6099C203.64 57.9899 205.25 62.3699 206.78 66.7699C206.935 67.161 207.01 67.5789 207.002 67.9995C206.995 68.42 206.903 68.8348 206.734 69.2199C206.565 69.6049 206.321 69.9525 206.016 70.2426C205.712 70.5327 205.353 70.7596 204.96 70.9099C204.169 71.2181 203.29 71.2079 202.507 70.8816C201.724 70.5553 201.098 69.9382 200.76 69.1599C200.545 68.6834 200.355 68.1961 200.19 67.6999C197.99 61.6399 195.81 55.5799 193.58 49.5399C192.49 46.5899 189.72 45.1499 187.13 46.0699C184.54 46.9899 183.34 49.7799 184.41 52.8099C185.85 56.8099 187.34 60.8899 188.79 64.9299C189.007 65.4618 189.181 66.0103 189.31 66.5699C189.483 67.339 189.377 68.1447 189.011 68.8428C188.644 69.5409 188.041 70.0857 187.31 70.3799C186.536 70.6487 185.689 70.6169 184.937 70.291C184.185 69.965 183.583 69.3687 183.25 68.6199C183.01 68.0999 182.82 67.5499 182.63 67.0099C180.48 61.0999 178.39 55.1799 176.16 49.2999C175.709 48.0884 174.971 47.0041 174.01 46.1399C173.241 45.5333 172.294 45.1959 171.315 45.1796C170.336 45.1633 169.378 45.4691 168.59 46.0499C167.668 46.7094 166.99 47.6559 166.662 48.7414C166.335 49.8269 166.376 50.9904 166.78 52.0499C168.32 56.3999 169.91 60.7199 171.48 65.0499C172.3 67.3199 173.16 69.5699 173.9 71.8599C174.163 72.6679 174.102 73.5467 173.729 74.3102C173.355 75.0736 172.699 75.6617 171.9 75.9499C171.098 76.2199 170.223 76.1724 169.455 75.8171C168.687 75.4619 168.084 74.8259 167.77 74.0399C167.56 73.5599 167.4 73.0399 167.22 72.5699C165.36 67.4499 163.53 62.3199 161.63 57.2099C161.276 56.1299 160.555 55.2078 159.593 54.6033C158.63 53.9988 157.487 53.75 156.36 53.8999C155.231 54.0538 154.194 54.604 153.434 55.4522C152.674 56.3004 152.24 57.3913 152.21 58.5299C152.231 59.622 152.444 60.7019 152.84 61.7199C156.84 72.7599 160.84 83.7899 164.84 94.8099C165.41 96.3699 165.73 97.8099 164.4 99.1799C163.07 100.55 161.56 100.18 160.02 99.6299C156.17 98.2599 152.33 96.8899 148.47 95.5699C147.69 95.2805 146.861 95.1447 146.03 95.1699C145.132 95.2339 144.284 95.6031 143.625 96.2162C142.967 96.8293 142.538 97.6493 142.41 98.5399C142.13 100.44 143.07 102.01 145.14 102.99C158.527 109.337 171.917 115.67 185.31 121.99C186.603 122.569 187.762 123.41 188.714 124.46C189.666 125.51 190.39 126.746 190.84 128.09C191.84 130.95 192.91 133.8 193.95 136.65C194.1 137.07 194.31 137.45 194.53 137.92L195.48 137.36C197.347 136.217 199.522 135.681 201.707 135.824C203.891 135.967 205.978 136.783 207.68 138.16C209.331 139.516 210.529 141.343 211.114 143.398C211.698 145.454 211.641 147.638 210.95 149.66C210.24 151.87 209.45 154.05 208.58 156.56L235.75 146.72ZM64.2499 153.29C64.5199 154.09 64.6999 154.63 64.8999 155.17C68.0599 163.88 71.1999 172.6 74.3899 181.3C75.2679 183.613 75.4623 186.13 74.9499 188.55C74.0599 192.74 73.3399 196.98 72.4399 201.17C72.0926 202.754 72.2178 204.406 72.7999 205.92C77.9532 219.973 83.0666 234.05 88.1399 248.15C88.4299 248.94 88.6799 249.75 89.0299 250.51C89.4951 251.543 90.2854 252.395 91.2803 252.937C92.2752 253.478 93.4199 253.68 94.5399 253.51C95.5544 253.331 96.4816 252.823 97.1777 252.063C97.8738 251.304 98.2999 250.336 98.3899 249.31C98.4248 248.269 98.2619 247.23 97.9099 246.25C96.4399 242.05 94.9099 237.87 93.3699 233.7C92.9299 232.5 92.6699 231.2 93.6299 230.3C94.4487 229.568 95.4775 229.113 96.5699 229C98.0099 228.88 98.9399 229.94 99.4299 231.27C100.67 234.61 101.87 237.97 103.09 241.27C104.31 244.57 105.43 247.89 106.74 251.14C107.1 252.085 107.756 252.888 108.611 253.429C109.465 253.97 110.472 254.219 111.48 254.14C112.412 254.193 113.334 253.924 114.092 253.378C114.849 252.831 115.396 252.041 115.64 251.14C115.982 249.791 115.937 248.374 115.51 247.05C114.18 242.92 112.61 238.86 111.13 234.77C110.917 234.237 110.756 233.684 110.65 233.12C110.549 232.361 110.716 231.591 111.124 230.942C111.531 230.294 112.152 229.808 112.88 229.57C113.612 229.344 114.4 229.385 115.105 229.685C115.81 229.985 116.386 230.526 116.73 231.21C117.002 231.778 117.239 232.363 117.44 232.96C119.58 238.86 121.72 244.767 123.86 250.68C125.08 254.02 127.74 255.53 130.5 254.48C133.26 253.43 134.22 250.48 133.1 247.34C132.87 246.7 132.63 246.07 132.4 245.43C130.33 239.71 128.25 234.01 126.22 228.28C126.062 227.877 125.986 227.446 125.996 227.013C126.007 226.579 126.104 226.153 126.282 225.758C126.46 225.363 126.715 225.007 127.032 224.712C127.35 224.417 127.723 224.189 128.13 224.04C128.951 223.754 129.852 223.804 130.636 224.178C131.421 224.553 132.026 225.222 132.32 226.04C132.64 226.81 132.91 227.61 133.19 228.4C134.93 233.17 136.63 237.96 138.4 242.72C138.76 243.797 139.482 244.717 140.442 245.324C141.402 245.93 142.542 246.187 143.67 246.05C144.798 245.893 145.834 245.342 146.595 244.494C147.356 243.647 147.794 242.558 147.83 241.42C147.818 240.324 147.605 239.239 147.2 238.22C143.773 228.66 140.317 219.107 136.83 209.56C136.17 207.74 135.44 205.94 134.83 204.09C134.615 203.52 134.567 202.901 134.692 202.305C134.817 201.709 135.109 201.161 135.534 200.726C135.959 200.29 136.5 199.985 137.092 199.845C137.685 199.706 138.305 199.739 138.88 199.94C139.39 200.08 139.88 200.26 140.37 200.44C144.37 201.82 148.26 203.24 152.23 204.58C153.045 204.895 153.942 204.929 154.778 204.677C155.615 204.426 156.344 203.902 156.85 203.19C157.365 202.549 157.654 201.756 157.674 200.934C157.694 200.111 157.443 199.305 156.96 198.64C156.291 197.846 155.454 197.211 154.51 196.78C141.283 190.48 128.037 184.21 114.77 177.97C113.45 177.384 112.266 176.529 111.295 175.459C110.324 174.39 109.587 173.13 109.13 171.76C108.13 168.94 107.13 166.14 106.08 163.34C105.93 162.93 105.71 162.55 105.67 162.45C103.67 163.09 101.83 163.98 99.9599 164.17C98.2188 164.358 96.4583 164.104 94.8409 163.433C93.2236 162.761 91.8013 161.693 90.7054 160.327C89.6094 158.961 88.8751 157.341 88.57 155.617C88.265 153.892 88.399 152.119 88.9599 150.46C89.6799 148.19 90.5099 145.96 91.4199 143.36L64.2499 153.29ZM110.25 155.21C110.33 155.51 110.38 155.71 110.45 155.91C112.16 160.63 113.83 165.37 115.65 170.05C116.035 170.897 116.703 171.583 117.54 171.99C129.773 177.837 142.023 183.633 154.29 189.38C154.895 189.635 155.569 189.674 156.2 189.49C160.65 187.94 165.06 186.28 169.5 184.71C170.118 184.502 170.686 184.166 171.165 183.723C171.644 183.28 172.024 182.74 172.28 182.14C177.993 170.02 183.707 157.903 189.42 145.79C189.681 145.186 189.719 144.51 189.53 143.88C187.95 139.34 186.35 134.79 184.6 130.31C184.184 129.312 183.435 128.488 182.48 127.98C170.307 122.14 158.107 116.36 145.88 110.64C145.281 110.366 144.603 110.316 143.97 110.5C139.43 112.08 134.88 113.68 130.41 115.5C129.332 115.975 128.452 116.809 127.92 117.86C122.12 129.93 116.41 142.05 110.69 154.16C110.46 154.5 110.33 154.89 110.2 155.21H110.25Z" fill="url(#paint0_linear_133_1488)"/>
</g>
<defs>
<filter id="filter0_d_133_1488" x="-12.2263" y="-10.043" width="324.453" height="324.453" filterUnits="userSpaceOnUse" color-interpolation-filters="sRGB">
<feFlood flood-opacity="0" result="BackgroundImageFix"/>
<feColorMatrix in="SourceAlpha" type="matrix" values="0 0 0 0 0 0 0 0 0 0 0 0 0 0 0 0 0 0 127 0" result="hardAlpha"/>
<feOffset dy="2.18327"/>
<feGaussianBlur stdDeviation="6.11315"/>
<feComposite in2="hardAlpha" operator="out"/>
<feColorMatrix type="matrix" values="0 0 0 0 0 0 0 0 0 0 0 0 0 0 0 0 0 0 0.3 0"/>
<feBlend mode="normal" in2="BackgroundImageFix" result="effect1_dropShadow_133_1488"/>
<feBlend mode="normal" in="SourceGraphic" in2="effect1_dropShadow_133_1488" result="shape"/>
</filter>
<linearGradient id="paint0_linear_133_1488" x1="75.8611" y1="58.572" x2="209.801" y2="251.46" gradientUnits="userSpaceOnUse">
<stop stop-color="#FFEDD6"/>
<stop offset="0.173077" stop-color="#FFDCAF"/>
<stop offset="0.826923" stop-color="#FFB85D"/>
</linearGradient>
</defs>
</svg>
