<svg width="47" height="28" viewBox="0 0 47 28" fill="none" xmlns="http://www.w3.org/2000/svg">
<path fill-rule="evenodd" clip-rule="evenodd" d="M23.0628 18.8019C22.1836 18.7343 21.2367 18.599 20.4251 18.3961C20.2899 18.3285 19.6812 18.1256 19.5459 18.058C16.8406 16.7729 14.9469 14.0676 14.9469 10.8213C14.9469 6.42512 18.5314 2.90821 22.8599 2.90821C27.1884 2.90821 30.7053 6.42512 30.7729 10.7536H33.6135C33.5459 4.86956 28.744 0.0676318 22.7923 0.0676318C16.8406 0.0676318 11.971 4.9372 11.971 10.8889C11.971 15.0145 14.2705 18.599 17.6522 20.4251C18.2609 20.7633 19.1401 21.1014 19.4106 21.1691C20.3575 21.4396 21.5749 21.6425 22.5894 21.7101C22.9275 21.7101 24.2126 21.7778 24.5507 21.7778H46.4638V18.9372H24.7536C24.4831 18.8696 23.3333 18.8696 23.0628 18.8019ZM24.7536 14.3382C24.5507 14.3382 23.4686 14.3382 23.2657 14.3382C22.9275 14.3382 22.4541 14.2705 22.1159 14.2029C21.7778 14.1353 21.4396 14 21.2367 13.8647C20.1546 13.256 19.4783 12.1739 19.4783 10.8889C19.4783 8.99517 21.0338 7.43961 22.9275 7.43961C24.7536 7.43961 26.3092 8.92754 26.3092 10.7536H29.0821C29.0145 7.37198 26.3092 4.66667 22.9275 4.66667C19.5459 4.66667 16.7729 7.43961 16.7729 10.8213C16.7729 13.256 18.1256 15.285 20.1546 16.2995C20.4928 16.5024 21.0338 16.6377 21.2367 16.7053C21.7778 16.8406 22.5894 16.9758 23.1981 16.9758C23.401 16.9758 24.5507 16.9758 24.7536 16.9758H46.7343V14.2029H24.7536V14.3382ZM10.2802 21.7101H7.37198V2.90821H3.17874V0H10.2802V21.7101ZM0 4.39614V7.16908H3.17874V21.7101H5.95169V4.39614H0Z" fill="white"/>
<path fill-rule="evenodd" clip-rule="evenodd" d="M39.3623 0.270508C38.3478 0.270508 37.4685 1.0821 37.4685 2.16423C37.4685 3.17872 38.3478 4.05795 39.3623 4.05795C40.4444 4.05795 41.256 3.17872 41.256 2.16423C41.256 1.0821 40.4444 0.270508 39.3623 0.270508ZM39.3623 3.71978C38.483 3.71978 37.7391 3.04346 37.7391 2.0966C37.7391 1.21737 38.483 0.54104 39.3623 0.54104C40.2415 0.54104 40.9854 1.21737 40.9854 2.0966C40.9178 3.04346 40.1738 3.71978 39.3623 3.71978Z" fill="white"/>
<path fill-rule="evenodd" clip-rule="evenodd" d="M40.0388 2.63782C40.0388 2.43492 40.0388 2.23202 39.7683 2.16439C40.0388 2.02912 40.1064 1.89386 40.1064 1.75859C40.1064 1.28516 39.7006 1.21753 39.4977 1.21753H38.6861V3.11125H39.0243V2.36729H39.2948C39.7006 2.36729 39.7006 2.57019 39.7006 2.70545C39.7006 3.04362 39.7006 3.11125 39.7683 3.11125H40.1064C40.0388 2.97598 40.1064 2.90835 40.0388 2.63782ZM39.4301 2.02912H39.0243V1.42043H39.3625C39.633 1.42043 39.7683 1.48806 39.7683 1.69096C39.7683 1.82623 39.7006 2.02912 39.4301 2.02912Z" fill="white"/>
<path d="M3.7201 25.1595H3.17904V24.3479H4.59933V27.8648H3.7201V25.1595Z" fill="white"/>
<path d="M7.77795 27.6619C7.43978 27.8648 7.16925 27.9324 6.83108 27.9324C5.81659 27.9324 5.07263 27.1885 5.07263 26.1064C5.07263 24.9566 5.88423 24.2803 6.83108 24.2803C7.16925 24.2803 7.50741 24.3479 7.77795 24.5508V25.5653C7.57505 25.3624 7.30452 25.1595 6.96635 25.1595C6.42529 25.1595 6.08712 25.5653 6.08712 26.174C6.08712 26.7151 6.42529 27.1209 6.96635 27.1209C7.30452 27.1209 7.57505 26.918 7.77795 26.7151V27.6619Z" fill="white"/>
<path d="M8.65724 25.2947C8.92777 25.2947 9.13067 25.4976 9.13067 25.8357C9.13067 26.1063 8.92777 26.3768 8.65724 26.3768C8.38671 26.3768 8.18381 26.1739 8.18381 25.8357C8.18381 25.5652 8.38671 25.2947 8.65724 25.2947ZM8.65724 26.9179C8.92777 26.9179 9.13067 27.1208 9.13067 27.4589C9.13067 27.7295 8.92777 28 8.65724 28C8.38671 28 8.18381 27.7971 8.18381 27.4589C8.18381 27.1208 8.38671 26.9179 8.65724 26.9179Z" fill="white"/>
<path d="M11.1597 27.3238C10.551 27.3238 9.53646 27.1209 9.53646 25.9035C9.53646 24.6861 10.551 24.4832 11.1597 24.4832V24.0774H12.1065V24.5508C12.7152 24.5508 13.7297 24.7537 13.7297 25.9711C13.7297 27.1885 12.7152 27.3914 12.1065 27.3914V27.8648H11.1597V27.3238ZM11.2273 25.2271C10.9568 25.2271 10.4833 25.2948 10.4833 25.9035C10.4833 26.5122 10.9568 26.5798 11.2273 26.5798V25.2271ZM12.0389 26.6474C12.3094 26.6474 12.7828 26.5798 12.7828 25.9711C12.7828 25.3624 12.3094 25.2948 12.0389 25.2948V26.6474Z" fill="white"/>
<path d="M14.068 24.3479H15.4883C16.5028 24.3479 16.7733 25.0242 16.7733 25.4977C16.7733 25.9711 16.5028 26.6474 15.4883 26.6474H15.0149V27.7972H14.068V24.3479ZM15.0149 25.9035H15.2854C15.6912 25.9035 15.7588 25.6329 15.7588 25.4977C15.7588 25.2948 15.6912 25.0919 15.2854 25.0919H15.0149V25.9035Z" fill="white"/>
<path d="M17.7202 24.3479H18.87L20.0874 27.8648H19.0729L18.87 27.2561H17.7202L17.5173 27.8648H16.5028L17.7202 24.3479ZM17.9231 26.4445H18.6671L18.2613 25.1595L17.9231 26.4445Z" fill="white"/>
<path d="M20.3577 24.3479H21.3046V25.6329H22.4543V24.3479H23.4012V27.8648H22.4543V26.4445H21.3046V27.8648H20.3577V24.3479Z" fill="white"/>
<path d="M25.7008 26.4445C25.3626 26.5122 25.295 26.5122 25.0245 26.5122C23.8747 26.5122 23.8071 25.9035 23.8071 25.3624V24.3479H24.7539V25.2271C24.7539 25.4977 24.7539 25.7682 25.295 25.7682C25.3626 25.7682 25.4979 25.7682 25.6332 25.7006V24.3479H26.58V27.8648H25.6332V26.4445H25.7008Z" fill="white"/>
<path d="M28.1356 24.3479H29.2854L30.5028 27.8648H29.4883L29.2854 27.2561H28.1356L27.9327 27.8648H26.9182L28.1356 24.3479ZM28.3385 26.4445H29.1501L28.7443 25.1595L28.3385 26.4445Z" fill="white"/>
<path d="M31.6526 24.348V26.4446L33.0053 24.348H33.9521V27.8649H33.0053V25.7683L31.6526 27.8649H30.7057V24.348H31.6526ZM33.3434 23.604C33.1405 24.0098 32.7347 24.1451 32.3289 24.1451C31.9231 24.1451 31.4497 24.0098 31.3144 23.604L31.8555 23.4011C31.9231 23.6717 32.1937 23.6717 32.3289 23.6717C32.5318 23.6717 32.7347 23.604 32.8024 23.4011L33.3434 23.604Z" fill="white"/>
<path d="M34.3577 24.5508C34.493 24.4832 34.9664 24.2126 35.5075 24.2126C36.2514 24.2126 36.8601 24.6184 36.8601 25.2271C36.8601 25.5653 36.6572 25.9035 36.3191 26.0387C36.5896 26.1064 36.9278 26.3093 36.9278 26.8503C36.9278 27.5267 36.3191 27.9325 35.5751 27.9325C35.1017 27.9325 34.7635 27.8648 34.2225 27.3914L34.6283 26.7151C34.8988 26.918 35.237 27.1209 35.4399 27.1209C35.8456 27.1209 35.9809 26.8503 35.9809 26.7151C35.9809 26.5122 35.8456 26.3769 35.4399 26.3769H34.8988V25.7006H35.4399C35.8456 25.7006 35.9809 25.4977 35.9809 25.3624C35.9809 25.1595 35.778 25.0242 35.5075 25.0242C35.237 25.0242 35.0341 25.0919 34.8312 25.2948L34.3577 24.5508Z" fill="white"/>
<path d="M38.2128 24.3479V26.4445L39.5654 24.3479H40.5123V27.8648H39.5654V25.7682L38.2128 27.8648H37.2659V24.3479H38.2128Z" fill="white"/>
<path d="M40.918 24.3479H41.8649V25.6329H43.0147V24.3479H43.9615V27.8648H43.0147V26.4445H41.8649V27.8648H40.918V24.3479Z" fill="white"/>
<path d="M44.5028 24.3479H46.5994V25.1595H45.5173V27.7972H44.5704V24.3479H44.5028Z" fill="white"/>
</svg>
