<svg width="411" height="411" viewBox="0 0 411 411" fill="none" xmlns="http://www.w3.org/2000/svg">
<path d="M81.6381 48.7374C115.765 21.7479 158.703 5.57642 205.545 5.57642C252.275 5.57642 295.213 21.7479 329.34 48.6259C330.232 47.0645 331.347 45.5031 332.686 44.1648C297.555 16.6176 253.501 6.10352e-05 205.545 6.10352e-05C157.588 6.10352e-05 113.423 16.6176 78.4038 44.2763C79.6306 45.6147 80.7459 47.176 81.6381 48.7374Z" fill="white"/>
<path d="M367.148 78.8497C365.81 80.1881 364.248 81.3033 362.687 82.1955C389.454 116.211 405.402 158.926 405.402 205.433C405.402 251.382 389.788 293.651 363.691 327.444L364.918 328.671L366.367 333.132C394.361 298.001 411.09 253.613 411.09 205.433C410.978 157.699 394.584 113.758 367.148 78.8497Z" fill="white"/>
<path d="M45.9492 328.782L47.2875 327.444C21.1902 293.762 5.57636 251.382 5.57636 205.544C5.57636 159.038 21.5247 116.323 48.2913 82.3069C46.7299 81.4147 45.1685 80.2994 43.8302 78.9611C16.3945 113.869 0 157.811 0 205.544C0 253.724 16.7291 298.112 44.6109 333.243L45.9492 328.782Z" fill="white"/>
<path d="M328.225 365.475L326.886 364.136C293.205 390.011 251.048 405.401 205.433 405.401C159.707 405.401 117.661 390.011 83.9802 364.025L82.6418 365.363L78.4038 366.701C113.423 394.36 157.588 410.866 205.545 410.866C253.501 410.866 297.666 394.36 332.686 366.701L328.225 365.475Z" fill="white"/>
<path d="M287.967 108.516C289.528 109.855 291.09 111.193 292.539 112.643L305.7 99.7056L306.369 99.9286C307.261 100.709 308.153 101.602 309.045 102.494L295.774 115.765C298.227 118.219 300.569 120.896 302.911 123.572L315.96 110.301C323.321 119.557 325.886 126.918 325.886 127.03L338.823 122.68C338.6 122.123 334.697 110.858 323.321 97.8096L326.555 94.5753L318.971 91.0065L320.198 89.7797C321.536 88.4413 323.544 88.1067 325.328 88.8874L327.224 89.7797C328.897 90.5603 331.016 90.2258 332.355 88.8874L334.251 86.9915L326.667 83.4226L327.894 82.1958C329.232 80.8575 331.239 80.5229 333.024 81.3036L334.92 82.1958C336.593 82.9765 338.712 82.6419 340.05 81.3036L341.946 79.4076L334.362 75.8388L335.589 74.612C336.927 73.2736 338.935 72.9391 340.719 73.7197L342.615 74.612C344.288 75.3927 346.407 75.0581 347.745 73.7197L349.084 72.3814C352.541 72.9391 356.221 71.8238 358.898 69.1471C363.359 64.686 363.359 57.4368 358.898 52.9757C354.437 48.5146 347.188 48.5146 342.727 52.9757C340.05 55.6523 339.046 59.3327 339.492 62.7901L314.176 88.1067C301.127 76.6195 289.863 72.716 289.305 72.6045L284.956 85.5416C285.067 85.5416 292.428 88.2183 301.685 95.4675L287.967 108.516ZM346.63 57.4368C348.638 55.4293 351.872 55.4293 353.879 57.4368C355.887 59.4443 355.887 62.6786 353.879 64.686C351.872 66.6935 348.638 66.6935 346.63 64.686C344.623 62.7901 344.623 59.4443 346.63 57.4368Z" fill="white"/>
<path d="M62.3469 72.3831L63.6852 73.7214C65.0236 75.0597 67.0311 75.3943 68.8155 74.6136L70.7115 73.7214C72.3844 72.9407 74.5034 73.2753 75.8417 74.6136L77.0685 75.8404L69.4847 79.4093L71.3806 81.3052C72.719 82.6436 74.7264 82.9781 76.5109 82.1974L78.4068 81.3052C80.0797 80.5245 82.1988 80.8591 83.5371 82.1974L84.7639 83.4242L76.8455 86.9931L78.7414 88.8891C80.0797 90.2274 82.0872 90.562 83.8717 89.7813L85.7676 88.8891C87.4405 88.1084 89.5595 88.443 90.8979 89.7813L92.1247 91.0081L84.5408 94.577L87.7751 97.8112C76.2878 110.86 72.3844 122.124 72.2728 122.682L85.21 127.031C85.21 126.92 87.8866 119.559 95.1359 110.302L108.296 123.574C110.527 120.897 112.98 118.221 115.434 115.767L101.939 102.495C102.831 101.603 103.723 100.822 104.616 99.9303L105.285 99.7072L118.445 112.756C119.895 111.306 121.456 109.968 123.018 108.629L109.746 95.4692C119.003 88.1084 126.364 85.5433 126.475 85.5433L122.125 72.6061C121.568 72.8292 110.304 76.7326 97.2549 88.1084L71.8267 62.9032C72.3844 59.4459 71.2691 55.7655 68.5924 53.0889C64.1314 48.6278 56.8821 48.6278 52.421 53.0889C47.9599 57.5499 47.9599 64.7992 52.421 69.2603C55.2092 71.9369 58.7781 72.9407 62.3469 72.3831ZM56.8821 57.4384C58.8896 55.4309 62.1239 55.4309 64.1314 57.4384C66.1388 59.4459 66.1388 62.6802 64.1314 64.6877C62.1239 66.6952 58.8896 66.6952 56.8821 64.6877C54.8746 62.7917 54.8746 59.4459 56.8821 57.4384Z" fill="white"/>
<path d="M303.58 286.625C302.242 288.298 300.792 289.859 299.453 291.421L347.633 339.043L354.102 354.545L295.327 295.77C292.427 298.67 289.304 301.458 286.182 304.023L335.365 353.987L361.797 362.352L353.433 335.92L303.58 286.625Z" fill="white"/>
<path d="M115.767 295.659L56.8811 354.545L63.3497 339.043L111.641 291.309C110.191 289.748 108.853 288.186 107.514 286.514L57.5503 335.697L49.0742 362.352L75.5062 353.987L124.801 304.023C121.678 301.347 118.667 298.67 115.767 295.659Z" fill="white"/>
<path d="M205.543 335.585C133.831 335.585 75.502 277.257 75.502 205.545C75.502 133.833 133.719 75.3923 205.543 75.3923C277.366 75.3923 335.583 133.721 335.583 205.433C335.583 277.145 277.255 335.585 205.543 335.585ZM205.543 80.9687C136.953 80.9687 81.0783 136.844 81.0783 205.433C81.0783 274.022 136.953 329.897 205.543 329.897C274.132 329.897 330.007 274.022 330.007 205.433C330.007 136.844 274.132 80.9687 205.543 80.9687Z" fill="white"/>
<path d="M182.571 154.577C182.571 154.577 181.01 155.58 179.226 154.8C177.441 154.019 175.768 148.554 180.452 147.104C185.137 145.543 191.159 149.223 188.705 155.915C186.363 162.272 180.675 163.722 175.991 170.079C172.088 175.432 172.757 180.785 172.757 180.785C172.757 180.785 173.872 175.99 182.794 170.302C191.717 164.614 195.174 160.822 196.289 154.577C197.405 148.219 192.274 139.632 183.129 140.413C173.984 141.193 171.753 149.669 173.872 153.796C176.214 158.145 181.122 157.922 182.571 154.577Z" fill="white"/>
<path d="M194.952 174.54C194.952 174.54 181.457 176.101 173.984 182.57C166.512 189.038 164.728 198.63 166.066 205.879C167.293 213.128 168.297 216.474 168.52 219.151C168.52 219.151 172.646 198.295 192.052 190.711C201.086 187.142 205.77 183.797 208 175.878C209.896 169.075 204.877 162.383 204.877 162.383C204.877 162.383 207.777 171.975 201.197 179.559C194.617 187.142 181.568 182.793 173.315 195.172C173.092 195.172 172.981 184.354 194.952 174.54Z" fill="white"/>
<path d="M179.003 209.671C179.003 209.671 182.126 198.853 192.275 194.615C203.093 190.265 209.896 197.068 207.331 204.094C205.1 210.228 196.513 210.228 196.29 202.645C196.29 202.645 199.412 205.767 200.751 202.979C202.201 200.191 196.401 195.953 179.003 209.671Z" fill="white"/>
<path d="M223.948 212.682C223.948 212.682 220.156 217.701 212.907 217.589C205.657 217.478 197.293 208.89 182.237 213.463C167.181 218.035 161.27 237.776 173.203 249.932C173.203 249.932 165.842 229.746 181.679 222.831C195.397 216.809 204.877 225.731 215.918 221.939C223.167 219.374 223.948 212.682 223.948 212.682Z" fill="white"/>
<path d="M190.824 242.795C190.824 242.795 188.148 244.914 184.579 243.575C182.683 242.906 179.783 238.78 183.24 234.095C187.144 228.742 200.081 229.077 201.419 238.891C202.758 248.706 183.687 255.62 178.333 257.293C172.98 258.966 159.374 264.208 155.47 272.907C151.567 281.606 155.359 290.305 162.831 292.982C162.831 292.982 154.466 285.844 158.035 277.591C161.604 269.338 174.987 265.546 189.821 260.193C204.654 254.84 209.672 246.587 207.999 236.214C206.215 225.842 190.49 220.712 182.348 227.404C174.095 234.207 176.549 246.252 184.579 246.587C190.155 246.921 190.824 242.795 190.824 242.795Z" fill="white"/>
<path d="M184.245 267.665C184.245 267.665 163.278 278.817 169.189 291.978C169.189 291.978 159.597 287.071 164.393 276.922C168.52 268.111 184.245 267.665 184.245 267.665Z" fill="white"/>
<path d="M174.988 295.77C174.988 295.77 170.973 287.405 182.571 282.052C194.17 276.699 203.427 270.899 204.654 267.107C204.654 267.107 209.115 273.13 200.639 279.598C192.163 286.067 188.036 288.967 189.152 295.212C189.152 295.212 189.486 289.97 201.308 284.952C213.13 279.933 215.918 266.884 205.1 254.839C205.1 254.839 201.42 263.315 191.159 269.784C180.676 276.141 167.181 283.948 174.988 295.77Z" fill="white"/>
<path d="M194.171 279.71C194.171 279.71 177.442 283.836 177.776 295.881H184.914C184.914 295.881 182.795 289.97 194.171 279.71Z" fill="white"/>
<path d="M196.624 294.878C196.624 294.878 199.189 284.729 208.669 284.394C218.149 284.171 218.26 294.655 213.688 296.327C209.115 298.112 206.661 293.539 206.661 293.539C206.661 293.539 210.9 293.985 209.784 291.309C208.78 288.967 200.862 290.751 196.624 294.878Z" fill="white"/>
<path d="M154.578 290.751C154.578 290.751 151.679 293.651 149.002 294.543V295.881H162.051C162.051 295.881 157.143 293.762 154.578 290.751Z" fill="white"/>
<path d="M281.162 226.846C278.709 221.158 275.586 216.474 271.794 212.682C268.002 209.113 263.653 206.214 258.634 203.872C253.615 201.641 248.708 200.191 244.024 199.411V196.957C248.708 195.396 253.169 193.5 257.184 191.158C261.311 188.815 264.768 186.139 267.779 183.016C271.013 179.559 273.579 175.544 275.251 170.971C277.036 166.287 277.928 160.934 277.928 154.8C277.928 141.528 274.025 131.49 266.218 124.576C258.857 118.107 249.377 113.981 230.641 113.981H151.122C150.006 113.981 150.341 115.319 151.122 115.988C159.486 122.457 167.516 130.264 170.862 140.636C171.085 141.305 171.085 142.086 171.977 142.309C172.758 142.42 172.87 141.751 173.204 141.193C176.55 136.175 181.457 134.725 187.033 135.505C196.848 136.844 202.536 146.212 200.305 156.807C199.413 160.822 197.74 164.503 195.063 167.737C196.625 167.514 197.629 166.622 198.521 165.506C201.978 161.045 202.87 155.803 202.982 150.45C203.093 145.208 202.982 139.967 203.316 134.836C203.428 132.494 204.097 130.041 205.993 128.479C208.67 126.249 212.239 125.914 215.584 125.803C219.599 125.691 223.837 126.026 227.629 127.364C231.198 128.591 234.209 130.933 236.44 133.944C236.552 134.056 236.663 134.279 236.775 134.39C240.79 139.967 242.797 147.885 242.797 157.922C242.797 168.964 240.455 177.663 235.882 184.02C231.198 190.488 224.06 193.723 214.246 193.723L211.458 193.388C213.242 196.734 214.358 200.637 214.469 204.652C214.469 205.098 214.469 205.656 214.469 206.102C216.031 205.991 217.257 205.991 218.261 205.991C228.187 205.991 235.882 209.336 241.124 216.14C246.477 222.831 249.043 232.534 249.043 245.248C249.043 257.628 246.812 267.219 242.351 274.022C237.89 280.825 231.979 284.283 224.841 284.283C222.945 284.283 221.161 284.06 219.488 283.502V283.614C223.057 286.848 225.733 291.086 227.183 295.882C235.994 295.77 243.689 294.989 250.269 293.428C257.407 291.867 263.653 289.078 269.006 285.175C274.136 281.495 278.04 276.476 280.828 270.119C283.616 263.762 284.954 255.955 284.954 246.81C284.731 239.114 283.504 232.534 281.162 226.846Z" fill="white"/>
<path d="M205.544 20.1864L210.786 36.5809H228.184L214.132 46.7299L219.485 63.2359L205.544 53.0869L191.492 63.2359L196.845 46.7299L182.904 36.5809H200.191L205.544 20.1864Z" fill="white"/>
<path d="M369.936 179.893L375.289 196.399H392.576L378.635 206.548L383.988 222.943L369.936 212.794L355.995 222.943L361.348 206.548L347.296 196.399H364.583L369.936 179.893Z" fill="white"/>
<path d="M41.599 179.893L46.9523 196.399H64.239L50.2981 206.548L55.6514 222.943L41.599 212.794L27.6581 222.943L33.0114 206.548L18.959 196.399H36.2457L41.599 179.893Z" fill="white"/>
<path d="M205.544 347.742L210.786 364.248H228.184L214.132 374.397L219.485 390.791L205.544 380.642L191.492 390.791L196.845 374.397L182.904 364.248H200.191L205.544 347.742Z" fill="white"/>
</svg>
