<svg width="208" height="182" viewBox="0 0 208 182" fill="none" xmlns="http://www.w3.org/2000/svg">
<path d="M4.32605 31.2861C4.57989 31.0323 4.99213 31.0323 5.24597 31.2861L9.38269 35.4229C9.6361 35.6766 9.63597 36.088 9.38269 36.3418C9.12888 36.5954 8.71657 36.5955 8.46277 36.3418L5.4364 33.3154V204.927C7.0401 205.231 8.25281 206.64 8.25281 208.332C8.2525 210.246 6.70041 211.799 4.78601 211.799C2.87171 211.799 1.31953 210.246 1.31921 208.332C1.31921 206.64 2.53262 205.231 4.1366 204.927V33.3145L1.10925 36.3418C0.855443 36.5954 0.444108 36.5955 0.190308 36.3418C-0.0634824 36.088 -0.0633798 35.6767 0.190308 35.4229L4.32605 31.2861ZM146.652 22.3936C146.906 22.1397 147.318 22.1398 147.572 22.3936L151.709 26.5303C151.962 26.784 151.962 27.1954 151.709 27.4492C151.455 27.7031 151.043 27.7031 150.789 27.4492L147.763 24.4229L147.762 204.927C149.357 205.229 150.568 206.625 150.579 208.31C150.591 210.224 149.049 211.786 147.135 211.799C145.22 211.811 143.658 210.269 143.645 208.354C143.634 206.655 144.849 205.233 146.462 204.927V24.4219L143.435 27.4502C143.182 27.7036 142.77 27.7035 142.516 27.4502C142.263 27.1964 142.263 26.7841 142.516 26.5303L146.652 22.3936ZM54.08 115.762C59.6028 115.762 64.0799 120.239 64.08 125.762V198.332L64.0673 198.847C63.8079 203.96 59.7077 208.059 54.5946 208.318L54.08 208.332H26.1053L25.5907 208.318C20.4776 208.059 16.3774 203.96 16.118 198.847L16.1053 198.332V125.762C16.1054 120.239 20.5825 115.762 26.1053 115.762H54.08ZM124.789 0C130.312 0.000263878 134.789 4.47732 134.789 10V198.332L134.776 198.846C134.517 203.959 130.417 208.059 125.304 208.318L124.789 208.332H96.8143L96.2997 208.318C91.1863 208.059 87.086 203.959 86.827 198.846L86.8143 198.332V10C86.8143 4.47715 91.2915 7.61123e-08 96.8143 0H124.789ZM197.314 22.8535C202.837 22.8535 207.314 27.3307 207.314 32.8535V198.332L207.302 198.847C207.042 203.96 202.942 208.059 197.829 208.318L197.314 208.332H169.34L168.825 208.318C163.712 208.059 159.612 203.96 159.352 198.847L159.34 198.332V32.8535C159.34 27.3307 163.817 22.8535 169.34 22.8535H197.314ZM169.34 24.1533C164.535 24.1533 160.64 28.0486 160.64 32.8535V198.332C160.64 203.137 164.535 207.032 169.34 207.032H197.314C202.119 207.032 206.014 203.137 206.015 198.332V32.8535C206.015 28.0486 202.119 24.1533 197.314 24.1533H169.34ZM26.1053 117.062C21.3005 117.062 17.4052 120.957 17.4052 125.762V198.332C17.4053 203.137 21.3006 207.031 26.1053 207.031H54.08C58.8847 207.031 62.78 203.137 62.7802 198.332V125.762C62.7801 120.957 58.8848 117.062 54.08 117.062H26.1053ZM96.8143 1.2998C92.0095 1.2998 88.1141 5.19512 88.1141 10V198.332C88.1144 203.137 92.0096 207.031 96.8143 207.031H124.789C129.593 207.031 133.489 203.137 133.489 198.332V10C133.489 5.19529 129.594 1.30007 124.789 1.2998H96.8143ZM74.9413 0.19043C75.1951 -0.0630252 75.6065 -0.0631462 75.8602 0.19043L79.9969 4.32715C80.2506 4.58101 80.2507 4.99328 79.9969 5.24707C79.7431 5.50052 79.3308 5.50065 79.077 5.24707L76.0497 2.21973V75.2275C77.6533 75.532 78.866 76.9406 78.8661 78.6328C78.8659 80.5472 77.3137 82.0996 75.3993 82.0996C73.4849 82.0995 71.9327 80.5472 71.9325 78.6328C71.9325 76.9403 73.1459 75.5317 74.7499 75.2275L74.7509 2.21875L71.7235 5.24609C71.4697 5.49962 71.0583 5.4997 70.8046 5.24609C70.5509 4.99233 70.551 4.58098 70.8046 4.32715L74.9413 0.19043Z" fill="white" fill-opacity="0.5"/>
</svg>
