<svg width="379" height="193" viewBox="0 0 379 193" fill="none" xmlns="http://www.w3.org/2000/svg">
<path d="M209.79 28.1064V100.023L217.321 95.6758L266.004 123.782V179.996L217.321 208.103L168.64 179.996V164.29L161.107 168.64L153.577 164.292V179.996L104.895 208.103L56.2129 179.996V123.782L104.895 95.6758L112.426 100.023V28.1064L161.107 0L209.79 28.1064ZM378.431 123.782V179.996L329.748 208.103L281.066 179.996V123.782L329.748 95.6758L378.431 123.782ZM57.5127 124.533V179.244L104.895 206.601L152.277 179.244V163.541L112.426 140.533V101.524L104.895 97.1768L57.5127 124.533ZM209.79 101.524V140.533L169.939 163.54V179.244L217.321 206.601L264.704 179.244V124.533L217.321 97.1768L209.79 101.524ZM282.366 124.533V179.244L329.748 206.601L377.131 179.244V124.533L329.748 97.1768L282.366 124.533ZM161.107 112.427L113.726 85.0703V100.773L153.577 123.782V162.789L161.107 167.138L168.64 162.788V123.782L208.49 100.773V85.0703L161.107 112.427ZM113.726 139.781L152.277 162.039V124.533L113.726 102.274V139.781ZM169.939 124.533V162.038L208.49 139.781V102.275L169.939 124.533ZM97.3643 28.1064V84.3203L48.6816 112.427L0 84.3203V28.1064L48.6816 0L97.3643 28.1064ZM322.217 28.1064V84.3203L273.534 112.427L224.853 84.3203V28.1064L273.534 0L322.217 28.1064ZM1.2998 28.8574V83.5684L48.6816 110.925L96.0645 83.5684V28.8574L48.6816 1.50098L1.2998 28.8574ZM115.025 84.3193L161.107 110.925L207.189 84.3193L161.107 57.7139L115.025 84.3193ZM226.152 28.8574V83.5684L273.534 110.925L320.917 83.5684V28.8574L273.534 1.50098L226.152 28.8574ZM303.213 39.0791V73.3477L273.534 90.4824L243.856 73.3477V39.0791L273.534 21.9443L303.213 39.0791ZM245.157 39.8291V72.5967L273.534 88.9805L301.912 72.5967V39.8291L273.534 23.4453L245.157 39.8291ZM113.726 28.8574V83.5684L161.107 56.2129L208.489 83.5684H208.49V28.8574L161.107 1.50098L113.726 28.8574ZM292.631 45.1875V67.2393L273.534 78.2646L254.438 67.2393V45.1875L273.534 34.1621L292.631 45.1875ZM255.737 45.9385V66.4873L273.534 76.7627L291.331 66.4883V45.9375L273.534 35.6631L255.737 45.9385Z" fill="white" fill-opacity="0.5"/>
</svg>
