<svg width="296" height="172" viewBox="0 0 296 172" fill="none" xmlns="http://www.w3.org/2000/svg">
<path d="M76.1523 105.844V149.81L38.0762 171.793L0 149.81V105.844L38.0762 83.8604L76.1523 105.844ZM164.085 105.844V149.81L126.009 171.793L87.9336 149.81V105.844L126.009 83.8604L164.085 105.844ZM1.30078 106.594V149.059L38.0762 170.291L74.8525 149.059V106.594L38.0762 85.3613L1.30078 106.594ZM89.2334 106.594V149.059L126.009 170.291L162.785 149.059V106.594L126.009 85.3613L89.2334 106.594ZM120.119 27.2588V71.2246L82.043 93.208L43.9678 71.2246V27.2588L82.043 5.27539L120.119 27.2588ZM208.052 27.2588V71.2246L169.976 93.208L131.9 71.2246V27.2588L169.976 5.27539L208.052 27.2588ZM295.983 27.2588V71.2246L257.907 93.208L219.832 71.2246V27.2588L257.907 5.27539L295.983 27.2588ZM45.2676 28.0088V70.4736L82.043 91.7061L118.819 70.4736V28.0088L82.043 6.77637L45.2676 28.0088ZM133.2 28.0088V70.4736L169.976 91.7061L206.752 70.4736V28.0088L169.976 6.77637L133.2 28.0088ZM221.132 28.0088V70.4736L257.907 91.7061L294.684 70.4736V28.0088L257.907 6.77637L221.132 28.0088ZM189.014 38.25V60.2334L169.976 71.2246L150.938 60.2334V38.25L169.976 27.2588L189.014 38.25ZM152.237 39V59.4824L169.975 69.7236L187.713 59.4824V39L169.975 28.7598L152.237 39ZM22.7607 43.9658C26.8943 43.9658 30.2459 47.3167 30.2461 51.4502L30.2363 51.8359C30.0357 55.7905 26.7652 58.9355 22.7607 58.9355L22.376 58.9258C18.4212 58.7254 15.2764 55.4547 15.2764 51.4502C15.2765 47.3168 18.6273 43.966 22.7607 43.9658ZM22.7607 45.2656C19.3453 45.2658 16.5763 48.0347 16.5762 51.4502C16.5762 54.8658 19.3452 57.6346 22.7607 57.6348C26.1764 57.6348 28.9453 54.8659 28.9453 51.4502C28.9451 48.0346 26.1763 45.2656 22.7607 45.2656ZM214.454 0C218.587 0.000263876 221.939 3.351 221.939 7.48438L221.93 7.87012C221.729 11.8244 218.458 14.9695 214.454 14.9697L214.069 14.96C210.115 14.7596 206.97 11.4888 206.97 7.48438C206.97 3.35094 210.321 0.000165697 214.454 0ZM214.454 1.2998C211.039 1.29997 208.27 4.06891 208.27 7.48438C208.27 10.8999 211.039 13.6688 214.454 13.6689C217.87 13.6687 220.639 10.8998 220.639 7.48438C220.639 4.06897 217.869 1.30007 214.454 1.2998Z" fill="white" fill-opacity="0.5"/>
</svg>
