<svg width="301" height="126" viewBox="0 0 301 126" fill="none" xmlns="http://www.w3.org/2000/svg">
<path d="M273.753 0C279.276 0.000115446 283.753 4.47729 283.753 10V12.6914H290.146C295.669 12.6914 300.146 17.1688 300.146 22.6914V115.686C300.146 121.208 295.669 125.686 290.146 125.686H197.152L196.638 125.673C191.354 125.405 187.152 121.036 187.152 115.686V112.994H180.759L180.244 112.981C174.96 112.714 170.759 108.344 170.759 102.994V10C170.759 4.47722 175.236 1.27749e-07 180.759 0H273.753ZM283.753 102.994C283.753 108.517 279.276 112.994 273.753 112.994H188.452V115.686C188.452 120.49 192.347 124.386 197.152 124.386H290.146C294.951 124.386 298.847 120.49 298.847 115.686V22.6914C298.846 17.8867 294.951 13.9912 290.146 13.9912H283.753V102.994ZM180.759 1.2998C175.954 1.2998 172.059 5.19519 172.059 10V102.994C172.059 107.799 175.954 111.694 180.759 111.694H187.152V22.6914C187.153 17.1688 191.63 12.6914 197.152 12.6914H282.453V10C282.453 5.19526 278.558 1.29992 273.753 1.2998H180.759ZM197.152 13.9912C192.348 13.9912 188.452 17.8867 188.452 22.6914V111.694H273.753C278.558 111.694 282.453 107.799 282.453 102.994V13.9912H197.152ZM266.415 46.9688V81.543L236.473 98.8301L206.53 81.543V46.9688L236.473 29.6816L266.415 46.9688ZM207.83 47.7197V80.791L236.473 97.3281L265.114 80.792V47.7188L236.473 31.1826L207.83 47.7197ZM54.9961 29.2402C60.5189 29.2402 64.9961 33.7174 64.9961 39.2402V84.2363C64.9961 89.7592 60.5189 94.2363 54.9961 94.2363H10L9.48535 94.2236C4.20168 93.9558 0 89.5866 0 84.2363V39.2402C6.99014e-06 33.89 4.20167 29.5208 9.48535 29.2529L10 29.2402H54.9961ZM10 30.54C5.19513 30.54 1.29981 34.4354 1.2998 39.2402V84.2363C1.2998 89.0412 5.19512 92.9365 10 92.9365H54.9961C59.801 92.9365 63.6963 89.0412 63.6963 84.2363V39.2402C63.6963 34.4354 59.801 30.54 54.9961 30.54H10ZM153.136 56.8174C153.39 56.5638 153.802 56.5638 154.056 56.8174L158.192 60.9541C158.446 61.2079 158.446 61.6202 158.192 61.874L154.056 66.0107C153.802 66.2645 153.39 66.2645 153.136 66.0107C152.882 65.7569 152.882 65.3446 153.136 65.0908L156.163 62.0645H78.0234V60.7637H156.163L153.136 57.7373C152.882 57.4834 152.882 57.0712 153.136 56.8174Z" fill="white" fill-opacity="0.5"/>
</svg>
