<svg width="293" height="145" viewBox="0 0 293 145" fill="none" xmlns="http://www.w3.org/2000/svg">
<path d="M127.655 0C130.983 2.34185e-05 133.681 2.69827 133.682 6.02637V78.4287C133.682 81.757 130.984 84.4551 127.655 84.4551H104.496C112.323 92.8482 123.373 98.1269 136.226 98.127C146.641 98.1269 154.042 95.5998 159.947 91.8076C165.873 88.0023 170.327 82.9048 174.838 77.6758C179.332 72.4663 183.886 67.1237 189.964 62.9941C196.062 58.8509 203.671 55.9409 214.276 55.5166C231.44 54.8303 244.334 67.8044 252.989 83.2285C254.167 85.3276 255.268 87.4773 256.294 89.6494H286.6C289.928 89.6497 292.626 92.3477 292.626 95.6758V138.617L292.618 138.927C292.462 142.008 289.991 144.479 286.91 144.636L286.6 144.644H243.658L243.349 144.636C240.267 144.48 237.796 142.008 237.64 138.927L237.632 138.617V95.6758C237.632 92.4515 240.164 89.8185 243.349 89.6572L243.658 89.6494H254.853C253.915 87.6944 252.918 85.7587 251.855 83.8652C243.263 68.553 230.726 56.16 214.329 56.8154C203.959 57.2302 196.586 60.0664 190.694 64.0693C184.782 68.0863 180.337 73.2923 175.822 78.5254C171.324 83.739 166.757 88.9795 160.649 92.9014C154.521 96.8363 146.874 99.4267 136.226 99.4268C122.525 99.4267 110.83 93.6074 102.74 84.4551H55.2529C51.9246 84.4551 49.2266 81.757 49.2266 78.4287V6.02637C49.2268 2.69826 51.9248 0 55.2529 0H127.655ZM243.658 90.9492C241.048 90.9494 238.932 93.0656 238.932 95.6758V138.617C238.932 141.227 241.048 143.344 243.658 143.344H286.6C289.21 143.343 291.326 141.227 291.326 138.617V95.6758C291.326 93.0657 289.21 90.9495 286.6 90.9492H256.897C262.273 102.715 265.439 114.998 266.381 123.592C268.116 123.782 269.467 125.251 269.467 127.037C269.467 128.952 267.914 130.504 266 130.504C264.085 130.504 262.533 128.952 262.533 127.037C262.533 125.439 263.615 124.095 265.085 123.693C264.141 115.125 260.932 102.746 255.466 90.9492H243.658ZM38.0938 84.4561C17.2572 83.7067 0.530262 66.8353 0.0126953 45.9404L0 44.9434C6.45101e-05 23.5903 16.9266 6.18997 38.0938 5.42871V84.4561ZM55.2529 1.2998C52.6427 1.2998 50.5266 3.41623 50.5264 6.02637V78.4287C50.5264 81.039 52.6426 83.1553 55.2529 83.1553H101.636C98.3812 79.1845 95.7754 74.6473 93.9365 69.7256H69.9834L69.6738 69.7178C66.5921 69.5617 64.1209 67.0905 63.9648 64.0088L63.957 63.6992V20.7578C63.9571 17.5334 66.4895 14.9005 69.6738 14.7393L69.9834 14.7314H112.925C116.253 14.7315 118.951 17.4296 118.951 20.7578V63.6992L118.943 64.0088C118.787 67.0902 116.317 69.5613 113.235 69.7178L112.925 69.7256H95.3232C97.2334 74.6829 99.9468 79.2251 103.332 83.1553H127.655C130.266 83.1553 132.382 81.039 132.382 78.4287V6.02637C132.382 3.41624 130.265 1.29983 127.655 1.2998H55.2529ZM36.7939 6.80273C16.957 8.21025 1.29987 24.7476 1.2998 44.9434C1.3002 65.1388 16.9572 81.6735 36.7939 83.0811V6.80273ZM69.9834 16.0312C67.3732 16.0314 65.2569 18.1476 65.2568 20.7578V63.6992C65.257 66.3093 67.3733 68.4257 69.9834 68.4258H93.4697C91.8953 63.8171 90.9844 58.8948 90.8311 53.8037L87.7773 56.8584C87.5237 57.1118 87.1122 57.1115 86.8584 56.8584C86.6046 56.6046 86.6046 56.1923 86.8584 55.9385L90.9941 51.8018C91.248 51.5482 91.6603 51.548 91.9141 51.8018L96.0508 55.9385C96.3042 56.1923 96.3043 56.6047 96.0508 56.8584C95.7971 57.1121 95.3847 57.1119 95.1309 56.8584L92.1328 53.8594C92.2954 58.944 93.2345 63.8488 94.8457 68.4258H112.925C115.535 68.4258 117.651 66.3094 117.651 63.6992V20.7578C117.651 18.1475 115.535 16.0313 112.925 16.0312H69.9834Z" fill="white" fill-opacity="0.5"/>
</svg>
