<svg width="304" height="143" viewBox="0 0 304 143" fill="none" xmlns="http://www.w3.org/2000/svg">
<path d="M42.1328 142.962C18.7214 142.12 0.00017201 122.876 0 99.2595C0.000328841 75.6428 18.7215 56.3982 42.1328 55.5564V142.962ZM97.1992 142.962C73.7878 142.12 55.0666 122.876 55.0664 99.2595C55.0667 75.6428 73.7879 56.3982 97.1992 55.5564V142.962ZM229.731 13.866C233.06 13.8662 235.758 16.5642 235.758 19.8923V55.5564H244.319C247.647 55.5564 250.345 58.2547 250.346 61.5828V136.935C250.346 140.264 247.648 142.962 244.319 142.962H115.471C112.142 142.962 109.444 140.264 109.444 136.935V61.5828C109.445 58.2547 112.143 55.5564 115.471 55.5564H122.554V19.8923C122.554 16.5641 125.252 13.866 128.58 13.866H229.731ZM261.423 55.5564C284.834 56.3982 303.555 75.6428 303.556 99.2595C303.555 122.876 284.834 142.12 261.423 142.962V55.5564ZM115.471 56.8562C112.861 56.8562 110.744 58.9727 110.744 61.5828V136.935C110.744 139.546 112.86 141.662 115.471 141.662H244.319C246.93 141.662 249.046 139.546 249.046 136.935V61.5828C249.046 58.9726 246.93 56.8562 244.319 56.8562H235.758V114.941L235.75 115.252C235.588 118.435 232.955 120.967 229.731 120.968H128.58C125.356 120.968 122.723 118.436 122.562 115.252L122.554 114.941V56.8562H115.471ZM40.833 56.9275C18.7514 58.4173 1.30013 76.7998 1.2998 99.2595C1.29997 121.719 18.7513 140.1 40.833 141.59V56.9275ZM95.8994 56.9275C73.8178 58.4173 56.3665 76.7998 56.3662 99.2595C56.3664 121.719 73.8177 140.1 95.8994 141.59V56.9275ZM262.723 141.59C284.804 140.1 302.256 121.719 302.256 99.2595C302.256 76.7998 284.804 58.4173 262.723 56.9275V141.59ZM123.854 114.941C123.854 117.551 125.97 119.668 128.58 119.668H229.731C232.341 119.668 234.458 117.551 234.458 114.941V56.8562H123.854V114.941ZM128.58 15.1658C125.97 15.1658 123.854 17.282 123.854 19.8923V55.5564H234.458V19.8923C234.458 17.2822 232.342 15.166 229.731 15.1658H128.58ZM179.895 -22.8684C184.832 -22.8684 188.835 -18.866 188.835 -13.929L188.823 -13.468C188.584 -8.7447 184.677 -4.98857 179.895 -4.98853L179.435 -5.00024C174.711 -5.23985 170.955 -9.146 170.955 -13.929C170.955 -18.8659 174.958 -22.8682 179.895 -22.8684ZM179.895 -21.5686C175.676 -21.5684 172.255 -18.1479 172.255 -13.929C172.255 -9.70971 175.675 -6.28856 179.895 -6.28833C184.114 -6.28837 187.535 -9.70959 187.535 -13.929C187.535 -18.148 184.114 -21.5686 179.895 -21.5686Z" fill="white" fill-opacity="0.5"/>
</svg>
