<svg width="341" height="217" viewBox="0 0 341 217" fill="none" xmlns="http://www.w3.org/2000/svg">
<path d="M48.1406 158.623C53.6635 158.623 58.1406 163.1 58.1406 168.623V206.763C58.1404 212.286 53.6633 216.763 48.1406 216.763H10C4.47728 216.763 0.00020616 212.286 0 206.763V168.623C8.41449e-07 163.1 4.47715 158.623 10 158.623H48.1406ZM316.713 38.3318C321.996 38.6 326.198 42.9691 326.198 48.3191V55.1169H330.862L331.377 55.1296C336.661 55.3976 340.862 59.7668 340.862 65.1169V206.763L340.849 207.278C340.59 212.391 336.49 216.491 331.377 216.751L330.862 216.763H249.786C244.263 216.763 239.786 212.286 239.786 206.763V205.411H235.122L234.607 205.397C229.494 205.138 225.394 201.039 225.135 195.926L225.122 195.411V48.3191C225.122 42.9689 229.324 38.5996 234.607 38.3318L235.122 38.3191H316.198L316.713 38.3318ZM10 159.923C5.19512 159.923 1.29981 163.818 1.2998 168.623V206.763C1.30001 211.568 5.19525 215.464 10 215.464H48.1406C52.9454 215.464 56.8406 211.568 56.8408 206.763V168.623C56.8408 163.818 52.9455 159.923 48.1406 159.923H10ZM326.198 195.411L326.185 195.926C325.925 201.038 321.826 205.138 316.713 205.397L316.198 205.411H241.086V206.763C241.086 211.568 244.981 215.463 249.786 215.464H330.862C335.667 215.464 339.562 211.568 339.562 206.763V65.1169C339.562 60.3121 335.667 56.4169 330.862 56.4167H326.198V195.411ZM197.021 101.85C202.544 101.85 207.021 106.327 207.021 111.85V205.395C207.021 210.918 202.544 215.395 197.021 215.395H158.881C153.358 215.395 148.881 210.918 148.881 205.395V111.85C148.881 106.328 153.358 101.851 158.881 101.85H197.021ZM120.515 129.625C126.037 129.625 130.514 134.102 130.515 139.625V205.394C130.515 210.917 126.037 215.394 120.515 215.394H82.374C76.8513 215.394 72.374 210.917 72.374 205.394V139.625C72.3742 134.102 76.8514 129.625 82.374 129.625H120.515ZM158.881 103.15C154.076 103.15 150.181 107.046 150.181 111.85V205.395C150.181 210.2 154.076 214.095 158.881 214.095H197.021C201.826 214.095 205.721 210.2 205.722 205.395V111.85C205.722 107.045 201.826 103.15 197.021 103.15H158.881ZM82.374 130.925C77.5694 130.925 73.674 134.82 73.6738 139.625V205.394C73.6738 210.199 77.5693 214.094 82.374 214.094H120.515C125.32 214.094 129.215 210.199 129.215 205.394V139.625C129.215 134.82 125.319 130.925 120.515 130.925H82.374ZM235.122 39.6189C230.317 39.6189 226.422 43.5142 226.422 48.3191V195.411C226.422 200.216 230.317 204.111 235.122 204.111H239.786V65.1169C239.786 59.7668 243.988 55.3976 249.271 55.1296L249.786 55.1169H324.898V48.3191C324.898 43.5145 321.003 39.6193 316.198 39.6189H235.122ZM249.786 56.4167C244.981 56.4169 241.086 60.3122 241.086 65.1169V204.111H316.198C321.003 204.111 324.898 200.215 324.898 195.411V56.4167H249.786ZM310.688 146.349V177.276L283.904 192.74L257.12 177.276V146.349L283.904 130.885L310.688 146.349ZM258.42 147.1V176.525L283.903 191.238L309.388 176.526V147.099L283.903 132.386L258.42 147.1ZM261.41 0.37085C261.565 0.0468079 261.953 -0.0911487 262.277 0.0632324L267.558 2.57983C267.882 2.73421 268.019 3.12205 267.865 3.44604L265.349 8.72729C265.194 9.0512 264.805 9.18931 264.481 9.03491C264.158 8.88043 264.021 8.49166 264.175 8.16772L266.017 4.30249L15.4512 93.1287L15.2344 92.5154L15.0176 91.9031L265.581 3.07886L261.718 1.23706C261.394 1.08271 261.256 0.694748 261.41 0.37085Z" fill="white" fill-opacity="0.5"/>
</svg>
