<svg width="300" height="300" viewBox="0 0 300 300" fill="none" xmlns="http://www.w3.org/2000/svg">
<g filter="url(#filter0_d_133_1458)">
<path d="M156 145.46H157.47C187.65 145.46 217.83 145.46 248.01 145.46C251.22 145.36 254.374 146.314 256.991 148.175C259.608 150.037 261.543 152.705 262.5 155.77C263.001 157.344 263.251 158.988 263.24 160.64C263.293 183.533 263.293 206.423 263.24 229.31C263.24 238.21 257.13 244.31 248.24 244.41C245.24 244.41 245.24 244.41 245.14 247.52C245.06 251.41 245.01 255.3 244.91 259.18C244.997 260.083 244.734 260.984 244.176 261.698C243.618 262.413 242.807 262.886 241.91 263.02C241.287 263.139 240.643 263.081 240.051 262.853C239.459 262.625 238.942 262.236 238.56 261.73C233.37 256.41 228.14 251.12 222.99 245.73C222.578 245.267 222.068 244.902 221.497 244.662C220.926 244.421 220.309 244.311 219.69 244.34C193.023 244.38 166.357 244.38 139.69 244.34C134.69 244.34 130.45 242.77 127.23 238.84C125.554 236.858 124.509 234.421 124.23 231.84C124.11 230.58 124.03 229.32 124.03 228.06C124.03 208.42 124.03 188.783 124.03 169.15V167.39C121.27 168.03 118.75 168.71 116.19 169.21C103.434 171.758 90.2094 170.463 78.19 165.49C77.2179 165.095 76.158 164.968 75.12 165.12C65.55 166.81 56 168.57 46.45 170.34C43.06 170.97 40.85 168.93 41.45 165.53C42.9833 157.217 44.5667 148.917 46.2 140.63C46.3751 139.939 46.4123 139.221 46.3093 138.515C46.2064 137.81 45.9653 137.132 45.6 136.52C39.011 125.107 35.9862 111.984 36.9147 98.8377C37.8431 85.6917 42.6823 73.1239 50.81 62.75C60.2 50.84 72.23 42.67 87 39.05C108.11 33.87 127.52 37.95 144.73 51.32C157.167 60.786 165.722 74.4649 168.79 89.79C172.89 109.46 168.79 127.48 156.92 143.72L155.92 145.14C155.938 145.249 155.965 145.356 156 145.46ZM49.09 162.28C49.3629 162.303 49.6372 162.303 49.91 162.28C57.7 160.84 65.47 159.37 73.26 157.95C75.19 157.6 77.05 157.16 79.09 158.07C88.6706 162.502 99.2723 164.257 109.77 163.15C124.48 161.49 137.18 155.41 147.06 144.39C163.44 126.13 167.76 105.03 159.06 82.11C144.8 44.74 98.44 32.06 67 56.59C60.6653 61.3623 55.3752 67.3813 51.4556 74.2762C47.5361 81.1711 45.0702 88.7957 44.21 96.68C42.4412 110.168 45.5056 123.846 52.86 135.29C53.4577 136.265 53.7079 137.414 53.57 138.55C52.88 142.92 51.97 147.24 51.13 151.55L49.09 162.28ZM237.81 251C237.81 247.52 237.81 244.48 237.81 241.43C237.768 240.89 237.841 240.348 238.026 239.839C238.211 239.33 238.503 238.867 238.882 238.48C239.261 238.094 239.718 237.793 240.224 237.598C240.729 237.403 241.27 237.318 241.81 237.35C243.81 237.3 245.81 237.35 247.81 237.35C248.924 237.344 250.029 237.151 251.08 236.78C254.43 235.39 255.57 232.6 255.57 229.16V161.05C255.57 155.75 252.37 152.5 247.03 152.49C214.81 152.49 182.59 152.49 150.37 152.49C149.609 152.511 148.877 152.786 148.29 153.27C143.51 157.555 138.147 161.141 132.36 163.92C131.96 164.066 131.62 164.343 131.397 164.706C131.173 165.069 131.079 165.497 131.13 165.92C131.13 187.107 131.13 208.297 131.13 229.49C131.106 230.265 131.173 231.041 131.33 231.8C132.21 235.33 135 237.32 139.06 237.32H194.75C203.64 237.32 212.54 237.32 221.43 237.32C222.391 237.264 223.352 237.429 224.239 237.802C225.127 238.174 225.917 238.745 226.55 239.47C229.81 243.01 233.24 246.39 236.55 249.83C236.86 250.13 237.18 250.41 237.81 251Z" fill="url(#paint0_linear_133_1458)"/>
<path d="M247.39 70.5301C247.22 79.3101 244.28 86.9701 238.05 93.2301C234.05 97.2301 231.55 101.92 231.48 107.68C231.497 108.431 231.801 109.147 232.33 109.68C235.33 112.47 235.95 115.92 235 119.68C234.644 121.31 233.824 122.801 232.639 123.974C231.453 125.147 229.953 125.952 228.32 126.29C228.082 126.371 227.864 126.502 227.681 126.674C227.498 126.847 227.355 127.057 227.26 127.29C226.523 130.338 224.784 133.051 222.322 134.993C219.859 136.935 216.816 137.994 213.68 138C210.533 137.986 207.481 136.925 205.004 134.984C202.527 133.043 200.766 130.332 200 127.28C199.903 126.983 199.745 126.71 199.537 126.478C199.329 126.245 199.074 126.059 198.79 125.93C191.51 123.49 191.43 113.02 196.15 109.59C196.528 109.346 196.832 109.002 197.026 108.596C197.22 108.19 197.298 107.738 197.25 107.29C197.246 104.901 196.763 102.536 195.831 100.336C194.898 98.1358 193.534 96.1448 191.82 94.4801C186.97 89.9315 183.586 84.0408 182.1 77.5601C180.308 69.2996 181.755 60.6666 186.141 53.4411C190.527 46.2157 197.518 40.9487 205.673 38.7262C213.828 36.5037 222.525 37.4952 229.971 41.4962C237.416 45.4973 243.043 52.2028 245.69 60.2301C246.78 63.5101 247.13 67.0301 247.82 70.4301L247.39 70.5301ZM223.98 107.53C223.98 106.98 223.98 106.53 224.1 106.03C224.411 103.779 224.838 101.546 225.38 99.3401C226.72 94.6901 229.75 91.0901 232.97 87.5901C235.638 84.8101 237.627 81.4511 238.783 77.7753C239.938 74.0996 240.228 70.2065 239.63 66.4001C237.33 49.2701 218.09 39.1601 202.63 46.9901C198.918 48.8124 195.7 51.503 193.249 54.8337C190.798 58.1644 189.186 62.037 188.55 66.1232C187.914 70.2093 188.273 74.3886 189.596 78.3066C190.919 82.2246 193.167 85.7659 196.15 88.6301C197.74 90.1957 199.155 91.9292 200.37 93.8001C202.735 97.5099 204.048 101.792 204.17 106.19C204.17 106.67 204.56 107.52 204.81 107.54C206.68 107.65 208.56 107.6 210.4 107.6C210.47 107.406 210.52 107.205 210.55 107C210.55 101.12 210.55 95.2401 210.55 89.3601C210.461 88.6995 210.155 88.0873 209.68 87.6201C208.05 85.8901 206.31 84.2601 204.68 82.5401C204.331 82.2343 204.049 81.8588 203.853 81.4377C203.658 81.0166 203.552 80.5593 203.544 80.095C203.535 79.6307 203.624 79.1698 203.804 78.7419C203.984 78.314 204.252 77.9284 204.59 77.6101C206.07 76.1101 208.12 76.1401 209.77 77.7601C211.21 79.1801 212.58 80.6801 214.17 82.3401C215.74 80.7001 217.07 79.2301 218.48 77.8401C220.14 76.1901 222.2 76.1001 223.65 77.5301C225.1 78.9601 225.1 80.9901 223.46 82.7001C221.82 84.4101 220.13 85.9701 218.56 87.7001C218.067 88.2548 217.775 88.9592 217.73 89.7001C217.66 95.1901 217.73 100.7 217.73 106.17C217.73 106.6 217.73 107.03 217.8 107.53H223.98ZM214.74 115C214.3 115 213.86 115 213.43 115C209.43 115.1 205.5 115.14 201.54 115.34C200.07 115.41 199.7 116.26 200 118.07C200.22 119.4 201.08 119.66 202.25 119.39C202.632 119.317 203.021 119.283 203.41 119.29C208.3 119.38 213.2 119.5 218.09 119.56C220.7 119.56 223.31 119.47 225.92 119.56C227.61 119.56 228.18 119.27 228.25 117.78C228.36 115.64 227.91 115.02 226.09 115C222.31 115 218.52 115 214.74 115ZM220 126.47H207.28C207.691 127.808 208.535 128.97 209.679 129.776C210.823 130.582 212.202 130.984 213.6 130.92C215.004 130.965 216.384 130.556 217.537 129.755C218.69 128.953 219.554 127.801 220 126.47Z" fill="url(#paint1_linear_133_1458)"/>
<path d="M81.8799 180.55C93.9699 180.55 103.28 187.97 105.94 199.66C107.184 205.16 106.518 210.92 104.051 215.992C101.585 221.063 97.4649 225.143 92.3699 227.56C91.9807 227.714 91.6443 227.977 91.4013 228.318C91.1582 228.658 91.0188 229.062 90.9999 229.48C90.4399 233.82 86.3499 237.13 81.4699 237.34C79.3835 237.429 77.3332 236.774 75.6848 235.492C74.0364 234.21 72.897 232.384 72.4699 230.34C70.6399 221.46 74.8299 212.86 83.3099 210.34C84.5717 210.009 85.6768 209.244 86.4319 208.18C87.1869 207.116 87.5437 205.821 87.4399 204.52C87.367 203.325 86.9275 202.182 86.1813 201.246C85.4351 200.31 84.4184 199.627 83.2699 199.29C81.9792 199.005 80.6317 199.129 79.4148 199.645C78.1979 200.161 77.1721 201.044 76.4799 202.17C75.8508 203.462 74.9552 204.605 73.8521 205.526C72.749 206.446 71.4633 207.123 70.0799 207.51C68.3605 208.022 66.5261 207.999 64.8203 207.443C63.1145 206.888 61.6181 205.826 60.5299 204.4C59.3228 203.105 58.5573 201.461 58.3435 199.704C58.1297 197.946 58.4785 196.167 59.3399 194.62C61.3946 190.393 64.5991 186.831 68.5859 184.343C72.5727 181.854 77.1802 180.54 81.8799 180.55ZM98.8799 204.98C98.7199 203.73 98.6099 202.47 98.3999 201.23C97.1099 193.56 91.1999 188.14 82.8499 187.23C77.1299 186.59 68.6699 189.73 65.4299 197.28C65.2625 197.563 65.1554 197.877 65.1154 198.203C65.0753 198.529 65.1031 198.859 65.197 199.174C65.2909 199.489 65.449 199.78 65.6611 200.031C65.8733 200.282 66.1351 200.486 66.4299 200.63C67.5999 201.35 68.5999 201.14 69.5999 199.91C69.9359 199.434 70.2399 198.936 70.5099 198.42C71.9832 195.935 74.251 194.019 76.9472 192.981C79.6433 191.943 82.6106 191.844 85.3699 192.7C88.0176 193.497 90.3443 195.113 92.0154 197.316C93.6865 199.519 94.6159 202.196 94.6699 204.96C94.737 207.751 93.8831 210.487 92.2401 212.745C90.5971 215.002 88.2565 216.656 85.5799 217.45C83.8739 217.962 82.374 219.001 81.2959 220.419C80.2177 221.836 79.617 223.559 79.5799 225.34C79.6191 226.259 79.5723 227.18 79.4399 228.09C79.0499 229.5 79.9999 230 80.9999 230.2C81.2876 230.297 81.5928 230.33 81.8945 230.298C82.1963 230.265 82.4874 230.167 82.7478 230.012C83.0083 229.856 83.2318 229.645 83.4031 229.395C83.5743 229.144 83.6892 228.859 83.7399 228.56C83.8199 227.45 83.7399 226.33 83.8399 225.21C83.8237 224.406 84.0871 223.622 84.585 222.991C85.083 222.36 85.7845 221.921 86.5699 221.75C90.144 220.645 93.2681 218.421 95.4811 215.405C97.6942 212.389 98.8787 208.741 98.8599 205L98.8799 204.98Z" fill="url(#paint2_linear_133_1458)"/>
<path d="M81.2498 263.12C79.0819 263.128 76.9606 262.492 75.1544 261.293C73.3482 260.094 71.9385 258.386 71.1039 256.386C70.2692 254.385 70.0473 252.182 70.466 250.055C70.8848 247.928 71.9255 245.973 73.4563 244.438C74.9871 242.903 76.9391 241.857 79.0649 241.432C81.1907 241.007 83.3948 241.223 85.3978 242.053C87.4008 242.882 89.1126 244.287 90.3164 246.09C91.5202 247.892 92.1617 250.012 92.1598 252.18C92.1441 255.071 90.9906 257.84 88.9488 259.888C86.907 261.935 84.1412 263.096 81.2498 263.12ZM85.0998 251.88C85.1183 250.854 84.7284 249.862 84.0158 249.123C83.3031 248.384 82.3262 247.958 81.2998 247.94C80.2734 247.921 79.2816 248.311 78.5428 249.024C77.8039 249.737 77.3783 250.714 77.3598 251.74C77.3506 252.248 77.4416 252.753 77.6276 253.226C77.8136 253.699 78.0909 254.131 78.4438 254.497C78.7966 254.863 79.2181 255.156 79.6841 255.359C80.1501 255.562 80.6516 255.671 81.1598 255.68C81.668 255.689 82.173 255.598 82.6461 255.412C83.1191 255.226 83.5509 254.949 83.9168 254.596C84.2826 254.243 84.5754 253.822 84.7784 253.356C84.9814 252.89 85.0906 252.388 85.0998 251.88Z" fill="url(#paint3_linear_133_1458)"/>
<path d="M193.26 189.27H233.5C235.59 189.27 237.68 189.27 239.77 189.27C240.345 189.268 240.911 189.121 241.414 188.842C241.917 188.563 242.342 188.162 242.649 187.675C242.956 187.189 243.136 186.633 243.171 186.059C243.206 185.484 243.095 184.91 242.85 184.39C242.09 182.44 240.44 182.24 238.66 182.24H148C147.414 182.226 146.829 182.263 146.25 182.35C145.423 182.474 144.675 182.91 144.16 183.569C143.645 184.227 143.401 185.058 143.48 185.89C143.466 186.725 143.767 187.534 144.323 188.157C144.879 188.779 145.649 189.17 146.48 189.25C147.145 189.3 147.813 189.317 148.48 189.3L193.26 189.27ZM193.26 219.33C178.186 219.33 163.116 219.33 148.05 219.33C147.47 219.29 146.889 219.29 146.31 219.33C145.505 219.435 144.766 219.83 144.232 220.442C143.698 221.053 143.405 221.838 143.41 222.65C143.322 223.458 143.54 224.27 144.021 224.926C144.503 225.581 145.212 226.032 146.01 226.19C146.669 226.309 147.34 226.359 148.01 226.34C178.15 226.34 208.286 226.34 238.42 226.34C239.14 226.431 239.871 226.36 240.56 226.13C241.454 225.71 242.208 225.039 242.73 224.2C243.93 221.64 242.17 219.28 239.17 219.28C223.903 219.307 208.613 219.323 193.3 219.33H193.26ZM193.26 207.98H230.73C233.73 207.98 236.66 207.98 239.62 207.98C240.208 207.994 240.789 207.856 241.309 207.58C241.828 207.304 242.267 206.898 242.584 206.402C242.9 205.907 243.084 205.338 243.116 204.751C243.149 204.163 243.03 203.578 242.77 203.05C242.494 202.37 242.001 201.799 241.369 201.427C240.736 201.055 239.998 200.901 239.27 200.99H147.27C147.03 200.99 146.78 200.99 146.54 200.99C145.704 201.028 144.915 201.381 144.33 201.979C143.745 202.577 143.409 203.374 143.39 204.21C143.25 206.55 144.77 207.97 147.48 207.97L193.26 207.98ZM170.1 170.54H192C192.48 170.54 193 170.54 193.46 170.54C194.316 170.465 195.116 170.079 195.708 169.456C196.301 168.832 196.645 168.014 196.677 167.155C196.709 166.295 196.426 165.454 195.882 164.788C195.337 164.123 194.568 163.679 193.72 163.54C193.283 163.515 192.846 163.515 192.41 163.54H147.92C147.337 163.53 146.755 163.57 146.18 163.66C145.453 163.774 144.787 164.134 144.293 164.68C143.8 165.226 143.509 165.925 143.47 166.66C143.23 168.99 144.72 170.6 147.22 170.61C154.85 170.55 162.48 170.54 170.1 170.54Z" fill="white"/>
<path d="M193.26 189.27H148.5C147.833 189.287 147.166 189.27 146.5 189.22C145.669 189.14 144.899 188.749 144.343 188.127C143.787 187.504 143.486 186.695 143.5 185.86C143.422 185.028 143.665 184.197 144.181 183.539C144.696 182.88 145.444 182.444 146.27 182.32C146.849 182.233 147.435 182.196 148.02 182.21H238.71C240.49 182.21 242.14 182.41 242.9 184.36C243.146 184.88 243.256 185.454 243.221 186.029C243.186 186.603 243.007 187.159 242.7 187.645C242.393 188.132 241.968 188.533 241.464 188.812C240.961 189.091 240.396 189.238 239.82 189.24C237.73 189.33 235.64 189.24 233.55 189.24L193.26 189.27Z" fill="url(#paint4_linear_133_1458)"/>
<path d="M193.3 219.33C208.633 219.33 223.943 219.33 239.23 219.33C242.23 219.33 243.99 221.69 242.79 224.25C242.268 225.089 241.514 225.76 240.62 226.18C239.931 226.41 239.2 226.481 238.48 226.39C208.34 226.39 178.203 226.39 148.07 226.39C147.4 226.409 146.73 226.359 146.07 226.24C145.272 226.082 144.563 225.631 144.081 224.976C143.6 224.32 143.382 223.508 143.47 222.7C143.465 221.888 143.758 221.103 144.292 220.491C144.826 219.88 145.565 219.485 146.37 219.38C146.949 219.34 147.53 219.34 148.11 219.38C163.17 219.34 178.233 219.323 193.3 219.33Z" fill="url(#paint5_linear_133_1458)"/>
<path d="M193.32 208H147.54C144.83 208 143.31 206.58 143.45 204.24C143.464 203.401 143.798 202.598 144.383 201.996C144.968 201.394 145.761 201.038 146.6 201C146.84 201 147.09 201 147.33 201H239.33C240.059 200.911 240.796 201.065 241.429 201.437C242.062 201.809 242.554 202.38 242.83 203.06C243.09 203.588 243.209 204.173 243.176 204.761C243.144 205.348 242.96 205.917 242.644 206.412C242.327 206.908 241.888 207.314 241.369 207.59C240.849 207.866 240.268 208.004 239.68 207.99C236.68 208.05 233.75 207.99 230.79 207.99L193.32 208Z" fill="url(#paint6_linear_133_1458)"/>
<path d="M170.1 170.54C162.48 170.54 154.85 170.54 147.22 170.54C144.72 170.54 143.22 168.92 143.47 166.59C143.509 165.855 143.8 165.156 144.293 164.61C144.787 164.064 145.453 163.704 146.18 163.59C146.755 163.5 147.338 163.46 147.92 163.47H192.38C192.816 163.445 193.254 163.445 193.69 163.47C194.539 163.609 195.307 164.053 195.852 164.718C196.396 165.384 196.679 166.225 196.647 167.085C196.615 167.944 196.271 168.762 195.679 169.386C195.086 170.009 194.287 170.394 193.43 170.47C192.94 170.47 192.43 170.47 191.97 170.47L170.1 170.54Z" fill="url(#paint7_linear_133_1458)"/>
<path d="M85.6301 76.1201C84.5001 67.7701 90.4501 60.8901 96.7501 58.9301C109 55.1101 117.89 64.6801 117.4 74.4001C117.03 81.7201 116.26 89.0201 115.63 96.3301C115.484 99.6264 115.15 102.912 114.63 106.17C113.996 109.376 112.197 112.233 109.58 114.191C106.963 116.148 103.714 117.067 100.46 116.77C97.2589 116.501 94.2583 115.1 91.9968 112.818C89.7353 110.536 88.3609 107.524 88.1201 104.32C87.3001 95.1801 86.4901 86.0001 85.6301 76.1201ZM110 74.2101C110.18 70.2801 107.57 66.3101 104.11 65.2101C102.689 64.7699 101.183 64.6849 99.7215 64.9627C98.2604 65.2405 96.8897 65.8726 95.7298 66.8035C94.5699 67.7344 93.6561 68.9356 93.0686 70.302C92.4811 71.6683 92.2378 73.1579 92.3601 74.6401C93.0601 84.0701 93.9201 93.5001 94.7901 102.93C94.8554 104.58 95.5567 106.14 96.747 107.284C97.9372 108.428 99.5241 109.067 101.175 109.067C102.826 109.067 104.413 108.428 105.603 107.284C106.794 106.14 107.495 104.58 107.56 102.93C108.44 93.3701 109.2 83.7901 110 74.2101Z" fill="url(#paint8_linear_133_1458)"/>
<path d="M101.6 152.48C99.021 152.492 96.4961 151.739 94.344 150.318C92.1918 148.897 90.5086 146.87 89.5067 144.494C88.5048 142.117 88.2289 139.497 88.714 136.964C89.1991 134.431 90.4234 132.098 92.2325 130.26C94.0415 128.421 96.3544 127.16 98.8794 126.634C101.404 126.109 104.029 126.342 106.421 127.306C108.813 128.27 110.867 129.92 112.322 132.049C113.778 134.179 114.57 136.691 114.6 139.27C114.595 142.736 113.231 146.061 110.8 148.532C108.369 151.002 105.065 152.42 101.6 152.48ZM101.51 133.42C100.323 133.42 99.1634 133.772 98.1767 134.431C97.19 135.09 96.4209 136.028 95.9668 137.124C95.5127 138.22 95.3939 139.427 95.6254 140.591C95.8569 141.754 96.4283 142.824 97.2675 143.663C98.1066 144.502 99.1757 145.073 100.34 145.305C101.503 145.536 102.71 145.417 103.806 144.963C104.903 144.509 105.84 143.74 106.499 142.753C107.158 141.767 107.51 140.607 107.51 139.42C107.448 137.848 106.796 136.358 105.684 135.246C104.572 134.134 103.082 133.482 101.51 133.42Z" fill="url(#paint9_linear_133_1458)"/>
</g>
<defs>
<filter id="filter0_d_133_1458" x="-12.2263" y="-10.043" width="324.453" height="324.453" filterUnits="userSpaceOnUse" color-interpolation-filters="sRGB">
<feFlood flood-opacity="0" result="BackgroundImageFix"/>
<feColorMatrix in="SourceAlpha" type="matrix" values="0 0 0 0 0 0 0 0 0 0 0 0 0 0 0 0 0 0 127 0" result="hardAlpha"/>
<feOffset dy="2.18327"/>
<feGaussianBlur stdDeviation="6.11315"/>
<feComposite in2="hardAlpha" operator="out"/>
<feColorMatrix type="matrix" values="0 0 0 0 0 0 0 0 0 0 0 0 0 0 0 0 0 0 0.3 0"/>
<feBlend mode="normal" in2="BackgroundImageFix" result="effect1_dropShadow_133_1458"/>
<feBlend mode="normal" in="SourceGraphic" in2="effect1_dropShadow_133_1458" result="shape"/>
</filter>
<linearGradient id="paint0_linear_133_1458" x1="74.5567" y1="57.07" x2="210.585" y2="253.213" gradientUnits="userSpaceOnUse">
<stop stop-color="#FFEDD6"/>
<stop offset="0.173077" stop-color="#FFDCAF"/>
<stop offset="0.826923" stop-color="#FFB85D"/>
</linearGradient>
<linearGradient id="paint1_linear_133_1458" x1="192.443" y1="46.5306" x2="256.856" y2="107.911" gradientUnits="userSpaceOnUse">
<stop stop-color="#FFEDD6"/>
<stop offset="0.173077" stop-color="#FFDCAF"/>
<stop offset="0.826923" stop-color="#FFB85D"/>
</linearGradient>
<linearGradient id="paint2_linear_133_1458" x1="66.338" y1="185.62" x2="102.077" y2="229.351" gradientUnits="userSpaceOnUse">
<stop stop-color="#FFEDD6"/>
<stop offset="0.173077" stop-color="#FFDCAF"/>
<stop offset="0.826923" stop-color="#FFB85D"/>
</linearGradient>
<linearGradient id="paint3_linear_133_1458" x1="73.9147" y1="243.175" x2="87.0911" y2="262.147" gradientUnits="userSpaceOnUse">
<stop stop-color="#FFEDD6"/>
<stop offset="0.173077" stop-color="#FFDCAF"/>
<stop offset="0.826923" stop-color="#FFB85D"/>
</linearGradient>
<linearGradient id="paint4_linear_133_1458" x1="160.132" y1="182.839" x2="160.578" y2="191.899" gradientUnits="userSpaceOnUse">
<stop stop-color="#FFEDD6"/>
<stop offset="0.173077" stop-color="#FFDCAF"/>
<stop offset="0.826923" stop-color="#FFB85D"/>
</linearGradient>
<linearGradient id="paint5_linear_133_1458" x1="160.093" y1="219.962" x2="160.543" y2="229.058" gradientUnits="userSpaceOnUse">
<stop stop-color="#FFEDD6"/>
<stop offset="0.173077" stop-color="#FFDCAF"/>
<stop offset="0.826923" stop-color="#FFB85D"/>
</linearGradient>
<linearGradient id="paint6_linear_133_1458" x1="160.087" y1="201.604" x2="160.529" y2="210.624" gradientUnits="userSpaceOnUse">
<stop stop-color="#FFEDD6"/>
<stop offset="0.173077" stop-color="#FFDCAF"/>
<stop offset="0.826923" stop-color="#FFB85D"/>
</linearGradient>
<linearGradient id="paint7_linear_133_1458" x1="152.323" y1="164.084" x2="153.158" y2="173.11" gradientUnits="userSpaceOnUse">
<stop stop-color="#FFEDD6"/>
<stop offset="0.173077" stop-color="#FFDCAF"/>
<stop offset="0.826923" stop-color="#FFB85D"/>
</linearGradient>
<linearGradient id="paint8_linear_133_1458" x1="90.8198" y1="63.3145" x2="127.438" y2="91.9654" gradientUnits="userSpaceOnUse">
<stop stop-color="#FFEDD6"/>
<stop offset="0.173077" stop-color="#FFDCAF"/>
<stop offset="0.826923" stop-color="#FFB85D"/>
</linearGradient>
<linearGradient id="paint9_linear_133_1458" x1="92.8401" y1="128.692" x2="108.556" y2="151.319" gradientUnits="userSpaceOnUse">
<stop stop-color="#FFEDD6"/>
<stop offset="0.173077" stop-color="#FFDCAF"/>
<stop offset="0.826923" stop-color="#FFB85D"/>
</linearGradient>
</defs>
</svg>
