<svg width="300" height="300" viewBox="0 0 300 300" fill="none" xmlns="http://www.w3.org/2000/svg">
<g filter="url(#filter0_d_133_1440)">
<path d="M131.6 38.3C159.1 38.3 186.5 38.3 214 38.3C219.7 38.3 223.9 41.6 225.1 47C225.3 48.1 225.3 49.3001 225.3 50.4001C225.3 79.9001 225.3 109.4 225.3 138.9C225.3 139.9 225.6 141 226.2 141.8C234.2 154.3 237.4 167.9 235.6 182.6C235 188.1 233.6 193.4 231.3 198.5C230.6 200 230.7 200.9 232 202C234.5 204.2 236.7 206.7 239.1 209C241.5 211.4 242.4 214.1 241.3 217.4C241.2 217.8 241.5 218.6 241.9 219C246.7 223.9 251.7 228.7 256.5 233.7C262.2 239.5 262.9 248.1 258.4 254.6C252.5 263 240.9 264 233.4 256.8C228.6 252.2 224 247.4 219.3 242.7C218.4 241.8 217.7 241.3 216.3 241.8C213.8 242.7 211.5 241.9 209.6 240.1C206.9 237.5 204.2 234.9 201.7 232.2C200.7 231.1 199.9 231 198.5 231.5C188.3 235.9 177.7 237.4 166.7 235.8C147.3 232.9 132.4 223.1 122.3 206.3C120.7 203.7 119.5 200.9 118.3 198.2C117.8 197.1 117.3 196.8 116.1 196.8C93.8 196.8 71.6 196.8 49.3 196.8C44.3 196.8 40.4 194.3 38.7 189.8C38.2 188.6 38 187.2 38 185.9C38 140.3 38 94.8 38 49.2001C38 42.9001 42.8 38.3 49.2 38.3C76.7 38.3 104.1 38.3 131.6 38.3ZM115.5 189.6C115.4 189.1 115.3 188.9 115.3 188.6C113.6 181.3 113.1 173.8 114.3 166.4C117.8 145.2 129.1 129.6 148.4 120C149.3 119.5 149.7 119 149.7 118C149.6 112 149.7 106.1 149.7 100.1C149.7 97.3 151.1 95.9001 153.9 95.9001C158.3 95.9001 162.7 95.9001 167.2 95.9001C169.9 95.9001 171.3 97.3 171.4 100C171.4 104.1 171.4 108.2 171.4 112.4C171.4 112.9 171.5 113.4 171.5 113.9C174 113.9 176.2 113.9 178.6 113.9C178.6 113.2 178.6 112.6 178.6 112C178.6 100.9 178.6 89.7001 178.6 78.6C178.6 75.5 179.9 74.2 182.9 74.2C187.1 74.2 191.2 74.2 195.4 74.2C199 74.2 200.2 75.4001 200.2 78.9001C200.2 91.9001 200.2 104.8 200.2 117.8C200.2 118.9 200.5 119.5 201.5 119.9C207.3 122.7 212.6 126.3 217.3 130.7C217.5 130.9 217.8 131.1 218.1 131.3C218.1 109.7 218.1 88.4 218.1 67C160.5 67 103 67 45.3 67C45.3 67.6 45.3 68.2 45.3 68.7C45.3 107.3 45.3 145.9 45.3 184.5C45.3 188.2 46.5 189.4 50.2 189.4C71.4 189.4 92.5 189.4 113.7 189.4C114.2 189.6 114.7 189.6 115.5 189.6ZM45.3 59.9001C102.9 59.9001 160.4 59.9001 218.1 59.9001C218.1 56.1001 218.2 52.3 218 48.6C218 47.8 217.2 46.8001 216.5 46.4001C215.6 45.9001 214.4 45.7001 213.4 45.7001C158.9 45.7001 104.4 45.7001 50 45.7001C49.5 45.7001 49 45.7001 48.5 45.7001C46.8 45.9001 45.4 47.1 45.3 48.8C45.2 52.3 45.3 56.1001 45.3 59.9001ZM228.9 175.3C228.9 145.5 204.8 121.3 174.9 121.2C145.2 121.2 120.9 145.4 120.8 175C120.8 205 144.9 229.2 174.9 229.2C204.7 229.3 228.9 205 228.9 175.3ZM223.5 236.5C223.5 236.6 223.6 236.7 223.6 236.8C228.8 242 233.9 247.2 239.1 252.2C241.8 254.8 245.9 255.1 249.2 253.3C254.6 250.4 255.8 243.4 251.4 238.9C246.5 233.9 241.5 229 236.6 224C236.4 223.8 236.2 223.8 236.1 223.7C231.9 228.1 227.7 232.3 223.5 236.5ZM207.1 227.2C209.6 229.8 212.1 232.3 214.4 234.6C221 228 227.6 221.4 234.1 215C231.8 212.6 229.3 210.1 226.9 207.5C221.8 215.5 215.2 222.1 207.1 227.2ZM185.7 81.6C185.7 86.4 185.7 91 185.7 95.6C185.7 101.6 185.7 107.6 185.7 113.6C185.7 114.1 186 114.9 186.3 115C188.4 115.6 190.6 116 192.8 116.5C192.8 104.8 192.8 93.2001 192.8 81.6C190.4 81.6 188.2 81.6 185.7 81.6ZM157 116.6C159.2 116.1 161.1 115.6 163.1 115.2C164 115 164.1 114.5 164.1 113.7C164.1 110.9 164.1 108.1 164.1 105.2C164.1 104.5 164.1 103.9 164.1 103.2C161.6 103.2 159.3 103.2 157 103.2C157 107.7 157 112.1 157 116.6Z" fill="url(#paint0_linear_133_1440)"/>
<path d="M88.3999 117.6C89.0999 117.6 89.6999 117.6 90.1999 117.6C97.6999 117.6 105.3 117.6 112.8 117.6C115.9 117.6 117.2 119 117.1 122.1C116.8 136.8 106.1 149.7 91.7999 152.8C74.5999 156.4 58.1999 146.6 53.4999 129.7C48.2999 111.3 60.9999 91.8001 79.9999 89.2001C81.3999 89.0001 82.8999 88.9001 84.2999 88.8001C86.8999 88.7001 88.3999 90.2001 88.3999 92.8001C88.3999 100.5 88.3999 108.3 88.3999 116C88.3999 116.5 88.3999 116.9 88.3999 117.6ZM64.5999 136.2C64.8999 135.9 65.1999 135.8 65.2999 135.6C70.3999 130.5 75.4999 125.4 80.4999 120.3C80.8999 119.9 81.1999 119.1 81.1999 118.5C81.1999 111.6 81.1999 104.7 81.1999 97.8001C81.1999 97.3001 81.1999 96.9001 81.0999 96.2001C71.6999 98.0001 64.9999 103 61.4999 111.9C57.9999 120.4 59.2999 128.5 64.5999 136.2ZM69.7999 141.4C77.6999 146.8 85.8999 148 94.4999 144.4C103.1 140.8 108.1 134.2 109.8 125C109.4 124.9 109.3 124.8 109.1 124.8C101.8 124.8 94.3999 124.8 87.0999 124.8C86.6999 124.8 86.1999 125 85.8999 125.3C80.5999 130.6 75.2999 135.9 69.7999 141.4Z" fill="url(#paint1_linear_133_1440)"/>
<path d="M77.6999 182.4C70.6999 182.4 63.7999 182.4 56.7999 182.4C53.7999 182.4 52.3999 181.1 52.3999 178C52.3999 173.7 52.3999 169.4 52.3999 165C52.3999 162.1 53.7999 160.7 56.6999 160.7C70.6999 160.7 84.5999 160.7 98.5999 160.7C101.5 160.7 102.9 162.1 102.9 165C102.9 169.4 102.9 173.7 102.9 178.1C102.9 180.9 101.5 182.3 98.6999 182.3C91.6999 182.4 84.6999 182.4 77.6999 182.4ZM59.6999 175.1C71.6999 175.1 83.5999 175.1 95.4999 175.1C95.4999 172.7 95.4999 170.4 95.4999 168.1C83.4999 168.1 71.5999 168.1 59.6999 168.1C59.6999 170.4 59.6999 172.7 59.6999 175.1Z" fill="url(#paint2_linear_133_1440)"/>
<path d="M95.7001 92.4C95.7001 87.8 95.7001 83.3 95.7001 78.7C95.7001 75.7 97.1001 74.3 100.1 74.4C115.6 74.6 129.4 86.7 131.4 102.1C131.6 103.5 131.7 105 131.8 106.4C131.8 108.9 130.4 110.4 127.9 110.4C121 110.4 114.1 110.4 107.2 110.4C105 110.4 102.7 110.4 100.5 110.4C97.1001 110.4 95.9001 109.2 95.9001 105.7C95.6001 101.3 95.7001 96.8 95.7001 92.4ZM124 103.1C122.8 91.6 112.1 82.6 102.9 82.1C102.9 89.1 102.9 96.1 102.9 103.1C110 103.1 117 103.1 124 103.1Z" fill="url(#paint3_linear_133_1440)"/>
<path d="M221.7 175.3C221.6 201.3 200.5 222.1 174.5 222C148.6 221.9 127.8 200.7 128.1 174.5C128.4 148.9 149.2 128.3 175.1 128.4C200.9 128.5 221.8 149.6 221.7 175.3ZM200.2 160.8C201.5 160.8 202.6 160.8 203.6 160.8C205.8 160.9 207.2 162.3 207.3 164.5C207.3 169.2 207.3 173.9 207.3 178.7C207.3 181 205.8 182.4 203.5 182.4C184.4 182.4 165.4 182.4 146.3 182.4C143.9 182.4 142.5 180.9 142.5 178.6C142.5 174 142.5 169.4 142.5 164.7C142.5 162.3 144 160.8 146.4 160.8C147.5 160.8 148.5 160.8 149.6 160.8C149.6 155.4 149.6 150.2 149.6 145C149.3 145.2 149.2 145.2 149.1 145.3C136.8 155.8 132.1 173.1 137.7 188.6C138 189.5 138.5 189.6 139.4 189.6C163.1 189.6 186.9 189.6 210.6 189.6C211.6 189.6 212 189.2 212.3 188.4C217.3 172.5 214 158.7 202.5 146.7C201.9 146.1 201.1 145.5 200.3 144.8C200.2 150.3 200.2 155.5 200.2 160.8ZM142 196.9C147.7 206.7 161.3 215.9 177.4 214.7C190.3 213.8 200.4 207.7 208 196.9C185.8 196.9 164 196.9 142 196.9ZM149.8 175.1C166.7 175.1 183.3 175.1 200 175.1C200 172.7 200 170.4 200 168.1C183.2 168.1 166.5 168.1 149.8 168.1C149.8 170.5 149.8 172.8 149.8 175.1ZM178.4 135.6C176.5 135.6 174.7 135.6 172.9 135.6C171.7 135.6 171.3 136 171.3 137.2C171.4 144.6 171.3 152 171.3 159.4C171.3 159.8 171.4 160.3 171.4 160.7C173.8 160.7 176.1 160.7 178.4 160.7C178.4 152.4 178.4 144.1 178.4 135.6ZM164 137C161.9 137.8 160 138.6 158.1 139.3C157.2 139.7 156.9 140.2 156.9 141.2C156.9 147.2 156.9 153.3 156.9 159.3C156.9 159.7 157 160.1 157 160.6C159.4 160.6 161.7 160.6 164 160.6C164 152.9 164 145.1 164 137ZM192.9 160.7C192.9 153.9 192.9 147.3 192.9 140.6C192.9 140.3 192.7 139.8 192.5 139.7C190.4 138.8 188.2 137.9 185.8 136.9C185.8 145.1 185.8 152.8 185.8 160.6C188.2 160.7 190.4 160.7 192.9 160.7Z" fill="url(#paint4_linear_133_1440)"/>
</g>
<defs>
<filter id="filter0_d_133_1440" x="-12.2263" y="-10.043" width="323.852" height="324.453" filterUnits="userSpaceOnUse" color-interpolation-filters="sRGB">
<feFlood flood-opacity="0" result="BackgroundImageFix"/>
<feColorMatrix in="SourceAlpha" type="matrix" values="0 0 0 0 0 0 0 0 0 0 0 0 0 0 0 0 0 0 127 0" result="hardAlpha"/>
<feOffset dy="2.18327"/>
<feGaussianBlur stdDeviation="6.11315"/>
<feComposite in2="hardAlpha" operator="out"/>
<feColorMatrix type="matrix" values="0 0 0 0 0 0 0 0 0 0 0 0 0 0 0 0 0 0 0.3 0"/>
<feBlend mode="normal" in2="BackgroundImageFix" result="effect1_dropShadow_133_1440"/>
<feBlend mode="normal" in="SourceGraphic" in2="effect1_dropShadow_133_1440" result="shape"/>
</filter>
<linearGradient id="paint0_linear_133_1440" x1="75.2734" y1="58.2345" x2="209.626" y2="251.703" gradientUnits="userSpaceOnUse">
<stop stop-color="#FFEDD6"/>
<stop offset="0.173077" stop-color="#FFDCAF"/>
<stop offset="0.826923" stop-color="#FFB85D"/>
</linearGradient>
<linearGradient id="paint1_linear_133_1440" x1="63.1394" y1="94.5751" x2="102.088" y2="150.682" gradientUnits="userSpaceOnUse">
<stop stop-color="#FFEDD6"/>
<stop offset="0.173077" stop-color="#FFDCAF"/>
<stop offset="0.826923" stop-color="#FFB85D"/>
</linearGradient>
<linearGradient id="paint2_linear_133_1440" x1="60.828" y1="162.637" x2="68.4642" y2="188.224" gradientUnits="userSpaceOnUse">
<stop stop-color="#FFEDD6"/>
<stop offset="0.173077" stop-color="#FFDCAF"/>
<stop offset="0.826923" stop-color="#FFB85D"/>
</linearGradient>
<linearGradient id="paint3_linear_133_1440" x1="101.712" y1="77.6091" x2="123.351" y2="108.863" gradientUnits="userSpaceOnUse">
<stop stop-color="#FFEDD6"/>
<stop offset="0.173077" stop-color="#FFDCAF"/>
<stop offset="0.826923" stop-color="#FFB85D"/>
</linearGradient>
<linearGradient id="paint4_linear_133_1440" x1="143.718" y1="136.755" x2="200.034" y2="217.843" gradientUnits="userSpaceOnUse">
<stop stop-color="#FFEDD6"/>
<stop offset="0.173077" stop-color="#FFDCAF"/>
<stop offset="0.826923" stop-color="#FFB85D"/>
</linearGradient>
</defs>
</svg>
