<svg width="160" height="43" viewBox="0 0 160 43" fill="none" xmlns="http://www.w3.org/2000/svg">
<g clip-path="url(#clip0_10_728)">
<path d="M8.43494 5.03562C11.961 2.24702 16.3975 0.576158 21.2372 0.576158C26.0654 0.576158 30.5018 2.24702 34.0279 5.0241C34.1201 4.86278 34.2353 4.70145 34.3736 4.56317C30.7438 1.71695 26.1921 0 21.2372 0C16.2822 0 11.719 1.71695 8.10077 4.5747C8.22752 4.71298 8.34275 4.8743 8.43494 5.03562Z" fill="white"/>
<path d="M37.9343 8.14687C37.796 8.28515 37.6347 8.40038 37.4734 8.49257C40.239 12.0071 41.8868 16.4205 41.8868 21.2257C41.8868 25.9732 40.2735 30.3405 37.5771 33.832L37.7039 33.9588L37.8537 34.4197C40.746 30.7899 42.4745 26.2037 42.4745 21.2257C42.4629 16.2938 40.769 11.7536 37.9343 8.14687Z" fill="white"/>
<path d="M4.74755 33.9703L4.88582 33.832C2.1894 30.352 0.576158 25.9732 0.576158 21.2372C0.576158 16.432 2.22397 12.0187 4.98953 8.50409C4.82821 8.41191 4.66688 8.29668 4.5286 8.1584C1.69391 11.7651 0 16.3053 0 21.2372C0 26.2152 1.72848 30.8014 4.60927 34.4312L4.74755 33.9703Z" fill="white"/>
<path d="M33.9127 37.7614L33.7744 37.6231C30.2944 40.2965 25.9386 41.8867 21.2257 41.8867C16.5012 41.8867 12.1569 40.2965 8.67693 37.6116L8.53865 37.7499L8.10077 37.8882C11.719 40.7459 16.2822 42.4514 21.2372 42.4514C26.1921 42.4514 30.7553 40.7459 34.3736 37.8882L33.9127 37.7614Z" fill="white"/>
<path d="M29.7532 11.2121C29.9145 11.3504 30.0758 11.4886 30.2256 11.6384L31.5853 10.3017L31.6545 10.3248C31.7467 10.4055 31.8389 10.4976 31.931 10.5898L30.5598 11.9611C30.8133 12.2146 31.0553 12.4911 31.2973 12.7677L32.6455 11.3964C33.406 12.3529 33.671 13.1134 33.671 13.1249L35.0077 12.6755C34.9847 12.6179 34.5814 11.4541 33.406 10.1059L33.7402 9.77168L32.9566 9.40294L33.0834 9.27618C33.2216 9.1379 33.429 9.10333 33.6134 9.184L33.8093 9.27618C33.9822 9.35684 34.2011 9.32228 34.3394 9.184L34.5353 8.9881L33.7517 8.61936L33.8785 8.49261C34.0167 8.35433 34.2241 8.31976 34.4085 8.40042L34.6044 8.49261C34.7773 8.57327 34.9962 8.5387 35.1345 8.40042L35.3304 8.20453L34.5468 7.83579L34.6735 7.70903C34.8118 7.57075 35.0192 7.53618 35.2036 7.61685L35.3995 7.70903C35.5724 7.78969 35.7913 7.75512 35.9296 7.61685L36.0679 7.47857C36.4251 7.53618 36.8053 7.42095 37.0819 7.1444C37.5428 6.68347 37.5428 5.93446 37.0819 5.47354C36.621 5.01261 35.872 5.01261 35.411 5.47354C35.1345 5.75009 35.0308 6.13036 35.0769 6.48758L32.4611 9.10334C31.1129 7.91645 29.9491 7.51314 29.8914 7.50161L29.442 8.8383C29.4536 8.8383 30.2141 9.11486 31.1705 9.86386L29.7532 11.2121ZM35.8143 5.93446C36.0218 5.72705 36.3559 5.72705 36.5633 5.93446C36.7708 6.14188 36.7708 6.47605 36.5633 6.68347C36.3559 6.89089 36.0218 6.89089 35.8143 6.68347C35.6069 6.48758 35.6069 6.14188 35.8143 5.93446Z" fill="white"/>
<path d="M6.44178 7.47872L6.58006 7.617C6.71834 7.75528 6.92575 7.78985 7.11012 7.70919L7.30602 7.617C7.47886 7.53634 7.6978 7.57091 7.83608 7.70919L7.96284 7.83594L7.17926 8.20468L7.37516 8.40058C7.51343 8.53885 7.72085 8.57342 7.90522 8.49276L8.10112 8.40058C8.27396 8.31991 8.4929 8.35448 8.63118 8.49276L8.75794 8.61952L7.93979 8.98826L8.13568 9.18415C8.27396 9.32243 8.48138 9.357 8.66575 9.27634L8.86164 9.18415C9.03449 9.10349 9.25343 9.13806 9.39171 9.27634L9.51847 9.40309L8.73489 9.77183L9.06906 10.106C7.88217 11.4542 7.47886 12.6181 7.46734 12.6757L8.80403 13.1251C8.80403 13.1136 9.08059 12.353 9.82959 11.3966L11.1893 12.7679C11.4198 12.4913 11.6733 12.2147 11.9268 11.9612L10.5325 10.59C10.6247 10.4978 10.7169 10.4171 10.8091 10.3249L10.8782 10.3019L12.2379 11.6501C12.3877 11.5003 12.5491 11.362 12.7104 11.2238L11.3391 9.86402C12.2955 9.10349 13.0561 8.83846 13.0676 8.83846L12.6182 7.50177C12.5606 7.52481 11.3967 7.92813 10.0485 9.10349L7.42125 6.49925C7.47886 6.14203 7.36363 5.76177 7.08708 5.48521C6.62615 5.02429 5.87714 5.02429 5.41622 5.48521C4.95529 5.94614 4.95529 6.69515 5.41622 7.15607C5.7043 7.43263 6.07304 7.53634 6.44178 7.47872ZM5.87714 5.93462C6.08456 5.7272 6.41873 5.7272 6.62615 5.93462C6.83357 6.14203 6.83357 6.47621 6.62615 6.68362C6.41873 6.89104 6.08456 6.89104 5.87714 6.68362C5.66973 6.48773 5.66973 6.14203 5.87714 5.93462Z" fill="white"/>
<path d="M31.3663 29.6146C31.228 29.7874 31.0782 29.9487 30.94 30.1101L35.918 35.0305L36.5863 36.6322L30.5136 30.5595C30.214 30.8591 29.8914 31.1472 29.5687 31.4122L34.6504 36.5746L37.3814 37.4388L36.5172 34.7078L31.3663 29.6146Z" fill="white"/>
<path d="M11.9613 30.548L5.87709 36.6322L6.54544 35.0305L11.535 30.0985C11.3852 29.9372 11.2469 29.7759 11.1086 29.6031L5.94623 34.6848L5.07047 37.4388L7.80146 36.5746L12.8947 31.4122C12.5721 31.1356 12.2609 30.8591 11.9613 30.548Z" fill="white"/>
<path d="M21.2371 34.6732C13.8277 34.6732 7.80111 28.6466 7.80111 21.2372C7.80111 13.8278 13.8162 7.78966 21.2371 7.78966C28.658 7.78966 34.6731 13.8163 34.6731 21.2257C34.6731 28.6351 28.6465 34.6732 21.2371 34.6732ZM21.2371 8.36582C14.1504 8.36582 8.37727 14.1389 8.37727 21.2257C8.37727 28.3124 14.1504 34.0855 21.2371 34.0855C28.3239 34.0855 34.097 28.3124 34.097 21.2257C34.097 14.1389 28.3239 8.36582 21.2371 8.36582Z" fill="white"/>
<path d="M18.8637 15.9711C18.8637 15.9711 18.7023 16.0748 18.518 15.9941C18.3336 15.9135 18.1607 15.3488 18.6447 15.199C19.1287 15.0377 19.7509 15.418 19.4974 16.1094C19.2554 16.7662 18.6678 16.916 18.1838 17.5728C17.7805 18.1259 17.8496 18.679 17.8496 18.679C17.8496 18.679 17.9649 18.1835 18.8867 17.5959C19.8086 17.0082 20.1658 16.6164 20.281 15.9711C20.3962 15.3143 19.8662 14.427 18.9213 14.5077C17.9764 14.5883 17.7459 15.4641 17.9649 15.8904C18.2068 16.3398 18.7139 16.3168 18.8637 15.9711Z" fill="white"/>
<path d="M20.1427 18.0337C20.1427 18.0337 18.7484 18.1951 17.9764 18.8634C17.2043 19.5317 17.02 20.5227 17.1582 21.2717C17.285 22.0208 17.3887 22.3664 17.4117 22.643C17.4117 22.643 17.8381 20.4882 19.8431 19.7046C20.7765 19.3359 21.2605 18.9902 21.4909 18.172C21.6868 17.4691 21.1683 16.7777 21.1683 16.7777C21.1683 16.7777 21.4679 17.7687 20.788 18.5523C20.1082 19.3359 18.76 18.8865 17.9072 20.1655C17.8842 20.1655 17.8727 19.0478 20.1427 18.0337Z" fill="white"/>
<path d="M18.4949 21.6635C18.4949 21.6635 18.8176 20.5458 19.8662 20.1079C20.9839 19.6585 21.6868 20.3614 21.4218 21.0874C21.1913 21.7212 20.304 21.7212 20.281 20.9376C20.281 20.9376 20.6036 21.2602 20.7419 20.9722C20.8917 20.6841 20.2925 20.2462 18.4949 21.6635Z" fill="white"/>
<path d="M23.1387 21.9747C23.1387 21.9747 22.7469 22.4932 21.9979 22.4817C21.2489 22.4702 20.3847 21.5829 18.8291 22.0553C17.2734 22.5278 16.6627 24.5674 17.8957 25.8234C17.8957 25.8234 17.1352 23.7377 18.7714 23.0233C20.1888 22.401 21.1683 23.3229 22.3091 22.9311C23.0581 22.6661 23.1387 21.9747 23.1387 21.9747Z" fill="white"/>
<path d="M19.7164 25.0859C19.7164 25.0859 19.4398 25.3049 19.0711 25.1666C18.8752 25.0975 18.5756 24.6711 18.9328 24.1871C19.3361 23.634 20.6728 23.6686 20.8111 24.6826C20.9493 25.6967 18.9789 26.4111 18.4258 26.5839C17.8726 26.7568 16.4668 27.2984 16.0635 28.1972C15.6602 29.096 16.052 29.9948 16.824 30.2714C16.824 30.2714 15.9598 29.5339 16.3285 28.6812C16.6973 27.8284 18.0801 27.4367 19.6126 26.8835C21.1452 26.3304 21.6638 25.4777 21.4909 24.4061C21.3065 23.3344 19.6818 22.8043 18.8406 23.4957C17.9879 24.1986 18.2414 25.4431 19.0711 25.4777C19.6472 25.5123 19.7164 25.0859 19.7164 25.0859Z" fill="white"/>
<path d="M19.0364 27.6556C19.0364 27.6556 16.8701 28.8079 17.4808 30.1676C17.4808 30.1676 16.4898 29.6606 16.9853 28.612C17.4117 27.7017 19.0364 27.6556 19.0364 27.6556Z" fill="white"/>
<path d="M18.08 30.5594C18.08 30.5594 17.6652 29.6952 18.8636 29.1421C20.062 28.589 21.0184 27.9898 21.1452 27.598C21.1452 27.598 21.6061 28.2202 20.7304 28.8886C19.8546 29.5569 19.4283 29.8565 19.5435 30.5018C19.5435 30.5018 19.5781 29.9602 20.7995 29.4417C22.021 28.9231 22.309 27.5749 21.1913 26.3304C21.1913 26.3304 20.811 27.2062 19.7509 27.8745C18.6677 28.5313 17.2734 29.338 18.08 30.5594Z" fill="white"/>
<path d="M20.0621 28.9001C20.0621 28.9001 18.3336 29.3265 18.3682 30.571H19.1057C19.1057 30.571 18.8867 29.9602 20.0621 28.9001Z" fill="white"/>
<path d="M20.3156 30.4672C20.3156 30.4672 20.5806 29.4186 21.5601 29.3841C22.5396 29.361 22.5511 30.4442 22.0786 30.617C21.6062 30.8014 21.3527 30.329 21.3527 30.329C21.3527 30.329 21.7906 30.3751 21.6753 30.0985C21.5716 29.8565 20.7535 30.0409 20.3156 30.4672Z" fill="white"/>
<path d="M15.9714 30.0409C15.9714 30.0409 15.6718 30.3405 15.3952 30.4327V30.5709H16.7434C16.7434 30.5709 16.2364 30.352 15.9714 30.0409Z" fill="white"/>
<path d="M29.0501 23.4381C28.7966 22.8504 28.474 22.3665 28.0822 21.9747C27.6904 21.6059 27.241 21.3063 26.7224 21.0643C26.2039 20.8339 25.6969 20.6841 25.2129 20.6034V20.3499C25.6969 20.1886 26.1578 19.9927 26.5726 19.7507C26.999 19.5087 27.3562 19.2322 27.6674 18.9095C28.0015 18.5523 28.2666 18.1375 28.4394 17.665C28.6238 17.181 28.716 16.6279 28.716 15.9942C28.716 14.6229 28.3126 13.5858 27.506 12.8714C26.7455 12.203 25.766 11.7767 23.8301 11.7767H15.6141C15.4989 11.7767 15.5335 11.915 15.6141 11.9841C16.4784 12.6524 17.308 13.4591 17.6537 14.5307C17.6768 14.5998 17.6768 14.6805 17.7689 14.7036C17.8496 14.7151 17.8611 14.6459 17.8957 14.5883C18.2414 14.0698 18.7484 13.92 19.3246 14.0006C20.3386 14.1389 20.9263 15.1069 20.6958 16.2016C20.6036 16.6164 20.4308 16.9967 20.1542 17.3308C20.3156 17.3078 20.4193 17.2156 20.5115 17.1004C20.8687 16.6394 20.9609 16.0979 20.9724 15.5447C20.9839 15.0032 20.9724 14.4616 21.007 13.9315C21.0185 13.6895 21.0876 13.436 21.2835 13.2747C21.5601 13.0442 21.9288 13.0097 22.2745 12.9981C22.6893 12.9866 23.1272 13.0212 23.519 13.1595C23.8878 13.2862 24.1989 13.5282 24.4293 13.8393C24.4409 13.8508 24.4524 13.8739 24.4639 13.8854C24.8787 14.4616 25.0862 15.2797 25.0862 16.3168C25.0862 17.4576 24.8442 18.3564 24.3717 19.0132C23.8878 19.6816 23.1503 20.0157 22.1362 20.0157L21.8482 19.9812C22.0325 20.3269 22.1478 20.7302 22.1593 21.145C22.1593 21.1911 22.1593 21.2487 22.1593 21.2948C22.3206 21.2833 22.4474 21.2833 22.5511 21.2833C23.5766 21.2833 24.3717 21.629 24.9133 22.3319C25.4664 23.0233 25.7315 24.0258 25.7315 25.3394C25.7315 26.6185 25.501 27.6095 25.0401 28.3124C24.5791 29.0153 23.9684 29.3726 23.2309 29.3726C23.035 29.3726 22.8507 29.3495 22.6778 29.2919V29.3034C23.0466 29.6376 23.3231 30.0755 23.4729 30.571C24.3832 30.5594 25.1783 30.4788 25.8582 30.3175C26.5957 30.1561 27.241 29.868 27.7941 29.4647C28.3242 29.0845 28.7275 28.5659 29.0156 27.9091C29.3036 27.2523 29.4419 26.4457 29.4419 25.5008C29.4189 24.7057 29.2921 24.0258 29.0501 23.4381Z" fill="white"/>
<path d="M21.2372 2.08569L21.7788 3.7796H23.5764L22.1245 4.82821L22.6776 6.53364L21.2372 5.48503L19.7853 6.53364L20.3384 4.82821L18.898 3.7796H20.6841L21.2372 2.08569Z" fill="white"/>
<path d="M38.2224 18.5869L38.7755 20.2923H40.5616L39.1212 21.3409L39.6743 23.0348L38.2224 21.9862L36.782 23.0348L37.3351 21.3409L35.8832 20.2923H37.6693L38.2224 18.5869Z" fill="white"/>
<path d="M4.29815 18.5869L4.85126 20.2923H6.63735L5.19695 21.3409L5.75007 23.0348L4.29815 21.9862L2.85775 23.0348L3.41086 21.3409L1.95894 20.2923H3.74503L4.29815 18.5869Z" fill="white"/>
<path d="M21.2372 35.9292L21.7788 37.6347H23.5764L22.1245 38.6833L22.6776 40.3772L21.2372 39.3286L19.7853 40.3772L20.3384 38.6833L18.898 37.6347H20.6841L21.2372 35.9292Z" fill="white"/>
</g>
<path d="M67.0865 16.3568C67.7491 16.0476 68.235 15.6058 68.5884 15.0316C68.9418 14.5015 69.1185 13.8388 69.1185 13.132C69.1185 11.8951 68.6326 10.9674 67.6607 10.3048C66.6889 9.64216 65.3194 9.28876 63.5524 9.28876H56.396V23.9992H63.95C65.8054 23.9992 67.2632 23.6458 68.2792 22.8948C69.2952 22.1438 69.7812 21.1278 69.7812 19.8025C69.7812 18.919 69.5603 18.2122 69.1185 17.6379C68.6326 17.0636 67.97 16.6219 67.0865 16.3568ZM60.4601 12.3369H63.1107C64.3034 12.3369 64.8777 12.8228 64.8777 13.7947C64.8777 14.7665 64.3034 15.2524 63.1107 15.2524H60.4601V12.3369ZM63.7733 21.0836H60.5043V18.0355H63.7733C64.966 18.0355 65.5845 18.5214 65.5845 19.5375C65.5845 20.5535 64.966 21.0836 63.7733 21.0836Z" fill="white"/>
<path d="M76.1425 18.1238H82.6804V15.0316H76.1425V12.5577H83.564V9.33294H72.0342V24.0434H83.829V20.8186H76.1425V18.1238Z" fill="white"/>
<path d="M84.933 12.6461H89.483V24.0434H93.5913V12.6461H98.0531V9.33294H84.933V12.6461Z" fill="white"/>
<path d="M104.105 18.1238H110.643V15.0316H104.105V12.5577H111.527V9.33294H99.9971V24.0434H111.792V20.8186H104.105V18.1238Z" fill="white"/>
<path d="M126.635 11.8951C126.105 11.0558 125.354 10.4373 124.382 9.99557C123.41 9.55381 122.262 9.33294 120.892 9.33294H114.177V24.0434H118.33V20.2001H120.892C122.217 20.2001 123.366 19.9792 124.382 19.5375C125.354 19.0957 126.105 18.4773 126.635 17.6379C127.165 16.8428 127.43 15.8709 127.43 14.7665C127.43 13.6621 127.165 12.6903 126.635 11.8951ZM122.571 16.3568C122.129 16.7102 121.511 16.9311 120.627 16.9311H118.33V12.6019H120.627C121.466 12.6019 122.129 12.7786 122.571 13.1762C123.013 13.5738 123.233 14.1039 123.233 14.7665C123.233 15.4733 123.013 16.0034 122.571 16.3568Z" fill="white"/>
<path d="M133.614 9.33294L127.121 24.0434H131.361L132.51 21.172H138.739L139.887 24.0434H144.216L137.678 9.33294H133.614ZM133.747 18.1238L135.646 13.3971L137.546 18.1238H133.747Z" fill="white"/>
<path d="M155.746 9.33294V14.8549H150.048V9.33294H145.895V24.0434H150.048V18.3005H155.746V24.0434H159.899V9.33294H155.746Z" fill="white"/>
<path d="M59.0024 29.1677H56.9703V32.6576H56.396V28.6818H59.0024V29.1677Z" fill="white"/>
<path d="M65.4075 29.0352C65.7167 29.3003 65.8492 29.6095 65.8492 30.0513C65.8492 30.493 65.7167 30.8022 65.4075 31.0673C65.0983 31.3323 64.7007 31.4207 64.1706 31.4207H63.1987V32.6134H62.6244V28.6376H64.1706C64.7007 28.6818 65.0983 28.8143 65.4075 29.0352ZM64.9657 30.7139C65.1424 30.5814 65.2308 30.3605 65.2308 30.0513C65.2308 29.742 65.1424 29.5211 64.9657 29.3886C64.789 29.2561 64.4798 29.1677 64.1264 29.1677H63.1545V30.9348H64.1264C64.524 30.9348 64.789 30.8906 64.9657 30.7139Z" fill="white"/>
<path d="M72.7413 28.6818L70.9742 31.9508C70.8417 32.2158 70.665 32.3925 70.4883 32.5251C70.3116 32.6576 70.0907 32.7018 69.8699 32.7018C69.6932 32.7018 69.5165 32.6576 69.3398 32.5692L69.4723 32.1275C69.6048 32.1717 69.7373 32.2158 69.8257 32.2158C70.0907 32.2158 70.2674 32.0833 70.4441 31.8183L70.5325 31.6857L68.9422 28.6818H69.5606L70.8417 31.1998L72.167 28.6818H72.7413Z" fill="white"/>
<path d="M79.7208 28.6818V32.6576H79.1465V29.1677H76.8494V32.6576H76.2751V28.6818H79.7208Z" fill="white"/>
<path d="M87.3186 28.6818V32.6576H86.7885V29.1677H84.4914V32.6576H83.9171V28.6818H87.3186Z" fill="white"/>
<path d="M94.1215 31.6416H92.0011L91.5594 32.6576H90.9851L92.7963 28.6818H93.3705L95.1817 32.6576H94.5633L94.1215 31.6416ZM93.9007 31.1998L93.0613 29.2561L92.222 31.1998H93.9007Z" fill="white"/>
<path d="M104.68 30.8906H103.841V32.6576H103.266V28.6818H103.841V30.4046H104.68L105.917 28.6818H106.535L105.122 30.6255L106.624 32.6576H105.961L104.68 30.8906Z" fill="white"/>
<path d="M110.821 32.4367C110.511 32.26 110.246 32.0391 110.07 31.6857C109.893 31.3765 109.805 31.0231 109.805 30.6255C109.805 30.2279 109.893 29.8745 110.07 29.5653C110.246 29.2561 110.511 28.991 110.821 28.8143C111.13 28.6376 111.483 28.5493 111.925 28.5493C112.323 28.5493 112.676 28.6376 112.985 28.8143C113.295 28.991 113.56 29.2119 113.736 29.5211C113.913 29.8304 114.001 30.1838 114.001 30.5813C114.001 30.9789 113.913 31.3323 113.736 31.6416C113.56 31.9508 113.295 32.1717 112.985 32.3484C112.676 32.5251 112.323 32.6134 111.925 32.6134C111.527 32.7018 111.174 32.6134 110.821 32.4367ZM112.72 31.995C112.941 31.8624 113.118 31.6857 113.25 31.4648C113.383 31.244 113.471 30.9789 113.471 30.6697C113.471 30.3605 113.383 30.1396 113.25 29.8745C113.118 29.6537 112.941 29.477 112.72 29.3444C112.499 29.2119 112.234 29.1235 111.925 29.1235C111.616 29.1235 111.351 29.2119 111.13 29.3444C110.909 29.477 110.688 29.6537 110.556 29.8745C110.423 30.0954 110.335 30.3605 110.335 30.6697C110.335 30.9789 110.423 31.1998 110.556 31.4648C110.688 31.6857 110.865 31.8624 111.13 31.995C111.351 32.1275 111.616 32.2158 111.925 32.2158C112.234 32.2158 112.455 32.1275 112.72 31.995Z" fill="white"/>
<path d="M121.599 32.6576V29.742L120.142 32.1717H119.876L118.419 29.7862V32.6576H117.889V28.6818H118.375L120.053 31.4648L121.688 28.6818H122.174V32.6576H121.599Z" fill="white"/>
<path d="M129.772 28.6818V32.6576H129.197V29.1677H126.9V32.6576H126.326V28.6818H129.772Z" fill="white"/>
<path d="M136.53 31.6416H134.41L133.968 32.6576H133.394L135.205 28.6818H135.779L137.591 32.6576H136.972L136.53 31.6416ZM136.354 31.1998L135.514 29.2561L134.675 31.1998H136.354Z" fill="white"/>
<path d="M144.659 28.6818V32.6576H144.084V30.8906H141.787V32.6576H141.213V28.6818H141.787V30.4046H144.084V28.6818H144.659Z" fill="white"/>
<path d="M148.811 28.6818H149.385V31.7299L151.726 28.6818H152.257V32.6576H151.726V29.6095L149.385 32.6576H148.855V28.6818H148.811Z" fill="white"/>
<path d="M156.454 28.6818H157.028V31.7299L159.369 28.6818H159.899V32.6576H159.325V29.6095L156.984 32.6576H156.454V28.6818ZM157.47 28.1959C157.293 28.0633 157.205 27.8866 157.205 27.6216H157.602C157.602 27.7541 157.646 27.8866 157.779 27.975C157.867 28.0633 158 28.1075 158.176 28.1075C158.353 28.1075 158.486 28.0633 158.574 27.975C158.662 27.8866 158.751 27.7983 158.751 27.6216H159.148C159.148 27.8866 159.06 28.0633 158.883 28.1959C158.707 28.3284 158.486 28.4168 158.176 28.4168C157.867 28.4168 157.602 28.3284 157.47 28.1959Z" fill="white"/>
<defs>
<clipPath id="clip0_10_728">
<rect width="42.4629" height="42.4629" fill="white"/>
</clipPath>
</defs>
</svg>
